<?xml version="1.0" encoding="UTF-8"?>
<svg width="132px" height="64px" viewBox="0 0 132 64" version="1.1" xmlns="http://www.w3.org/2000/svg" xmlns:xlink="http://www.w3.org/1999/xlink">
    <!-- Generator: Sketch 52.6 (67491) - http://www.bohemiancoding.com/sketch -->
    <title>Group 67</title>
    <desc>Created with Sketch.</desc>
    <defs>
        <polygon id="path-1" points="3.20785597e-05 0.0736887472 11.7236229 0.0736887472 11.7236229 21.1201363 3.20785597e-05 21.1201363"></polygon>
        <polygon id="path-3" points="0.112724059 0.0182452051 4.7044491 0.0182452051 4.7044491 6.27480599 0.112724059 6.27480599"></polygon>
    </defs>
    <g id="Symbols" stroke="none" stroke-width="1" fill="none" fill-rule="evenodd">
        <g id="Patterns-/-GNB-/-Regular">
            <g id="Group-44-Copy">
                <g id="Group-67">
                    <rect id="Rectangle-27" fill="#FFFFFF" x="0" y="0" width="132" height="64"></rect>
                    <g id="Group-Copy-8" transform="translate(17.000000, 19.000000)">
                        <g id="Group-3" transform="translate(0.000000, 0.087204)">
                            <mask id="mask-2" fill="white">
                                <use xlink:href="#path-1"></use>
                            </mask>
                            <g id="Clip-2"></g>
                            <path d="M8.46684714,0.0736404795 L11.7236229,0.0736404795 C10.6998357,4.22611401 9.34900753,9.25287718 8.24951489,13.5762185 C7.48283732,16.5921477 6.93621866,19.8276951 4.41420229,20.8355255 C3.06674239,21.3738716 0.988853682,21.1310849 3.20785597e-05,20.2545428 C0.380964975,19.3783224 0.964313584,18.7054702 1.37491915,17.858854 C4.02380622,18.9933068 4.33095843,15.8695796 4.84870638,13.8663076 C5.99936432,9.41376964 7.52421866,3.93200259 8.46684714,0.0736404795" id="Fill-1" fill="#D52741" mask="url(#mask-2)"></path>
                        </g>
                        <path d="M87.058292,1.03191598 C86.5835293,2.99946989 86.0813394,4.93983297 85.5384098,6.83965115 C86.8688681,6.07814713 88.6952609,5.95313369 89.663873,6.98477615 C91.1587339,8.57761152 89.7971594,11.6007809 89.3020268,13.5908597 C89.1215849,14.3150367 88.4673427,16.8294641 88.4673427,16.8294641 L85.3890841,16.8294641 C85.3890841,16.8294641 86.0829434,14.3364354 86.4067764,13.0826004 C86.5771136,12.4247112 86.7557912,11.650014 86.9862756,10.7594742 C87.226544,9.82822862 87.4400268,8.8852379 86.768783,8.72691972 C86.0510252,8.55749996 84.959873,9.64368496 84.6698828,10.251054 C84.4626553,10.6870726 84.3721938,11.3250112 84.2360203,11.8485553 C83.8427372,13.3607835 83.3732674,15.2216657 83.0059679,16.822063 L79.8940268,16.822063 C81.2745277,11.7219329 82.5759548,6.35986983 83.9465113,1.24960348 C83.9436242,1.12571628 84.0004033,1.06168108 84.0915064,1.03191598 L87.058292,1.03191598 Z" id="Fill-4" fill="#D52741"></path>
                        <path d="M80.7624095,1.75805583 C80.4486812,3.28219012 80.0071198,4.6784149 79.6767106,6.18597726 C80.1599741,6.35507524 80.9548809,6.21091559 81.5587597,6.25853976 C81.3937155,7.03693749 81.1186419,7.70431942 80.9794209,8.50910351 L79.0980134,8.50910351 C78.3059938,11.1509577 77.6394013,14.1007601 76.9270969,16.8219343 L73.8873326,16.8219343 C74.5839185,14.1329386 75.2882033,11.2692137 75.9862327,8.5818269 C75.6713817,8.41369428 75.0460101,8.55640589 74.6111853,8.50910351 C74.8055813,7.76047088 75.0153751,7.02712305 75.1902033,6.25853976 L76.5652507,6.25853976 C76.9805077,4.78830445 77.4033031,3.32418305 77.7231264,1.75805583 L80.7624095,1.75805583 Z" id="Fill-6" fill="#D52741"></path>
                        <path d="M94.7294144,1.97575942 C95.7961869,1.75807192 97.143326,2.15692433 96.9725077,3.3549296 C96.7376926,5.00504268 93.3543669,4.97720829 93.3543669,3.28220621 C93.3543669,2.46567697 93.9847106,2.12764191 94.7294144,1.97575942" id="Fill-8" fill="#D52741"></path>
                        <path d="M64.0455342,6.62136835 C63.8966897,7.58543598 63.5791119,8.38040563 63.3941791,9.30746799 C62.6408141,9.03121563 61.7973083,8.19119609 60.5715866,8.3639946 C60.1827944,8.41869803 59.7221463,8.7351735 59.7035408,9.08994138 C59.6740285,9.65145607 60.5539434,9.94910712 61.0059303,10.2511023 C62.0922707,10.9778535 63.0308894,11.9715254 62.815161,13.7358721 C62.6095375,15.4173592 61.0538877,16.8747231 59.2695178,17.0750342 C57.9284736,17.2253078 56.5975342,16.779153 55.2888894,16.2765249 C55.5419892,15.4173592 55.7147322,14.4774254 56.0125817,13.6634705 C56.0892494,13.4554365 56.4241496,13.7762561 56.6639368,13.8808362 C57.346729,14.1794526 59.8276848,14.9128004 59.9930498,13.5907471 C60.1465457,12.3621723 57.9772331,12.0563157 57.3154524,11.1224958 C57.0700514,10.7767379 56.9093378,10.2881075 56.8812691,9.88828977 C56.6405195,6.49056278 61.0206864,4.61037348 64.0455342,6.62136835" id="Fill-10" fill="#D52741"></path>
                        <path d="M39.36822,9.38025574 C38.9364426,9.94177043 38.3718599,11.26495 38.2823607,12.283882 C38.1979941,13.2479496 38.3538959,14.122561 38.8613787,14.2441957 C39.1635588,14.3162756 39.777382,13.9603814 39.947238,13.8084989 C40.4303411,13.3755373 41.176328,11.9461687 41.3944622,11.1223993 C41.718616,9.89495072 41.5708943,8.44949285 40.6706095,8.50918395 C40.1591169,8.54313226 39.616508,9.05654011 39.36822,9.38025574 M42.4075031,7.05712949 C42.4366946,6.72359942 42.5794442,6.50430299 42.6245146,6.18589681 L45.5917813,6.18589681 C45.3458992,7.53787616 44.9139614,8.86716968 44.5784196,10.178765 C44.2399908,11.5024273 43.844783,12.7873145 43.710053,14.0989098 C43.8511987,14.4520688 44.4400007,14.2795921 44.7957519,14.2441957 C44.6616635,14.908038 44.4130547,15.4568422 44.2889106,16.1311425 C43.3159679,17.0345537 41.0444851,17.2293945 40.3087633,15.9863393 C39.4655784,16.3649193 39.001562,16.932387 37.7035031,16.7846877 C35.9010088,16.5795498 35.1630416,14.706118 35.3155751,12.5744538 C35.4488615,10.7037571 36.3725637,8.61472941 37.7035031,7.34737949 C39.1010056,6.01695973 41.242089,5.53138628 42.4075031,7.05712949" id="Fill-12" fill="#D52741"></path>
                        <path d="M66.8679021,12.4293609 C66.820907,13.2093676 66.9367106,14.1193754 67.446439,14.2442279 C68.0815944,14.3990065 68.8003146,13.5593087 69.1113162,13.0827452 C69.8460756,11.9548891 70.6101869,9.79281619 69.6901738,8.50921613 C68.1292311,8.17198553 66.9557974,10.9687792 66.8679021,12.4293609 M70.9930445,7.05700078 C71.0220756,6.7236316 71.1648252,6.50433517 71.2098956,6.18592899 L74.1768416,6.18592899 C73.6542818,8.95279665 72.6948121,11.2813932 72.295434,14.1715045 C72.5384291,14.4068902 73.021853,14.2908867 73.3808121,14.2442279 C73.2614799,14.9230332 72.9933031,15.4523694 72.8742917,16.1311747 C71.9013489,17.0345859 69.6298661,17.2294266 68.8941444,15.9862106 C67.7341836,17.0247714 65.4728056,17.0485835 64.5521509,15.7682013 C63.9910969,14.9888382 63.8130609,13.8019345 63.9006354,12.5743251 C64.1231002,9.45655094 66.652655,5.66463742 69.5451787,6.11336649 C70.1886746,6.21311982 70.4870052,6.63256646 70.9930445,7.05700078" id="Fill-14" fill="#D52741"></path>
                        <path d="M15.9932471,9.45252863 C15.9019836,8.31453625 14.6449853,8.50068883 14.0393421,9.01699274 C13.402743,9.56000479 12.8627005,10.5789368 12.7364714,11.2677174 C14.3363895,11.4862093 16.1064845,10.8656471 15.9932471,9.45252863 M12.5194599,13.2278702 C12.5977316,15.0636532 14.7243797,14.4376206 15.7037381,13.7358077 C15.8293257,13.645708 16.1287791,13.2021274 16.2102586,13.4453968 C15.8832177,14.3515432 15.6958789,15.3973442 15.4143895,16.3488622 C14.5736105,16.6793353 14.1431162,16.9837438 12.9534828,16.8572824 C10.7365336,16.6215749 9.55235352,14.8717085 9.55235352,12.6467267 C9.55235352,9.64817386 11.8802946,6.49210734 14.6906972,6.18592899 C16.8616137,5.94989975 18.8710147,7.48095241 18.236982,9.96094881 C17.805365,11.6464582 15.9428838,13.1006043 14.3285303,13.3001109 C13.7240098,13.3749259 13.0582193,13.2634275 12.5194599,13.2278702" id="Fill-16" fill="#D52741"></path>
                        <path d="M21.5654052,11.2677656 C23.5488226,11.792436 25.7643283,9.9946236 24.2434838,8.5818269 C22.6132514,8.47676412 21.7881908,10.300802 21.5654052,11.2677656 M21.3482334,13.2279185 C21.356253,13.8975529 21.7416769,14.1881247 22.1442628,14.4616419 C23.5234805,14.6107892 24.2946491,13.7636904 24.9666949,13.4454451 C24.7405411,14.4040424 24.4694773,15.3179116 24.2434838,16.2765089 C23.293798,16.7876642 22.8613791,16.9683464 21.7827375,16.8573306 C19.2788455,16.6002245 18.2213758,14.6321879 18.3814478,12.211239 C18.5663807,9.41235378 20.7352121,6.48266296 23.4471336,6.18597726 C25.611474,5.94962623 27.36569,7.29549167 27.1377718,9.5251394 C26.8970223,11.8828575 24.2874314,13.6869447 21.3482334,13.2279185" id="Fill-18" fill="#D52741"></path>
                        <path d="M30.5390134,6.18597726 C30.7494488,8.00744081 30.8375044,9.95182621 30.90102,11.920989 C31.0865944,11.9671652 31.2670363,11.5755529 31.4075404,11.3401673 C32.3628399,9.7428269 33.4034684,7.82080556 34.3746468,6.18597726 L37.269416,6.18597726 C35.3062082,9.73413871 33.2427548,13.3632291 31.1902082,16.8219343 L28.2957597,16.8219343 C28.0970331,13.3431175 27.8591705,9.72126731 27.7167417,6.18597726 L30.5390134,6.18597726 Z" id="Fill-20" fill="#D52741"></path>
                        <path d="M95.8875787,6.18597726 C95.0594707,9.73542585 94.0810746,13.3157658 93.2098209,16.8219343 L90.170217,16.8219343 C91.0603971,13.3106172 91.922348,9.5891746 92.9201516,6.18597726 L95.8875787,6.18597726 Z" id="Fill-22" fill="#D52741"></path>
                        <path d="M50.7297882,6.25857194 C51.029402,6.24827482 50.6606589,6.61897105 50.7297882,6.83955461 C51.3683119,6.69330337 51.7255067,6.34094888 52.3216867,6.25857194 C54.4215493,5.96880461 55.8052579,7.19448338 55.5784625,9.45260908 C55.5221646,10.0129975 55.2421188,10.625676 55.0719421,11.2677978 C54.9162007,11.8539291 54.7933398,12.4999123 54.6375984,13.0826648 C54.3049437,14.3292596 53.697055,16.8219665 53.697055,16.8219665 L50.4090026,16.8219665 C50.4090026,16.8219665 51.496947,13.4556135 52.0326589,11.4850026 C52.3435002,10.3421835 53.0700795,8.74049904 51.3813038,8.94467158 C49.7412874,9.14305198 49.5265214,11.76576 49.0653921,13.4454773 C48.7446065,14.6146828 48.3721745,15.880102 48.124528,16.8219665 L45.0849241,16.8219665 C45.964839,13.3481373 46.9389044,9.78806986 47.7628422,6.25857194 L50.7297882,6.25857194 Z" id="Fill-24" fill="#D52741"></path>
                        <path d="M96.9846334,15.3182012 C96.9846334,15.1444373 96.859527,15.0683352 96.676198,15.0683352 C96.5918314,15.0683352 96.5337692,15.0757362 96.5040966,15.0849071 L96.5040966,15.574342 L96.6818118,15.574342 C96.8673863,15.574342 96.9846334,15.4721753 96.9846334,15.3182012 M97.1046072,15.9202608 C97.148234,16.1091485 97.1801522,16.2389887 97.2064566,16.2911179 L97.0269771,16.2911179 C97.0042013,16.2528255 96.9743682,16.136822 96.9389214,15.9690112 C96.8993044,15.7826977 96.8260049,15.7125486 96.667216,15.7069174 L96.5040966,15.7069174 L96.5040966,16.2911179 L96.3302308,16.2911179 L96.3302308,14.9621462 C96.4182864,14.9442871 96.5462799,14.9323811 96.6636874,14.9323811 C96.8491015,14.9323811 96.971,14.9677774 97.054725,15.0442013 C97.1206465,15.1021226 97.1609051,15.194314 97.1609051,15.3003421 C97.1609051,15.4761976 97.046545,15.5944535 96.9074845,15.6422386 L96.9074845,15.6485134 C97.0086923,15.6845533 97.0706039,15.7804452 97.1046072,15.9202608 M97.5817758,15.1048578 C97.492437,14.9433217 97.367491,14.8194345 97.2069378,14.7320699 C97.046545,14.6455098 96.8823028,14.6023906 96.7148527,14.6023906 C96.5456383,14.6023906 96.3813961,14.6455098 96.2213241,14.7320699 C96.0617332,14.8194345 95.937108,14.9433217 95.8461653,15.1048578 C95.7560245,15.2663938 95.7111146,15.4338829 95.7111146,15.6089339 C95.7111146,15.7826977 95.7550622,15.9488996 95.8439198,16.1081832 C95.9332586,16.2673058 96.0566007,16.3918366 96.2157103,16.4806492 C96.3757823,16.5691401 96.5419493,16.6138682 96.7148527,16.6138682 C96.887275,16.6138682 97.0540835,16.5691401 97.2128723,16.4806492 C97.3729444,16.3918366 97.4959656,16.2673058 97.5848232,16.1081832 C97.6722373,15.9488996 97.7168265,15.7826977 97.7168265,15.6089339 C97.7168265,15.4338829 97.6719165,15.2663938 97.5817758,15.1048578 M97.7577267,16.2079365 C97.6515466,16.3998812 97.5033437,16.5491894 97.3132782,16.6550566 C97.1217692,16.7610848 96.9228822,16.8136966 96.7148527,16.8136966 C96.5063421,16.8136966 96.3072946,16.7610848 96.1161064,16.6550566 C95.9253993,16.5491894 95.7775172,16.3998812 95.6713372,16.2079365 C95.5646759,16.0163136 95.5119067,15.8169678 95.5119067,15.6089339 C95.5119067,15.3991301 95.5656383,15.1975318 95.6734223,15.0036564 C95.7813666,14.8110681 95.9311735,14.6620817 96.1234845,14.5579843 C96.3161162,14.4546913 96.5125974,14.4022404 96.7148527,14.4022404 C96.9166268,14.4022404 97.1137496,14.4546913 97.3057398,14.5579843 C97.4980507,14.6620817 97.6478576,14.8110681 97.7546792,15.0036564 C97.8623028,15.1975318 97.9161948,15.3991301 97.9161948,15.6089339 C97.9161948,15.8169678 97.862784,16.0163136 97.7577267,16.2079365" id="Fill-26" fill="#FFFFFF"></path>
                        <path d="M51.6919205,25.7250634 C51.8612953,25.7337516 52.0564933,25.7379348 52.277675,25.7379348 C52.5505031,25.7379348 52.7752134,25.7041474 52.9516455,25.6364117 C53.1283984,25.5688369 53.2655342,25.4507418 53.3632134,25.2821265 C53.4607322,25.1136721 53.5094917,24.8826305 53.5094917,24.5888409 C53.5094917,24.3812896 53.4838288,24.2035034 53.4321823,24.0549997 C53.3803755,23.9066568 53.3027453,23.7871137 53.199292,23.6965313 C53.095999,23.6056271 52.9724966,23.5395002 52.8291054,23.4976682 C52.6853935,23.4558362 52.5059139,23.435081 52.2905064,23.435081 L51.6919205,23.435081 L51.6919205,25.7250634 Z M52.2646831,22.9295569 C52.5517863,22.9295569 52.7774589,22.8877249 52.9408992,22.8042217 C53.1048206,22.7207185 53.2288043,22.601819 53.3134917,22.447684 C53.3983394,22.293549 53.4405227,22.081171 53.4405227,21.810389 C53.4405227,21.5713028 53.3946504,21.3819323 53.3027453,21.2422777 C53.2110007,21.1024621 53.0802805,21.002387 52.9109057,20.9418915 C52.7413705,20.8813959 52.530454,20.8511481 52.277675,20.8511481 C52.0765424,20.8511481 51.8815047,20.8583883 51.6919205,20.8727077 L51.6919205,22.9295569 L52.2646831,22.9295569 Z M53.6044442,23.1541628 C54.0063885,23.2809461 54.3128992,23.4645244 54.5239761,23.7050586 C54.735053,23.9455928 54.8405915,24.2342339 54.8405915,24.5714645 C54.8405915,24.859462 54.7924736,25.1101325 54.696238,25.3231541 C54.6000023,25.5363366 54.4535637,25.7113876 54.2569221,25.8483071 C54.0602805,25.9850657 53.8289941,26.0851408 53.5633836,26.1485324 C53.2977732,26.2117631 52.9596651,26.2436198 52.5490596,26.2436198 L49.8956815,26.2436198 L49.8956815,25.9583575 C50.0018615,25.9295578 50.085747,25.8986664 50.1476586,25.8655226 C50.2094098,25.8323787 50.2552822,25.7863635 50.285436,25.7273159 C50.3155899,25.6681075 50.3349974,25.5932925 50.3436586,25.5025492 C50.3521594,25.4118058 50.35649,25.2974113 50.35649,25.1590438 L50.35649,21.4345442 C50.35649,21.2990727 50.352801,21.1853218 50.3457437,21.0931304 C50.338526,21.000939 50.3199205,20.926124 50.2897666,20.8683636 C50.2596128,20.810925 50.21358,20.7641053 50.1518288,20.7279045 C50.090238,20.6920255 50.0047486,20.6596861 49.8956815,20.6307254 L49.8956815,20.345624 L52.7169908,20.345624 C53.0385784,20.345624 53.3013018,20.3615524 53.5053214,20.3930873 C53.7751021,20.4363674 54.0091152,20.5113432 54.2075211,20.617854 C54.3853967,20.7129415 54.5246177,20.8482521 54.625184,21.0239466 C54.7257502,21.1998021 54.7761136,21.4084796 54.7761136,21.6504619 C54.7761136,22.3015937 54.3853967,22.7897414 53.6044442,23.1152268 L53.6044442,23.1541628 Z" id="Fill-28" fill="#43566A" opacity="0.699999988"></path>
                        <path d="M59.392491,23.6466707 C59.3809427,23.2059863 59.3235221,22.8776048 59.2202291,22.6615262 C59.1167758,22.4456085 58.9501277,22.3374888 58.7206056,22.3374888 C58.4994239,22.3374888 58.323473,22.4499526 58.1929133,22.6745585 C58.0620327,22.8991643 57.9839214,23.2233627 57.9580982,23.6466707 L59.392491,23.6466707 Z M60.5553388,25.4571936 C60.2624615,25.7683596 59.9724714,25.9887823 59.6853682,26.1181398 C59.3981047,26.24798 59.0680164,26.3126588 58.6944615,26.3126588 C58.0256236,26.3126588 57.522311,26.1290805 57.1848445,25.761763 C56.8473781,25.3944455 56.6786448,24.8495028 56.6786448,24.1262911 C56.6786448,23.659703 56.7655777,23.2571501 56.9392831,22.9187932 C57.1129885,22.5802755 57.3593519,22.3238129 57.6780524,22.1495664 C57.9969133,21.9753198 58.3670998,21.8881161 58.7894141,21.8881161 C59.0506939,21.8881161 59.2797349,21.9183639 59.4763764,21.9788595 C59.673018,22.039355 59.8419116,22.1236627 59.9825761,22.2316215 C60.1232406,22.3397413 60.2395254,22.4700641 60.3314304,22.6227511 C60.4404975,22.8042378 60.5224583,23.0116282 60.5769918,23.2449222 C60.6344124,23.4840084 60.6645663,23.773454 60.6674534,24.1132589 L57.9364452,24.1132589 C57.9393322,24.6348722 58.0320393,25.0186007 58.2142455,25.2649271 C58.3966121,25.5112535 58.6744124,25.6343362 59.0479673,25.6343362 C59.2661015,25.6343362 59.462743,25.5933086 59.637892,25.5112535 C59.8130409,25.4290374 60.0026252,25.2843951 60.2064845,25.0770047 L60.5553388,25.4571936 Z" id="Fill-30" fill="#43566A" opacity="0.699999988"></path>
                        <path d="M65.3905401,25.9583897 C65.5255908,25.9180057 65.619581,25.8734385 65.672671,25.8243663 C65.725761,25.775455 65.7637741,25.7070757 65.7868707,25.6192284 C65.8098069,25.5313811 65.8213552,25.3780506 65.8213552,25.1590759 L65.8213552,22.497432 L65.295748,22.497432 L65.295748,22.1992982 C65.4307987,22.1791867 65.5247889,22.1568226 65.5778789,22.132367 C65.6309689,22.1077504 65.6747561,22.0746066 65.7092406,22.0329354 C65.743725,21.9911034 65.7709918,21.9372044 65.7912013,21.8709167 C65.8112504,21.804629 65.8256858,21.7196778 65.8341866,21.6159022 C65.8802193,21.0975067 66.0717283,20.704929 66.4093552,20.4384911 C66.7466612,20.1720532 67.2241506,20.0388343 67.8415025,20.0388343 C68.088347,20.0388343 68.3080851,20.0589458 68.5005565,20.0993298 L68.5005565,20.9806987 L67.9146416,20.9806987 C67.8658822,20.8223805 67.8119902,20.7057335 67.753126,20.6307576 C67.6942619,20.5559426 67.6175941,20.5184547 67.5226416,20.5184547 C67.3991391,20.5184547 67.3045074,20.5594823 67.2384255,20.6415374 C67.1723437,20.7237535 67.1271129,20.8402396 67.1027332,20.9916394 C67.0781931,21.1427174 67.0661637,21.3552564 67.0661637,21.6289345 L67.0661637,21.957316 L67.8974795,21.957316 L67.8974795,22.497432 L67.0661637,22.497432 L67.0661637,25.1590759 C67.0661637,25.3749936 67.0777119,25.5276806 67.1006481,25.6169759 C67.1235843,25.7064321 67.1644845,25.776903 67.2233486,25.8287104 C67.2822128,25.8806786 67.3863077,25.9237978 67.5356334,25.9583897 L67.5356334,26.2434911 L65.3905401,26.2434911 L65.3905401,25.9583897 Z" id="Fill-32" fill="#43566A" opacity="0.699999988"></path>
                        <path d="M70.6661159,24.0356926 C70.6661159,24.6462795 70.7344432,25.1036968 70.8707771,25.4074617 C71.007111,25.7113876 71.2132157,25.8632701 71.4889309,25.8632701 C71.6411437,25.8632701 71.7681748,25.8243341 71.8701846,25.7467839 C71.972034,25.6687511 72.0538344,25.556609 72.1155856,25.4095533 C72.1773368,25.2628194 72.2211241,25.0863204 72.2469473,24.880378 C72.2729309,24.6744357 72.2857624,24.4432332 72.2857624,24.1867706 C72.2857624,23.5674955 72.2175954,23.104447 72.0811011,22.797786 C71.9447673,22.4908032 71.7431535,22.3374727 71.4759391,22.3374727 C71.2807411,22.3374727 71.1241977,22.3995772 71.0064694,22.5233035 C70.8887411,22.6471907 70.8026101,22.8330215 70.7480766,23.080635 C70.693543,23.3284093 70.6661159,23.6466546 70.6661159,24.0356926 M71.4242926,26.3126427 C71.0022992,26.3126427 70.6382075,26.2384713 70.3323385,26.0902893 C70.0266298,25.9419465 69.7873237,25.7041474 69.6150619,25.3772139 C69.4428,25.0504414 69.3566691,24.6348561 69.3566691,24.1306192 C69.3566691,23.7446381 69.4099195,23.4106254 69.5160995,23.1282591 C69.6222795,22.8458928 69.7701617,22.6125988 69.959746,22.428216 C70.1491699,22.2439942 70.3754841,22.1078791 70.6382075,22.0200318 C70.9009309,21.9320237 71.1859489,21.8881 71.4931011,21.8881 C72.1880831,21.8881 72.7122468,22.0718392 73.0654318,22.4389958 C73.4186167,22.8063133 73.5952092,23.3443377 73.5952092,24.0529081 C73.5952092,24.554249 73.5076347,24.9740174 73.3324858,25.3125352 C73.1573368,25.650892 72.9076052,25.9023669 72.5829702,26.0663164 C72.2584956,26.2307484 71.8722697,26.3126427 71.4242926,26.3126427" id="Fill-34" fill="#43566A" opacity="0.699999988"></path>
                        <path d="M75.3214206,21.9572999 L76.9970442,21.9572999 L76.9970442,24.3552411 C76.9970442,24.6318153 77.005545,24.8480547 77.022707,25.0036377 C77.0400295,25.1590599 77.0730704,25.2821426 77.1219902,25.3728859 C77.1707496,25.4636293 77.2302553,25.529917 77.3006678,25.571749 C77.3709198,25.6135811 77.4607398,25.6343362 77.5699673,25.6343362 C77.6761473,25.6343362 77.7881015,25.6011923 77.9058298,25.5349046 C78.0237185,25.4686169 78.1234828,25.375782 78.2051227,25.2562389 C78.2870835,25.1368567 78.3279836,25.009269 78.3279836,24.8737975 L78.3279836,23.2059863 C78.3279836,22.9958607 78.3238134,22.8394732 78.3149918,22.7373065 C78.306491,22.6349789 78.2899705,22.5550154 78.2654304,22.4974159 C78.2410507,22.4398164 78.203198,22.3915486 78.1515516,22.3526127 C78.0997447,22.3138376 78.0150573,22.2769932 77.897329,22.2424013 L77.897329,21.9572999 L79.5771227,21.9572999 L79.5771227,24.9819173 C79.5771227,25.200731 79.5808118,25.3606581 79.5880295,25.4613768 C79.5950867,25.5622564 79.6116072,25.6430244 79.6374304,25.703359 C79.6632537,25.7640155 79.7049558,25.8137313 79.762216,25.8525064 C79.8197971,25.8914423 79.9160327,25.9252298 80.0509231,25.9541904 L80.0509231,26.2436359 L78.8794141,26.2825719 L78.3582979,26.2825719 L78.3969525,25.6604008 L78.3453061,25.6473685 C78.0780917,25.8951429 77.839748,26.0679414 77.630275,26.165764 C77.4206416,26.2637475 77.2094043,26.3126588 76.9970442,26.3126588 C76.6926187,26.3126588 76.4491424,26.2558638 76.2669362,26.1421128 C76.0845696,26.0283618 75.9530475,25.8611946 75.8728511,25.6409328 C75.7924943,25.4203492 75.7522357,25.1360522 75.7522357,24.7873983 L75.7522357,23.2059863 C75.7522357,23.044772 75.7499902,22.9208848 75.74582,22.8344856 C75.741329,22.7480863 75.7349133,22.6809942 75.726252,22.6335309 C75.7177512,22.5859067 75.7055614,22.5427875 75.6896825,22.5038516 C75.6738036,22.4649156 75.652311,22.429841 75.6252046,22.3979843 C75.5977774,22.3662885 75.5604059,22.3374888 75.51309,22.3115851 C75.4656137,22.2856814 75.4017774,22.2626738 75.3214206,22.2424013 L75.3214206,21.9572999 Z" id="Fill-36" fill="#43566A" opacity="0.699999988"></path>
                        <path d="M86.4250291,26.2435716 L84.3359129,26.2435716 L84.3359129,25.9584701 C84.4679162,25.9266134 84.5598213,25.8799546 84.6114678,25.8178501 C84.6632746,25.7560674 84.6982403,25.6725642 84.7171666,25.5673406 C84.7357722,25.4622778 84.7449146,25.2729074 84.7449146,24.9992293 L84.7449146,23.8456303 C84.7449146,23.6409751 84.7407444,23.4731643 84.7320831,23.3421978 C84.7235823,23.2110705 84.7099489,23.1037552 84.691183,23.020252 C84.672417,22.9367488 84.6465938,22.8669215 84.6137133,22.8106091 C84.5806723,22.7544577 84.5439424,22.7084424 84.5036838,22.6724025 C84.4635856,22.6363626 84.4175529,22.6098153 84.3659064,22.592439 C84.3142599,22.5752235 84.2483385,22.5665353 84.1679817,22.5665353 C84.0587542,22.5665353 83.9453565,22.6003227 83.8276282,22.6680584 C83.7097394,22.7357941 83.6107771,22.8294336 83.5304203,22.9488158 C83.4499031,23.0685197 83.4098049,23.1959466 83.4098049,23.3312571 L83.4098049,24.9947243 C83.4098049,25.2684024 83.4183057,25.4585773 83.4354678,25.5650881 C83.4527902,25.6717598 83.4879162,25.7560674 83.5411666,25.8178501 C83.5942566,25.8799546 83.6884072,25.9266134 83.8232975,25.9584701 L83.8232975,26.2435716 L81.7428426,26.2435716 L81.7428426,25.9584701 C81.88062,25.9209822 81.9760537,25.87191 82.0293041,25.8114144 C82.0823941,25.7509189 82.1181617,25.6688637 82.1369277,25.5650881 C82.1555332,25.4614733 82.164836,25.2729074 82.164836,24.9992293 L82.164836,23.2232983 C82.164836,23.0101158 82.1613074,22.8524412 82.1540897,22.7501136 C82.146872,22.6479469 82.12971,22.5658917 82.1024432,22.5039481 C82.0751764,22.4420045 82.0334743,22.3916452 81.9774972,22.3525483 C81.9215201,22.3137732 81.8246429,22.2799858 81.6868655,22.251186 L81.6868655,21.9572355 L82.8668753,21.9228045 L83.4098049,21.9228045 L83.3451666,22.5449757 L83.3968131,22.5578471 C83.5748491,22.3995289 83.7313925,22.2748372 83.8662828,22.1842548 C84.0013336,22.0933505 84.1428,22.0214316 84.2905218,21.9681762 C84.4384039,21.9147599 84.5943057,21.8882127 84.7579064,21.8882127 C84.993363,21.8882127 85.1887214,21.9220001 85.3438213,21.9897358 C85.4989211,22.0573106 85.6245087,22.1560986 85.720584,22.285617 C85.8168196,22.4152964 85.8857885,22.5737754 85.9273303,22.7608934 C85.9690324,22.9483331 85.9898835,23.1656988 85.9898835,23.4134732 L85.9898835,24.9947243 C85.9898835,25.1215076 85.992129,25.240568 85.9962992,25.351262 C86.0006298,25.4622778 86.0115365,25.5507686 86.0286985,25.6168954 C86.0460209,25.683344 86.0695987,25.7374039 86.0997525,25.779075 C86.1299064,25.8209071 86.1722501,25.8561425 86.2267836,25.8849423 C86.2813172,25.913742 86.347399,25.9383586 86.4250291,25.9584701 L86.4250291,26.2435716 Z" id="Fill-38" fill="#43566A" opacity="0.699999988"></path>
                        <g id="Group-42" transform="translate(88.055646, 20.037869)">
                            <mask id="mask-4" fill="white">
                                <use xlink:href="#path-3"></use>
                            </mask>
                            <g id="Clip-41"></g>
                            <path d="M2.98567987,3.33665222 C2.98567987,2.98526308 2.9269761,2.72461729 2.8090874,2.55455396 C2.69135908,2.38465152 2.51043601,2.2997003 2.26647856,2.2997003 C2.08828216,2.2997003 1.93542782,2.3637355 1.80759476,2.4919668 C1.6797617,2.6200372 1.58368642,2.80522442 1.51904812,3.04720668 C1.45440982,3.28918894 1.42217087,3.57573841 1.42217087,3.90701599 C1.42217087,4.4744837 1.48392209,4.89795266 1.60726416,5.17726197 C1.730927,5.45673218 1.92323797,5.59638683 2.18467823,5.59638683 C2.30802029,5.59638683 2.43072079,5.56565637 2.5529401,5.50355188 C2.67499902,5.44160829 2.77749002,5.34652084 2.86089427,5.21828955 C2.94413813,5.09021915 2.98567987,4.94251987 2.98567987,4.7755135 L2.98567987,3.33665222 Z M4.23064877,4.9439679 C4.23064877,5.16294254 4.23417741,5.32286965 4.24139509,5.42358833 C4.24845237,5.5244679 4.26513322,5.60523592 4.29095646,5.66557059 C4.31677971,5.72622705 4.35848183,5.77578193 4.41574206,5.81455701 C4.47316268,5.85365388 4.56939836,5.8874413 4.7044491,5.91624105 L4.7044491,6.20568659 L3.53277971,6.24462256 L3.0116635,6.24462256 L3.05031817,5.62245141 L2.98567987,5.61810732 C2.77893355,5.82823287 2.56144092,5.99041247 2.33320196,6.10416344 C2.10496301,6.21791441 1.88602684,6.27487034 1.67623306,6.27487034 C1.15367332,6.27487034 0.762475286,6.09483168 0.502638953,5.73459346 C0.242481833,5.37467702 0.112724059,4.833113 0.112724059,4.11006228 C0.112724059,3.62046652 0.191637316,3.20777736 0.34946383,2.87215568 C0.507611129,2.53653401 0.742265794,2.28232392 1.053909,2.10952542 C1.36539182,1.93672691 1.74087136,1.85032766 2.18034763,1.85032766 C2.30673715,1.85032766 2.43072079,1.85821139 2.5529401,1.87397885 C2.67499902,1.88990721 2.81919214,1.92095945 2.98567987,1.9669747 L2.98567987,1.57375352 C2.98567987,1.26548356 2.98150966,1.04731339 2.97284845,0.919242988 C2.96418723,0.791011696 2.94622324,0.693028187 2.91895646,0.625292461 C2.89168969,0.557717627 2.85078953,0.505105793 2.79609558,0.467617849 C2.74172242,0.430290798 2.64259967,0.396986059 2.49904812,0.368186308 L2.49904812,0.0787407705 L3.69204975,0.0182452051 L4.23064877,0.0182452051 L4.23064877,4.9439679 Z" id="Fill-40" fill="#43566A" opacity="0.699999988" mask="url(#mask-4)"></path>
                        </g>
                        <path d="M45.2101106,23.851165 L9.79890933,23.851165" id="Stroke-43" stroke="#8B7F7F" stroke-width="0.730079999" opacity="0.699999988"></path>
                    </g>
                </g>
            </g>
        </g>
    </g>
</svg>