<svg xmlns="http://www.w3.org/2000/svg" data-name="Layer 6" viewBox="0 0 3000 3000"><path fill="#e1f2ff" d="M2586.71,1847.57c-33,100.94-67.25,201.37-107.64,292.3-63,141.88-140.93,260.7-252.08,322.45l-2.57,1.4c-182.35,99.43-451.35,47.63-732.06,61.07-278.12,13.41-566.21,90-773.59,2.13-1.65-.7-3.31-1.41-5-2.13-81.61-36.2-150.66-98.57-207.34-176.69-88.74-122.35-147.17-283.35-176-443.1-49-263.46-51-536,33.48-774.11,86.13-238.13,258.69-440.16,451.21-553.3s502.22-166.65,758-138.85c233.17,25.35,920.08,127.87,1094.68,692.78C2751.69,1436.65,2672.84,1589.19,2586.71,1847.57Z"/><path fill="#4984fc" d="M594.61,1334.77a2,2,0,0,0-2.51,1.32c-1.18,3.81-2.34,7.69-3.45,11.53a2,2,0,0,0,1.36,2.48,2.23,2.23,0,0,0,.56.08,2,2,0,0,0,1.92-1.45c1.1-3.82,2.26-7.67,3.43-11.46A2,2,0,0,0,594.61,1334.77Z"/><path fill="#4984fc" d="M605,1304.52a2,2,0,0,0-2.57,1.18c-1.39,3.74-2.76,7.55-4.08,11.33a2,2,0,0,0,1.23,2.54,1.91,1.91,0,0,0,.66.11,2,2,0,0,0,1.89-1.34c1.3-3.75,2.67-7.53,4.05-11.25A2,2,0,0,0,605,1304.52Z"/><path fill="#4984fc" d="M623.84,1260.38a2.08,2.08,0,0,0,.87.2,2,2,0,0,0,1.8-1.13c1.73-3.57,3.52-7.18,5.32-10.71a2,2,0,0,0-.86-2.69,2,2,0,0,0-2.7.87c-1.82,3.56-3.62,7.19-5.36,10.78A2,2,0,0,0,623.84,1260.38Z"/><path fill="#4984fc" d="M613.3,1774.6a2,2,0,1,0-3.66,1.61c1.61,3.66,3.27,7.34,5,11a2,2,0,0,0,1.82,1.16,1.94,1.94,0,0,0,.84-.19,2,2,0,0,0,1-2.66C616.55,1781.89,614.9,1778.23,613.3,1774.6Z"/><path fill="#4984fc" d="M601.28,1745.1a2,2,0,1,0-3.75,1.41c1.41,3.75,2.88,7.52,4.35,11.21a2,2,0,0,0,1.86,1.26,1.91,1.91,0,0,0,.74-.14,2,2,0,0,0,1.12-2.6C604.13,1752.57,602.68,1748.82,601.28,1745.1Z"/><path fill="#4984fc" d="M591,1715.4l-.13-.4a2,2,0,1,0-3.81,1.2l.13.42c1.16,3.67,2.38,7.37,3.61,11a2,2,0,0,0,1.89,1.36,2.1,2.1,0,0,0,.65-.1,2,2,0,0,0,1.25-2.54C593.35,1722.73,592.15,1719.05,591,1715.4Z"/><path fill="#4984fc" d="M626.92,1803.39a2,2,0,1,0-3.57,1.81c1.8,3.54,3.66,7.14,5.55,10.68a2,2,0,0,0,1.77,1.06,2,2,0,0,0,1.76-2.94C630.56,1810.48,628.7,1806.91,626.92,1803.39Z"/><path fill="#4984fc" d="M639.5,1232.21a2,2,0,0,0,1.75-1c1.94-3.47,4-7,6-10.36a2,2,0,1,0-3.44-2c-2,3.42-4.06,6.94-6,10.43a2,2,0,0,0,.76,2.72A2,2,0,0,0,639.5,1232.21Z"/><path fill="#4984fc" d="M658.7,1858.6a2,2,0,1,0-3.36,2.17c2.16,3.33,4.39,6.71,6.63,10a2,2,0,0,0,3.32-2.23C663.06,1865.26,660.84,1861.91,658.7,1858.6Z"/><path fill="#4984fc" d="M676.65,1884.94a2,2,0,1,0-3.25,2.33c2.31,3.24,4.71,6.52,7.1,9.75a2,2,0,1,0,3.22-2.38C681.33,1891.42,679,1888.16,676.65,1884.94Z"/><path fill="#4984fc" d="M674.24,1178.53a2,2,0,0,0,1.61-.81c2.37-3.19,4.8-6.39,7.24-9.51a2,2,0,0,0-3.16-2.46c-2.45,3.15-4.91,6.37-7.29,9.58a2,2,0,0,0,.41,2.8A2,2,0,0,0,674.24,1178.53Z"/><path fill="#4984fc" d="M657.7,1203.9c2.15-3.33,4.38-6.67,6.61-10a2,2,0,1,0-3.3-2.26c-2.26,3.31-4.5,6.69-6.67,10a2,2,0,0,0,.6,2.76,2,2,0,0,0,1.08.33A2,2,0,0,0,657.7,1203.9Z"/><path fill="#4984fc" d="M642.08,1831.41a2,2,0,1,0-3.46,2c2,3.43,4,6.92,6.11,10.36a2,2,0,0,0,1.71,1,1.94,1.94,0,0,0,1-.29,2,2,0,0,0,.68-2.74C646.09,1838.29,644.05,1834.82,642.08,1831.41Z"/><path fill="#4984fc" d="M569.71,1601.58c-.35-3.94-.68-8-1-11.93a2,2,0,0,0-4,.29c.29,4,.62,8,1,12a2,2,0,0,0,2,1.82h.18A2,2,0,0,0,569.71,1601.58Z"/><path fill="#4984fc" d="M570.76,1444.07l.26,0a2,2,0,0,0,2-1.74c.53-3.93,1.09-7.92,1.69-11.85a2,2,0,0,0-4-.59c-.59,3.95-1.16,8-1.69,11.91A2,2,0,0,0,570.76,1444.07Z"/><path fill="#4984fc" d="M565.38,1507.84h.09a2,2,0,0,0,2-1.92c.16-4,.37-8,.6-12a2,2,0,0,0-1.88-2.11,2,2,0,0,0-2.11,1.87c-.24,4-.44,8-.61,12A2,2,0,0,0,565.38,1507.84Z"/><path fill="#4984fc" d="M567.35,1475.89h.18a2,2,0,0,0,2-1.83c.34-3.94.72-8,1.13-11.91a2,2,0,1,0-4-.41c-.42,4-.8,8-1.15,12A2,2,0,0,0,567.35,1475.89Z"/><path fill="#4984fc" d="M575.64,1412.44l.36,0a2,2,0,0,0,2-1.64c.71-3.91,1.47-7.87,2.25-11.75a2,2,0,0,0-3.92-.79c-.79,3.91-1.55,7.89-2.26,11.83A2,2,0,0,0,575.64,1412.44Z"/><path fill="#4984fc" d="M582,1381.09a2.31,2.31,0,0,0,.46.05,2,2,0,0,0,1.94-1.55c.91-3.86,1.86-7.78,2.83-11.62a2,2,0,1,0-3.87-1c-1,3.86-1.94,7.8-2.85,11.69A2,2,0,0,0,582,1381.09Z"/><path fill="#4984fc" d="M582.56,1684.26a2,2,0,0,0-3.9.9c.92,4,1.88,7.92,2.86,11.71a2,2,0,0,0,1.94,1.5,1.77,1.77,0,0,0,.5-.07,2,2,0,0,0,1.44-2.43C584.42,1692.11,583.47,1688.21,582.56,1684.26Z"/><path fill="#4984fc" d="M610.87,1289.62a1.9,1.9,0,0,0,.77.16,2,2,0,0,0,1.85-1.24c1.52-3.69,3.09-7.39,4.68-11a2,2,0,1,0-3.66-1.61c-1.6,3.64-3.19,7.37-4.72,11.08A2,2,0,0,0,610.87,1289.62Z"/><path fill="#4984fc" d="M564.82,1539.84h0a2,2,0,0,0,2-2v-1.14c0-3.6,0-7.24.08-10.82a2,2,0,0,0-2-2,2,2,0,0,0-2,2c0,3.6-.08,7.26-.08,10.88v1.15A2,2,0,0,0,564.82,1539.84Z"/><path fill="#4984fc" d="M573.3,1633.28c-.54-3.92-1-7.91-1.52-11.86a2,2,0,0,0-4,.47c.47,4,1,8,1.53,11.94a2,2,0,0,0,2,1.73l.27,0A2,2,0,0,0,573.3,1633.28Z"/><path fill="#4984fc" d="M576.33,1653a2,2,0,1,0-3.94.67c.67,4,1.39,8,2.14,11.85a2,2,0,0,0,2,1.63,1.69,1.69,0,0,0,.38,0,2,2,0,0,0,1.58-2.34C577.71,1660.89,577,1656.93,576.33,1653Z"/><path fill="#4984fc" d="M565.66,1571.83a2,2,0,0,0,1.9-2.09c-.17-4-.32-8-.44-12a2,2,0,0,0-2-1.94,2,2,0,0,0-2,2.05c.12,4,.27,8,.45,12a2,2,0,0,0,2,1.91Z"/><path fill="#4984fc" d="M695.82,1910.53a2,2,0,1,0-3.15,2.46c2.43,3.11,5,6.28,7.49,9.43a2,2,0,0,0,1.55.74,2,2,0,0,0,1.56-3.25C700.74,1916.77,698.24,1913.62,695.82,1910.53Z"/><path fill="#4984fc" d="M1123.56,2500.06a2,2,0,1,0-3.8,1.26q1.9,5.71,3.72,11.39a2,2,0,0,0,1.9,1.39,2.15,2.15,0,0,0,.61-.09,2,2,0,0,0,1.3-2.52Q1125.46,2505.79,1123.56,2500.06Z"/><path fill="#4984fc" d="M935.43,2167.67a2,2,0,1,0-3,2.62q3.9,4.52,7.78,9.1a2,2,0,0,0,1.53.7,2,2,0,0,0,1.29-.47,2,2,0,0,0,.24-2.82Q939.35,2172.19,935.43,2167.67Z"/><path fill="#4984fc" d="M1013.28,2269.4a2,2,0,0,0-3.33,2.21c2.2,3.31,4.41,6.68,6.57,10a2,2,0,0,0,1.68.91,2,2,0,0,0,1.08-.32,2,2,0,0,0,.59-2.76C1017.71,2276.1,1015.49,2272.72,1013.28,2269.4Z"/><path fill="#4984fc" d="M1030.56,2296.39a2,2,0,0,0-3.41,2.1c2.08,3.39,4.17,6.84,6.2,10.23a2,2,0,0,0,1.72,1,2,2,0,0,0,1-.28,2,2,0,0,0,.69-2.74C1034.75,2303.26,1032.65,2299.8,1030.56,2296.39Z"/><path fill="#4984fc" d="M956.06,2192.19a2,2,0,0,0-3.1,2.53q3.78,4.62,7.53,9.31a2,2,0,0,0,1.56.75,2,2,0,0,0,1.56-3.25Q959.85,2196.82,956.06,2192.19Z"/><path fill="#4984fc" d="M976,2217.3a2,2,0,1,0-3.17,2.43c2.41,3.14,4.84,6.35,7.23,9.54a2,2,0,0,0,3.21-2.4C980.83,2223.67,978.38,2220.45,976,2217.3Z"/><path fill="#4984fc" d="M1046.84,2324a2,2,0,1,0-3.48,2c2,3.45,3.91,7,5.82,10.45a2,2,0,0,0,1.75,1,2,2,0,0,0,1-.24,2,2,0,0,0,.8-2.72C1050.77,2331,1048.8,2327.47,1046.84,2324Z"/><path fill="#4984fc" d="M995.06,2243a2,2,0,0,0-3.25,2.33c2.34,3.27,4.67,6.55,6.91,9.77a2,2,0,0,0,1.65.86,2,2,0,0,0,1.14-.36,2,2,0,0,0,.49-2.78C999.75,2249.61,997.41,2246.31,995.06,2243Z"/><path fill="#4984fc" d="M1113,2469.76a2,2,0,0,0-3.76,1.37q2.06,5.65,4,11.29a2,2,0,0,0,1.89,1.34,1.92,1.92,0,0,0,.66-.12,2,2,0,0,0,1.22-2.55Q1115.1,2475.45,1113,2469.76Z"/><path fill="#4984fc" d="M1101.71,2439.77a2,2,0,0,0-3.73,1.46q2.2,5.61,4.33,11.18a2,2,0,0,0,1.87,1.29,1.94,1.94,0,0,0,.71-.13,2,2,0,0,0,1.16-2.59Q1103.92,2445.39,1101.71,2439.77Z"/><path fill="#4984fc" d="M1136.63,2542.17q-1.67-5.74-3.4-11.54a2,2,0,0,0-3.83,1.15q1.72,5.78,3.38,11.5a2,2,0,0,0,1.92,1.45,2.16,2.16,0,0,0,.56-.08A2,2,0,0,0,1136.63,2542.17Z"/><path fill="#4984fc" d="M1089.53,2410.11a2,2,0,0,0-3.68,1.58c1.57,3.64,3.14,7.35,4.66,11a2,2,0,0,0,1.85,1.23,2.07,2.07,0,0,0,.77-.15,2,2,0,0,0,1.08-2.61C1092.67,2417.49,1091.1,2413.76,1089.53,2410.11Z"/><path fill="#4984fc" d="M1076.33,2380.9a2,2,0,1,0-3.61,1.71c1.69,3.58,3.39,7.23,5,10.85a2,2,0,0,0,1.82,1.17,2,2,0,0,0,.83-.18,2,2,0,0,0,1-2.65C1079.74,2388.17,1078,2384.5,1076.33,2380.9Z"/><path fill="#4984fc" d="M1062.1,2352.18a2,2,0,1,0-3.55,1.84c1.83,3.53,3.66,7.12,5.44,10.66a2,2,0,0,0,1.79,1.11,1.92,1.92,0,0,0,.89-.22,2,2,0,0,0,.89-2.68C1065.78,2359.33,1063.94,2355.73,1062.1,2352.18Z"/><path fill="#4984fc" d="M758.43,1982.84a2,2,0,1,0-2.92,2.74q4.1,4.35,8.22,8.7a2,2,0,0,0,1.45.62,2,2,0,0,0,1.45-3.38Q762.52,1987.19,758.43,1982.84Z"/><path fill="#4984fc" d="M780.47,2005.93a2,2,0,1,0-2.87,2.78q4.17,4.3,8.37,8.6a2,2,0,1,0,2.86-2.8Q784.63,2010.22,780.47,2005.93Z"/><path fill="#4984fc" d="M746.22,1096c-3,2.62-6.06,5.31-9,8a2,2,0,1,0,2.69,3c2.93-2.66,5.93-5.33,8.94-7.93a2,2,0,0,0-2.62-3Z"/><path fill="#4984fc" d="M700.5,1141.08c-2.67,3-5.33,6.06-7.9,9.1a2,2,0,1,0,3,2.58c2.55-3,5.19-6,7.84-9a2,2,0,0,0-3-2.66Z"/><path fill="#4984fc" d="M736.89,1959.36a2,2,0,0,0-3,2.67q4,4.47,8,8.89a2,2,0,0,0,1.47.66,2,2,0,0,0,1.48-3.35Q740.87,1963.8,736.89,1959.36Z"/><path fill="#4984fc" d="M722.63,1117.81c-2.84,2.8-5.7,5.68-8.47,8.56a2,2,0,1,0,2.87,2.78c2.76-2.85,5.59-5.71,8.41-8.49a2,2,0,1,0-2.81-2.85Z"/><path fill="#4984fc" d="M716,1935.3a2,2,0,1,0-3.06,2.58c2.52,3,5.14,6.06,7.79,9.13a2,2,0,1,0,3-2.61C721.08,1941.34,718.46,1938.27,716,1935.3Z"/><path fill="#4984fc" d="M892.44,2120.18a2,2,0,0,0-2.91,2.75q4.11,4.35,8.19,8.74a2,2,0,0,0,1.47.64,2,2,0,0,0,1.36-.53,2,2,0,0,0,.1-2.83Q896.56,2124.54,892.44,2120.18Z"/><path fill="#4984fc" d="M802.84,2028.76a2,2,0,0,0-2.84,2.82q4.2,4.26,8.44,8.52a2,2,0,0,0,2.84-2.81Z"/><path fill="#4984fc" d="M870.31,2097.05a2,2,0,0,0-2.87,2.78q4.15,4.3,8.32,8.63a2,2,0,0,0,2.89-2.77Q874.48,2101.34,870.31,2097.05Z"/><path fill="#4984fc" d="M914.19,2143.69a2,2,0,1,0-3,2.69q4,4.42,8,8.91a2,2,0,1,0,3-2.66Q918.21,2148.13,914.19,2143.69Z"/><path fill="#4984fc" d="M847.91,2074.19a2,2,0,0,0-2.85,2.81l8.42,8.54a2,2,0,0,0,2.82,0,2,2,0,0,0,0-2.82Z"/><path fill="#4984fc" d="M825.43,2051.53l-1.48,1.35-1.35,1.47,8.39,8.45a2,2,0,0,0,1.42.59,2,2,0,0,0,1.41-.58,2,2,0,0,0,0-2.83Z"/><path fill="#4984fc" d="M821.56,1044.19l-75.63,21.68a2.26,2.26,0,0,0-.51,4.13l11.48,7.17a8.2,8.2,0,0,0,7.88.24l37.15-20.31a.54.54,0,0,1,.56.91l-30.69,24.24a2.74,2.74,0,0,0,.11,4.48l21.61,14a3.41,3.41,0,0,0,5-1.39l24.92-53A1.57,1.57,0,0,0,821.56,1044.19Z"/><g data-name="Rcket"><path fill="#4984fc" d="M1792.66,786.64l78.66-1.14a2.26,2.26,0,0,1,1.69,3.8l-8.29,8.93a8.27,8.27,0,0,1-7.48,2.51l-42.85-6.94a.53.53,0,0,0-.27,1l37.81,12.57a2.73,2.73,0,0,1,1.19,4.32l-17.27,20.9a3.41,3.41,0,0,1-5.15.11l-39.18-43.47A1.57,1.57,0,0,1,1792.66,786.64Z"/><path fill="#4984fc" d="M1887.27,813.07l-5.76-1.69a2,2,0,0,0-1.12,3.85c1.92.55,3.84,1.12,5.75,1.68a1.87,1.87,0,0,0,.57.08,2,2,0,0,0,.56-3.92Z"/><path fill="#4984fc" d="M2113.34,2100.61a2,2,0,0,0-2.76.64q-3.15,5.09-6.27,10.19a2,2,0,0,0,3.41,2.09q3.12-5.1,6.26-10.17A2,2,0,0,0,2113.34,2100.61Z"/><path fill="#4984fc" d="M2012.76,2299.24a2,2,0,0,0-2.57,1.18c-1.4,3.75-2.79,7.54-4.11,11.24a2,2,0,0,0,1.21,2.56,2,2,0,0,0,2.55-1.21c1.32-3.69,2.7-7.46,4.1-11.19A2,2,0,0,0,2012.76,2299.24Z"/><path fill="#4984fc" d="M2024.5,2269.63a2,2,0,0,0-2.62,1.08c-1.53,3.71-3.05,7.44-4.5,11.1a2,2,0,0,0,1.11,2.6,2.15,2.15,0,0,0,.74.14,2,2,0,0,0,1.86-1.26c1.45-3.64,3-7.36,4.49-11.05A2,2,0,0,0,2024.5,2269.63Z"/><path fill="#4984fc" d="M2007.22,858.5a2,2,0,0,0,.75-3.85q-5.55-2.22-11.14-4.39a2,2,0,1,0-1.45,3.73q5.58,2.16,11.1,4.37A2,2,0,0,0,2007.22,858.5Z"/><path fill="#4984fc" d="M1984.09,2390.34a2,2,0,0,0-2.42,1.45c-1,3.86-1.93,7.77-2.85,11.63a2,2,0,0,0,1.48,2.41,2,2,0,0,0,.47.06,2,2,0,0,0,1.94-1.54c.92-3.85,1.87-7.74,2.83-11.58A2,2,0,0,0,1984.09,2390.34Z"/><path fill="#4984fc" d="M1976.81,2421.35a2,2,0,0,0-2.37,1.54c-.83,3.89-1.64,7.83-2.41,11.73a2,2,0,0,0,1.58,2.35,2.56,2.56,0,0,0,.39,0,2,2,0,0,0,2-1.61c.76-3.87,1.57-7.8,2.39-11.67A2,2,0,0,0,1976.81,2421.35Z"/><path fill="#4984fc" d="M2037.24,2240.44a2,2,0,0,0-2.65,1c-1.64,3.61-3.28,7.29-4.88,10.93a2,2,0,0,0,1,2.64,2.05,2.05,0,0,0,.8.17,2,2,0,0,0,1.83-1.2c1.6-3.63,3.23-7.29,4.86-10.89A2,2,0,0,0,2037.24,2240.44Z"/><path fill="#4984fc" d="M1992.52,2359.63A2,2,0,0,0,1990,2361c-1.11,3.82-2.21,7.69-3.27,11.52a2,2,0,1,0,3.85,1.06c1.05-3.8,2.15-7.66,3.26-11.46A2,2,0,0,0,1992.52,2359.63Z"/><path fill="#4984fc" d="M2094.44,897.66a2,2,0,0,0,.9-3.79c-3.51-1.77-7.12-3.57-10.72-5.33a2,2,0,1,0-1.76,3.59c3.59,1.76,7.18,3.55,10.68,5.31A2,2,0,0,0,2094.44,897.66Z"/><path fill="#4984fc" d="M2037.46,866.88q-5.49-2.36-11-4.68a2,2,0,0,0-1.55,3.69q5.52,2.31,11,4.67a2,2,0,0,0,.79.16,2,2,0,0,0,.79-3.84Z"/><path fill="#4984fc" d="M2096.76,2127.82a2,2,0,0,0-2.74.7q-3.06,5.13-6.07,10.31a2,2,0,0,0,.72,2.74,2,2,0,0,0,1,.27,2,2,0,0,0,1.73-1q3-5.16,6.05-10.29A2,2,0,0,0,2096.76,2127.82Z"/><path fill="#4984fc" d="M2080.76,2155.38a2,2,0,0,0-2.72.76q-2.92,5.21-5.82,10.46a2,2,0,0,0,.79,2.71,1.94,1.94,0,0,0,1,.25,2,2,0,0,0,1.75-1q2.88-5.24,5.81-10.43A2,2,0,0,0,2080.76,2155.38Z"/><path fill="#4984fc" d="M1970.69,2452.6a2,2,0,0,0-2.31,1.63c-.68,3.88-1.35,7.85-2,11.81a2,2,0,0,0,1.65,2.29l.32,0a2,2,0,0,0,2-1.68c.63-3.95,1.29-7.9,2-11.76A2,2,0,0,0,1970.69,2452.6Z"/><path fill="#4984fc" d="M2050.91,2211.67a2,2,0,0,0-2.67.91c-1.77,3.59-3.53,7.21-5.23,10.77a2,2,0,0,0,.94,2.66,1.94,1.94,0,0,0,.87.2,2,2,0,0,0,1.8-1.14c1.69-3.54,3.44-7.15,5.21-10.73A2,2,0,0,0,2050.91,2211.67Z"/><path fill="#4984fc" d="M2066.6,879.94q-5.42-2.52-10.88-5a2,2,0,1,0-1.65,3.64c3.63,1.65,7.25,3.3,10.84,5a2,2,0,0,0,1.69-3.63Z"/><path fill="#4984fc" d="M2065.45,2183.32a2,2,0,0,0-2.7.83q-2.79,5.28-5.54,10.61a2,2,0,1,0,3.56,1.83q2.73-5.31,5.52-10.57A2,2,0,0,0,2065.45,2183.32Z"/><path fill="#4984fc" d="M2002.09,2329.25a2,2,0,0,0-2.53,1.27c-1.26,3.78-2.5,7.61-3.7,11.39a2,2,0,0,0,1.3,2.51,2.15,2.15,0,0,0,.61.09,2,2,0,0,0,1.9-1.39c1.2-3.76,2.44-7.58,3.69-11.34A2,2,0,0,0,2002.09,2329.25Z"/><path fill="#4984fc" d="M2409.68,1269.55a2,2,0,0,0,2,1.69,1.51,1.51,0,0,0,.3,0,2,2,0,0,0,1.68-2.28c-.61-3.94-1.28-7.93-2-11.84a2,2,0,0,0-3.93.72C2408.42,1261.7,2409.08,1265.64,2409.68,1269.55Z"/><path fill="#4984fc" d="M2403.64,1238.44a2,2,0,0,0,1.94,1.54,1.75,1.75,0,0,0,.46,0,2,2,0,0,0,1.49-2.41c-.9-3.85-1.89-7.77-2.92-11.64a2,2,0,0,0-3.87,1C2401.77,1230.75,2402.74,1234.62,2403.64,1238.44Z"/><path fill="#4984fc" d="M2355.74,1121.64a2,2,0,0,0,1.72,1,1.94,1.94,0,0,0,1-.29,2,2,0,0,0,.68-2.74c-2.07-3.42-4.21-6.86-6.36-10.21a2,2,0,1,0-3.37,2.16C2351.58,1114.84,2353.7,1118.25,2355.74,1121.64Z"/><path fill="#4984fc" d="M2395.16,1207.91a2,2,0,0,0,1.9,1.39,2.1,2.1,0,0,0,.61-.09,2,2,0,0,0,1.3-2.52c-1.22-3.78-2.51-7.61-3.84-11.37a2,2,0,1,0-3.77,1.33C2392.68,1200.38,2394,1204.17,2395.16,1207.91Z"/><path fill="#4984fc" d="M2417.15,1352.65c.18,4,.34,8,.46,11.92a2,2,0,0,0,2,1.94h.06a2,2,0,0,0,1.94-2.06c-.13-3.93-.28-8-.46-12a2,2,0,1,0-4,.18Z"/><path fill="#4984fc" d="M2412.24,1289.22c.43,3.93.84,7.93,1.22,11.87a2,2,0,0,0,2,1.81h.2a2,2,0,0,0,1.79-2.19c-.38-4-.8-8-1.23-11.92a2,2,0,1,0-4,.44Z"/><path fill="#4984fc" d="M2415.2,1320.9c.31,4,.6,8,.85,11.9a2,2,0,0,0,2,1.87h.13a2,2,0,0,0,1.87-2.13c-.26-3.94-.55-8-.86-12a2,2,0,1,0-4,.31Z"/><path fill="#4984fc" d="M1917.79,822.43q-5.7-1.81-11.42-3.58a2,2,0,0,0-1.19,3.82q5.71,1.77,11.4,3.57a1.8,1.8,0,0,0,.6.1,2,2,0,0,0,.61-3.91Z"/><path fill="#4984fc" d="M1965.71,2484.08a2,2,0,0,0-2.25,1.7c-.54,3.9-1.06,7.89-1.56,11.88a2,2,0,0,0,1.74,2.23l.25,0a2,2,0,0,0,2-1.76c.49-4,1-7.94,1.55-11.82A2,2,0,0,0,1965.71,2484.08Z"/><path fill="#4984fc" d="M1948.1,832.46q-5.65-1.94-11.34-3.84a2,2,0,0,0-1.27,3.79q5.67,1.9,11.31,3.83a1.81,1.81,0,0,0,.65.11,2,2,0,0,0,.65-3.89Z"/><path fill="#4984fc" d="M2218.69,974.3c3.17,2.38,6.35,4.82,9.46,7.25a2,2,0,0,0,1.23.43,2,2,0,0,0,1.58-.77,2,2,0,0,0-.35-2.81c-3.13-2.44-6.33-4.9-9.51-7.3a2,2,0,0,0-2.41,3.2Z"/><path fill="#4984fc" d="M2422,1384.41a2,2,0,0,0-4,0q0,4.48,0,8.93v3a2,2,0,0,0,2,2h0a2,2,0,0,0,2-2v-3Q2422.08,1388.91,2422,1384.41Z"/><path fill="#4984fc" d="M2166.3,938.32c3.36,2.11,6.74,4.27,10,6.41a2,2,0,0,0,1.09.33,2,2,0,0,0,1.09-3.68c-3.33-2.16-6.73-4.32-10.11-6.44a2,2,0,1,0-2.12,3.38Z"/><path fill="#4984fc" d="M2419.83,1414.28h-.06a2,2,0,0,0-2,2c-.11,4-.24,8-.4,11.91a2,2,0,0,0,1.91,2.08h.08a2,2,0,0,0,2-1.92c.16-4,.3-8,.4-12A2,2,0,0,0,2419.83,1414.28Z"/><path fill="#4984fc" d="M2111.21,906.57c3.5,1.86,7,3.76,10.5,5.65a1.94,1.94,0,0,0,1,.25,2,2,0,0,0,1-3.76c-3.48-1.9-7-3.81-10.55-5.67a2,2,0,1,0-1.87,3.53Z"/><path fill="#4984fc" d="M1965.56,842.84c3.76,1.35,7.49,2.72,11.22,4.1a2.09,2.09,0,0,0,.69.12,2,2,0,0,0,.7-3.88q-5.61-2.07-11.25-4.1a2,2,0,1,0-1.36,3.76Z"/><path fill="#4984fc" d="M2372.88,1663.52a2,2,0,0,0-2.57,1.18c-1.37,3.71-2.79,7.46-4.22,11.14a2,2,0,0,0,1.14,2.59,2.1,2.1,0,0,0,.73.14,2,2,0,0,0,1.86-1.28c1.44-3.71,2.86-7.47,4.25-11.2A2,2,0,0,0,2372.88,1663.52Z"/><path fill="#4984fc" d="M2320.21,1779.56a2,2,0,0,0-2.71.81q-2.84,5.27-5.73,10.5a2,2,0,0,0,.79,2.72,2,2,0,0,0,1,.25,2,2,0,0,0,1.76-1q2.89-5.25,5.74-10.53A2,2,0,0,0,2320.21,1779.56Z"/><path fill="#4984fc" d="M2361.31,1693.19a2,2,0,0,0-2.62,1.08c-1.51,3.63-3.07,7.32-4.65,11a2,2,0,0,0,3.68,1.58c1.58-3.67,3.15-7.38,4.67-11A2,2,0,0,0,2361.31,1693.19Z"/><path fill="#4984fc" d="M2369.11,1136.94a2,2,0,1,0-3.51,1.91c1.87,3.46,3.73,7,5.51,10.53a2,2,0,0,0,1.79,1.1,2,2,0,0,0,.9-.22,2,2,0,0,0,.88-2.69C2372.88,1144,2371,1140.44,2369.11,1136.94Z"/><path fill="#4984fc" d="M2334.9,1751.16a2,2,0,0,0-2.68.9c-1.77,3.53-3.59,7.13-5.42,10.68a2,2,0,0,0,3.55,1.83c1.84-3.57,3.67-7.17,5.45-10.72A2,2,0,0,0,2334.9,1751.16Z"/><path fill="#4984fc" d="M2314.59,1058a2,2,0,0,0-3,2.6c2.58,3,5.14,6.1,7.61,9.14a2,2,0,0,0,3.11-2.52C2319.77,1064.18,2317.19,1061.08,2314.59,1058Z"/><path fill="#4984fc" d="M2383.27,1633.41a2,2,0,0,0-2.52,1.28c-1.21,3.73-2.48,7.53-3.77,11.3a2,2,0,0,0,1.24,2.54,1.89,1.89,0,0,0,.65.11,2,2,0,0,0,1.89-1.35c1.3-3.8,2.58-7.62,3.79-11.36A2,2,0,0,0,2383.27,1633.41Z"/><path fill="#4984fc" d="M2341.61,1092.73c-2.3-3.25-4.67-6.51-7.05-9.71a2,2,0,0,0-3.21,2.39c2.36,3.17,4.71,6.41,7,9.63a2,2,0,0,0,3.27-2.31Z"/><path fill="#4984fc" d="M2348.62,1722.41a2,2,0,0,0-2.65,1c-1.64,3.57-3.34,7.21-5,10.81a2,2,0,0,0,3.62,1.71c1.71-3.61,3.42-7.27,5.06-10.85A2,2,0,0,0,2348.62,1722.41Z"/><path fill="#4984fc" d="M2415.85,1477.83a2,2,0,0,0-2.2,1.79c-.41,3.9-.86,7.89-1.33,11.84a2,2,0,0,0,1.74,2.22h.24a2,2,0,0,0,2-1.76c.47-4,.93-8,1.34-11.9A2,2,0,0,0,2415.85,1477.83Z"/><path fill="#4984fc" d="M2418.46,1446.1a2,2,0,0,0-2.13,1.86c-.26,4-.54,8-.86,11.89a2,2,0,0,0,1.84,2.15h.16a2,2,0,0,0,2-1.84c.31-3.94.61-8,.86-12A2,2,0,0,0,2418.46,1446.1Z"/><path fill="#4984fc" d="M2412,1509.44a2,2,0,0,0-2.27,1.69c-.57,3.88-1.18,7.84-1.82,11.78a2,2,0,0,0,1.65,2.29l.32,0a2,2,0,0,0,2-1.68c.64-4,1.25-7.94,1.83-11.84A2,2,0,0,0,2412,1509.44Z"/><path fill="#4984fc" d="M2388,1176.63c-1.51-3.68-3.1-7.38-4.72-11a2,2,0,1,0-3.65,1.63c1.6,3.58,3.17,7.25,4.67,10.89a2,2,0,0,0,1.85,1.24,1.87,1.87,0,0,0,.76-.15A2,2,0,0,0,2388,1176.63Z"/><path fill="#4984fc" d="M2406.76,1540.86a2,2,0,0,0-2.34,1.59c-.73,3.85-1.51,7.79-2.31,11.69a2,2,0,0,0,1.55,2.36,1.9,1.9,0,0,0,.41,0A2,2,0,0,0,2406,1555c.81-3.93,1.6-7.88,2.33-11.75A2,2,0,0,0,2406.76,1540.86Z"/><path fill="#4984fc" d="M2392.4,1602.9a2,2,0,0,0-2.46,1.38c-1.06,3.78-2.17,7.63-3.3,11.45a2,2,0,0,0,1.35,2.49,1.87,1.87,0,0,0,.57.08,2,2,0,0,0,1.92-1.43c1.14-3.85,2.25-7.72,3.31-11.51A2,2,0,0,0,2392.4,1602.9Z"/><path fill="#4984fc" d="M2400.24,1572a2,2,0,0,0-2.4,1.49c-.9,3.84-1.85,7.73-2.81,11.58a2,2,0,0,0,1.45,2.43,2.05,2.05,0,0,0,.49.06,2,2,0,0,0,1.94-1.52c1-3.86,1.92-7.78,2.82-11.64A2,2,0,0,0,2400.24,1572Z"/><path fill="#4984fc" d="M2278.93,1020.24c-2.84-2.74-5.77-5.51-8.72-8.23a2,2,0,0,0-2.71,2.94c2.92,2.7,5.83,5.45,8.66,8.17a2,2,0,0,0,1.39.56,2,2,0,0,0,1.44-.61A2,2,0,0,0,2278.93,1020.24Z"/><path fill="#4984fc" d="M2205,959.31c-3.22-2.28-6.52-4.59-9.82-6.85a2,2,0,0,0-2.27,3.3c3.29,2.25,6.57,4.54,9.78,6.82a2,2,0,0,0,1.15.37,2,2,0,0,0,1.16-3.64Z"/><path fill="#4984fc" d="M2201.33,1968.12a2,2,0,0,0-2.78.53l-6.73,9.83a2,2,0,0,0,.52,2.78,2,2,0,0,0,2.78-.52l6.73-9.84A2,2,0,0,0,2201.33,1968.12Z"/><path fill="#4984fc" d="M2183.39,1994.37a2,2,0,0,0-2.78.52q-3.36,4.92-6.71,9.85a2,2,0,1,0,3.31,2.25l6.7-9.84A2,2,0,0,0,2183.39,1994.37Z"/><path fill="#4984fc" d="M2219.25,1941.85a2,2,0,0,0-2.78.53l-6.71,9.85a2,2,0,0,0,.53,2.78,2,2,0,0,0,1.12.35,2,2,0,0,0,1.66-.87l6.71-9.86A2,2,0,0,0,2219.25,1941.85Z"/><path fill="#4984fc" d="M2237,1915.47a2,2,0,0,0-2.77.55l-6.65,9.9a2,2,0,0,0,3.31,2.23q3.34-5,6.66-9.91A2,2,0,0,0,2237,1915.47Z"/><path fill="#4984fc" d="M2147.86,2047a2,2,0,0,0-2.78.57l-6.58,10a2,2,0,0,0,3.35,2.2q3.27-5,6.57-10A2,2,0,0,0,2147.86,2047Z"/><path fill="#4984fc" d="M2151.38,924.53c-3.4-2-6.88-4-10.34-6a2,2,0,0,0-2,3.47c3.45,2,6.92,4,10.3,6a2,2,0,0,0,1,.28,2,2,0,0,0,1-3.72Z"/><path fill="#4984fc" d="M2165.53,2020.65a2,2,0,0,0-2.78.54q-3.33,4.93-6.65,9.88a2,2,0,0,0,.55,2.78,2,2,0,0,0,1.11.33,2,2,0,0,0,1.66-.88q3.32-5,6.65-9.88A2,2,0,0,0,2165.53,2020.65Z"/><path fill="#4984fc" d="M2254.6,1888.91a2,2,0,0,0-2.77.58q-3.27,5-6.55,10a2,2,0,0,0,.57,2.77,2,2,0,0,0,2.77-.57q3.28-5,6.56-10A2,2,0,0,0,2254.6,1888.91Z"/><path fill="#4984fc" d="M2130.4,2073.7a2,2,0,0,0-2.76.6q-3.24,5-6.45,10.07a2,2,0,0,0,.62,2.76,1.91,1.91,0,0,0,1.07.32,2,2,0,0,0,1.69-.93q3.21-5,6.43-10.06A2,2,0,0,0,2130.4,2073.7Z"/><path fill="#4984fc" d="M2288.55,1835a2,2,0,0,0-2.75.67q-3.09,5.11-6.22,10.2a2,2,0,0,0,3.41,2.09q3.14-5.1,6.24-10.21A2,2,0,0,0,2288.55,1835Z"/><path fill="#4984fc" d="M2299.84,1046.44a2,2,0,0,0,1.36-.53,2,2,0,0,0,.11-2.83c-2.68-2.9-5.45-5.83-8.23-8.72a2,2,0,1,0-2.88,2.78c2.77,2.87,5.52,5.78,8.17,8.66A2,2,0,0,0,2299.84,1046.44Z"/><path fill="#4984fc" d="M2271.8,1862.1a2,2,0,0,0-2.76.62q-3.18,5-6.4,10.07a2,2,0,0,0,.6,2.76,2,2,0,0,0,1.08.32,2,2,0,0,0,1.68-.92q3.24-5,6.43-10.09A2,2,0,0,0,2271.8,1862.1Z"/><path fill="#4984fc" d="M2304.72,1807.48a2,2,0,0,0-2.73.74q-3,5.19-6,10.34a2,2,0,1,0,3.45,2q3-5.16,6-10.37A2,2,0,0,0,2304.72,1807.48Z"/><path fill="#4984fc" d="M2246.17,990.94a2,2,0,1,0-2.56,3.07c3.06,2.55,6.12,5.14,9.09,7.71a2,2,0,1,0,2.61-3C2252.33,996.11,2249.25,993.5,2246.17,990.94Z"/><path fill="#4984fc" d="M1961.74,2516.74a2,2,0,0,0-2.19,1.79q-.3,3-.58,6a2,2,0,0,0,1.8,2.18h.19a2,2,0,0,0,2-1.81c.19-2,.38-4,.58-6A2,2,0,0,0,1961.74,2516.74Z"/></g><g data-name="Rcket"><path fill="#4984fc" d="M1576.5,2377.79a2,2,0,0,0-3.14,2.49c2.45,3.09,4.89,6.27,7.27,9.46a2,2,0,0,0,3.2-2.39C1581.44,2384.13,1579,2380.92,1576.5,2377.79Z"/><path fill="#4984fc" d="M1555.57,2353.41a2,2,0,0,0-2.93,2.72c2.69,2.89,5.38,5.87,8,8.86a2,2,0,1,0,3-2.64C1561,2359.33,1558.29,2356.33,1555.57,2353.41Z"/><path fill="#4984fc" d="M1532.75,2330.78a2,2,0,0,0-2.7,3c2.92,2.66,5.84,5.41,8.69,8.18a2,2,0,0,0,1.39.56,2,2,0,0,0,1.39-3.43C1538.65,2336.25,1535.69,2333.47,1532.75,2330.78Z"/><path fill="#4984fc" d="M1491.91,2298.25c-3.29-2.27-6.67-4.52-10-6.69a2,2,0,0,0-2.17,3.36c3.33,2.15,6.67,4.37,9.93,6.62a1.92,1.92,0,0,0,1.13.36,2,2,0,0,0,1.14-3.65Z"/><path fill="#4984fc" d="M1508.14,2310.1a2,2,0,0,0-2.44,3.17c3.13,2.42,6.27,4.92,9.33,7.44a2,2,0,1,0,2.54-3.09C1514.48,2315.08,1511.31,2312.55,1508.14,2310.1Z"/><path fill="#4984fc" d="M1595.44,2403.74a2,2,0,0,0-3.32,2.23c2.21,3.28,4.4,6.65,6.51,10a2,2,0,0,0,1.7.93,2.05,2.05,0,0,0,1.06-.3,2,2,0,0,0,.63-2.76C1599.88,2410.45,1597.67,2407.05,1595.44,2403.74Z"/><path fill="#4984fc" d="M1612.34,2431.06a2,2,0,0,0-3.48,2c2,3.43,3.88,6.95,5.74,10.45a2,2,0,0,0,1.77,1.07,2,2,0,0,0,.93-.24,2,2,0,0,0,.83-2.7C1616.25,2438.07,1614.3,2434.52,1612.34,2431.06Z"/><path fill="#4984fc" d="M1639.83,2489.05a2,2,0,0,0-3.72,1.45c1.43,3.69,2.83,7.45,4.17,11.2a2,2,0,0,0,1.89,1.32,2,2,0,0,0,1.88-2.67C1642.69,2496.57,1641.28,2492.77,1639.83,2489.05Z"/><path fill="#4984fc" d="M1651.24,2522.13c-.27-.92-.55-1.82-.83-2.73a2,2,0,1,0-3.82,1.18c.28.9.55,1.8.83,2.71a2,2,0,0,0,1.91,1.42,2,2,0,0,0,.58-.09A2,2,0,0,0,1651.24,2522.13Z"/><path fill="#4984fc" d="M1627.14,2459.55a2,2,0,1,0-3.61,1.72c1.69,3.56,3.35,7.21,5,10.84a2,2,0,0,0,1.83,1.19,1.89,1.89,0,0,0,.8-.17,2,2,0,0,0,1-2.63C1630.53,2466.83,1628.85,2463.15,1627.14,2459.55Z"/><path fill="#4984fc" d="M1408.27,2241.49l75.62,21.68a2.26,2.26,0,0,1,.52,4.13l-11.48,7.17a8.23,8.23,0,0,1-7.88.24l-37.16-20.31a.53.53,0,0,0-.55.91l30.68,24.24a2.73,2.73,0,0,1-.1,4.48l-21.62,14a3.4,3.4,0,0,1-5-1.39l-24.92-53A1.56,1.56,0,0,1,1408.27,2241.49Z"/></g><g><path fill="#4079cc" d="M1861.57,1329.7l-23.36-66.64a94,94,0,0,0-38.07-48.16L1395.91,940.54a27.48,27.48,0,0,0-30.9,0L960.78,1214.9a94,94,0,0,0-38.07,48.16l-23.37,66.64a94.77,94.77,0,0,0-5.33,31.35v24.17s327.8,256.43,354.7,270.33,236.6,13.9,263.5,0,354.7-270.33,354.7-270.33v-24.17A94.78,94.78,0,0,0,1861.57,1329.7Z"/><path fill="#fff" d="M1332.65,832.76s445.68,264.07,630.3,366.92c0,0-226.78,382.44-539,549.22,0,0-445.45-214.73-445.45-217.51S1332.65,832.76,1332.65,832.76Z"/><path fill="#4984fc" d="M1866.9,1363V2008.8a12.5,12.5,0,0,1-12.51,12.51H906.53A12.52,12.52,0,0,1,894,2008.8V1363.24a12.51,12.51,0,0,1,12.62-12.51l15.79.1a14.86,14.86,0,0,1,8.87,3l384.36,277.09L1381,1678l64.67-46.73L1830,1353.49a15,15,0,0,1,8.92-3l15.43,0A12.51,12.51,0,0,1,1866.9,1363Z"/><path fill="#4d92f7" d="M1862.65,2018.2a12.51,12.51,0,0,1-8.26,3.11H906.53a12.46,12.46,0,0,1-8.26-3.11l417.38-387.31,6.94-6.44a15.47,15.47,0,0,1,10.77-4.34h94.19a15.45,15.45,0,0,1,10.77,4.34l7.35,6.82Z"/></g><g data-name="Right Hand"><path fill="#6ceac9" d="M2479.07,2139.87c-63,141.88-140.93,260.7-252.08,322.45l-2.57,1.4c-12-132.84-28.87-340.21-42.11-419.25-16.15-96.34-44.39-195.3-106-271.13-27.06-33.31-61-61.32-82.89-98.23C1961.91,1622,1958,1554.86,1930.07,1501l-.37,0c-20.11-12-41.51-21.73-62.79-31.63V1363a12.47,12.47,0,0,0-8.48-11.84c66.44-87.29,104.52-151.5,104.52-151.5-22.5-12.53-48.87-27.46-77.85-44,105.8,5.44,203.44,33.35,303.46,73.66,38.89,15.68,79.92,30.35,101.7,64.4,12.6,19.73,19.11,85.48,19.91,108.87C2319.74,1678.85,2327.26,1775.76,2479.07,2139.87Z"/><path fill="#6ceac9" d="M2040.24,1406.33c-1.68,2.14-3.59,4.35-6.22,5.06-3.07.83-6.25-.59-9.1-2a501.86,501.86,0,0,1-139.72-102.83c-28-29.37-54.67-63.61-93.32-76-23.7-7.62-55.12-2.55-64.8,20.38-9.41,22.26,6.53,46.59,22.28,64.91A932,932,0,0,0,1862,1426.41c16.87,14,34.37,27.47,48.32,44.35a168.88,168.88,0,0,1,19.55,29.85"/><path fill="#fff" d="M1804.27,1308.44c11.27-9.9,21.84-30.35,3.13-49.34-18.45-18.74-46.1-31.5-65-17.37-19.41,14.52-9.18,45.72,2.2,58.48C1756.21,1313.22,1769.3,1339.19,1804.27,1308.44Z"/><path d="M1929.37,1252c13,5.59,26,11,39.11,16.29s26.22,10.46,39.54,15.09c13.33,4.41,26.72,9.5,40.78,9.2a74.14,74.14,0,0,0,20.72-2.82,70,70,0,0,0,9.88-3.62,64.41,64.41,0,0,0,9.16-5.23,59.28,59.28,0,0,1-18.7,9.94,74.66,74.66,0,0,1-21,3.56,75.94,75.94,0,0,1-21.22-2.63c-6.89-1.75-13.63-4-20.3-6.34q-20-7.11-39.52-15.46c-13-5.52-25.94-11.25-38.66-17.44Z"/><path d="M2034.44,1411.12c6.67-1.08,13-3.6,19.09-6.48,3.08-1.39,6-3.06,9-4.68,1.5-.76,2.87-1.76,4.31-2.63l4.27-2.71a173.59,173.59,0,0,0,30.39-26.5c2.4-2.37,4.43-5.08,6.63-7.63l3.26-3.86c1.12-1.26,2-2.68,3.07-4l6-8.11,5.58-8.44,2.82-4.21c.92-1.42,1.72-2.91,2.58-4.36l5.12-8.75c3.32-5.89,6.24-12,9.49-18-1.35,3.11-2.73,6.2-4.13,9.3l-2.09,4.64-1,2.32c-.37.77-.8,1.5-1.19,2.25l-4.83,9c-.82,1.49-1.57,3-2.45,4.47l-2.69,4.33-5.47,8.62-6,8.24c-1,1.36-2,2.79-3.08,4.08l-3.28,3.91c-2.24,2.56-4.31,5.28-6.75,7.66A160.74,160.74,0,0,1,2072,1396l-4.38,2.63c-1.48.85-2.88,1.82-4.42,2.55-3,1.56-6,3.2-9.19,4.46-1.56.67-3.12,1.37-4.74,1.9s-3.17,1.22-4.82,1.65-3.25,1-4.93,1.31c-.84.17-1.67.36-2.5.5l-2.54.3Z"/><path d="M1857.93,1423c7.08,5.4,14.15,10.81,21,16.44s13.7,11.42,20.12,17.64c3.19,3.13,6.32,6.33,9.3,9.68a132.49,132.49,0,0,1,21.5,33.84,257.94,257.94,0,0,0-14.8-22.11,179.33,179.33,0,0,0-17.5-19.88c-6.3-6.22-12.91-12.16-19.57-18S1864.56,1429,1857.93,1423Z"/><path d="M2071.17,1289.93a348.58,348.58,0,0,1,.37,38.93c-.72,13-2.34,26.09-6.74,38.5a95.61,95.61,0,0,1-8.51,17.68A177.14,177.14,0,0,1,2045,1401l-3,3.81a44.51,44.51,0,0,1-3.17,3.72,12.29,12.29,0,0,1-4,2.84,8.49,8.49,0,0,1-4.89.23c-3.23-.76-6-2.48-9-3.85s-5.82-2.86-8.68-4.38q-17.27-8.94-33.84-19.19l-8.2-5.23-8.08-5.43c-5.35-3.68-10.64-7.44-15.79-11.38a444.77,444.77,0,0,1-57.84-51.93l.17-.16a584.09,584.09,0,0,0,58.84,50.52,548.06,548.06,0,0,0,65.13,42.07c2.82,1.58,5.7,3.06,8.57,4.56s5.66,3.22,8.76,4a7.49,7.49,0,0,0,4.66-.22,9.35,9.35,0,0,0,3.71-2.89c2-2.51,3.91-5.14,5.83-7.73,7.66-10.4,14.29-21.62,18.12-33.83s5.66-25,6.65-37.83,1.17-25.8,1.48-38.75Z"/><path d="M1892.37,1305.28l41,22.12c13.69,7.28,27.59,14.19,41.83,20.28s28.92,11.2,44.07,14.15,30.75,3.69,45.95.66l.15.65a87.85,87.85,0,0,1-23.18,3,123,123,0,0,1-23.28-2.44c-15.33-3.07-30.08-8.34-44.36-14.49s-28.09-13.35-41.73-20.77-27-15.3-40.57-22.87Z"/></g><g data-name="Left Hand"><path fill="#6ceac9" d="M1124.22,2021.32c-10,15-26.59,26.2-42.28,36.11l-64.52,40.69c-7.07,4.46-14.16,8.93-21.64,12.68-13.58,6.81-28.25,11.16-42.83,15.45l-31.11,9.2s-20.65,25.83-32.34,53c-14.48,33.62-17.62,70.94-28.21,106C835,2381.57,764.91,2449,718.77,2526.92c-1.65-.7-3.31-1.41-5-2.13-81.61-36.2-150.66-98.57-207.34-176.69.58-3.59,1.14-7.17,1.67-10.77,5.56-37.68,8.46-75.69,12.54-113.55a1887.45,1887.45,0,0,1,35.76-215.36c4-17.58,8.27-35.3,16.49-51.34,11.54-22.47,30.14-40.43,49.11-57.11a876,876,0,0,1,109.63-82.14c48.84-31,105.11-57.89,162.35-49.66V2008.8a12.52,12.52,0,0,0,12.5,12.52Z"/><path fill="#6ceac9" d="M736.15,2125.45a436.73,436.73,0,0,0,134.44-119.24c29.24-39.49,52-84.18,86.79-118.89,13-12.91,28-24.57,45.66-29.23s38.44-1,50.53,12.68c16.62,18.84,11.66,48.2,1.78,71.29-13.4,31.35-33.75,59.15-53.92,86.64-21,28.67-42.07,57.34-63.68,85.57-5.35,7-10.76,14-16,21.09"/><path fill="#fff" d="M988.63,1942.82c12.26,9.84,35.06,17.39,50.56-4.3,15.29-21.39,22.7-51.14,4.64-68-18.56-17.34-48.1-2.33-58.76,11C974.22,1895.18,950.54,1912.28,988.63,1942.82Z"/><path d="M1006.84,2021.32c-6.54,9.91-13.52,19.5-20.41,29.16s-14,19.14-21.16,28.6-14.21,19-21.48,28.37-14.61,18.68-22.07,27.91c3.42-4.85,6.92-9.63,10.38-14.45l5.25-7.18,5.21-7.22c6.89-9.65,14-19.15,21-28.71s14.11-19.06,21.31-28.48l10.91-14.05c1.8-2.36,3.68-4.65,5.52-7S1005,2023.62,1006.84,2021.32Z"/><path d="M736.15,2125.45A471.26,471.26,0,0,0,782,2094.18a464.78,464.78,0,0,0,41.61-36.56,518.77,518.77,0,0,0,36.92-41.22c5.81-7.16,11.52-14.42,17-21.86L894,1972.16c-4.63,8-9.46,16-14.57,23.72q-3.84,5.8-7.85,11.52l-4.13,5.62c-1.37,1.88-2.73,3.76-4.19,5.57-2.89,3.65-5.72,7.35-8.79,10.84-1.52,1.76-3,3.56-4.55,5.29l-4.67,5.18c-3.06,3.5-6.37,6.78-9.57,10.15s-6.57,6.59-9.94,9.79a420.79,420.79,0,0,1-89.62,65.61Z"/><path d="M748.05,1920.7a60.77,60.77,0,0,0,20.18,1.32,53.12,53.12,0,0,0,9.86-2c3.18-1,6.34-2.26,9.47-3.54,12.46-5.18,24.26-12.24,33.75-21.75,2.44-2.33,4.44-5,6.92-7.51a62.12,62.12,0,0,1,7.92-6.77,92.52,92.52,0,0,1,18.06-10,127.49,127.49,0,0,1,39.79-9.58,161,161,0,0,0-38.88,11.65,99.6,99.6,0,0,0-17.48,10A64,64,0,0,0,830,1889c-2.29,2.32-4.46,5.11-7,7.49a88.19,88.19,0,0,1-16.28,12.73,115.33,115.33,0,0,1-18.44,9.2,91.28,91.28,0,0,1-9.77,3.33,54.59,54.59,0,0,1-10.23,1.6A52.1,52.1,0,0,1,758,1923,54.61,54.61,0,0,1,748.05,1920.7Z"/><path d="M757.47,1922.74a34.39,34.39,0,0,1,11.15,11.51,63.8,63.8,0,0,1,6.47,14.84,32.77,32.77,0,0,1,1.08,3.91c.3,1.32.64,2.63.92,4l.62,4,.32,2,.16,2,.33,4.06c.06,1.35,0,2.71.05,4.06a73.61,73.61,0,0,1-.37,8.13c-.06,1.35-.36,2.68-.53,4s-.34,2.69-.64,4c-.62,2.64-1.07,5.33-1.92,7.91l-1.16,3.9-1.43,3.81-.71,1.91c-.26.62-.57,1.23-.85,1.85l-1.72,3.68a82.18,82.18,0,0,1-19.88,25.44h0l-.93-1,3-2.77,1,1-3,2.78-.93-1h0a89.65,89.65,0,0,0,18.72-25.43,92.31,92.31,0,0,0,8.67-30.31,85.3,85.3,0,0,0-2.37-31.45,62.54,62.54,0,0,0-5.73-14.79A35.46,35.46,0,0,0,757.47,1922.74Z"/><path d="M697.11,1972.84c8.79,8.8,17.46,17.71,25.73,27A292.89,292.89,0,0,1,746,2029.25c3.57,5.09,7.09,10.19,10.81,15.08a149.5,149.5,0,0,0,12.1,13.92c4.28,4.42,8.79,8.65,13.43,12.75s9.34,8.16,14,12.26l-.87,1.08a279.63,279.63,0,0,1-28.66-24,132.45,132.45,0,0,1-12.42-14.13c-3.82-5-7.26-10.19-10.72-15.34a358.92,358.92,0,0,0-22.25-29.74C713.49,1991.55,705.24,1982.25,697.11,1972.84Z"/><path d="M804.46,1995.28a15.43,15.43,0,0,1,6.16-.6c2.07.15,4.12.52,6.16.76a20.86,20.86,0,0,0,6.06,0c2-.4,4-.82,6-1.35a93.5,93.5,0,0,0,22.7-9.32c7.14-4,13.63-9.13,20.14-14.21a101.64,101.64,0,0,1,10.16-7.2c3.54-2.14,7.59-3.92,11.78-3.78-4.16.37-7.82,2.43-11.2,4.68-1.7,1.14-3.32,2.4-4.93,3.69s-3.22,2.56-4.82,3.86a144.91,144.91,0,0,1-20.38,14.28,83.66,83.66,0,0,1-23.2,9c-2,.49-4.06.85-6.12,1.2a20.69,20.69,0,0,1-6.29-.25C812.63,1995.39,808.53,1994.2,804.46,1995.28Z"/></g></svg>