<svg xmlns="http://www.w3.org/2000/svg" viewBox="0 0 128 128"><path fill="#424243" d="M102.102 72.419a1.024 1.024 0 001.185.512c.702-.197 6.676-4.655 5.876-14.404-.009-.115-.981-11.265-11.229-11.007-10.252-.239-11.205 10.892-11.215 11-.799 9.756 5.175 14.214 5.877 14.411a1.027 1.027 0 001.185-.512c.14-.276.271-.814-.388-1.354-2.938-2.809-1.342-8.065-.69-9.825h10.477c.654 1.757 2.256 7.007-.691 9.825-.658.539-.527 1.078-.387 1.354zm1.757-13.179H92.023a1 1 0 00-.914.59c-.089.198-1.333 3.018-1.431 6.196-.731-1.871-1.211-4.301-.962-7.35.03-.381.774-8.927 8.66-9.152l.001.017c.193-.013.378-.016.563-.02.186.004.37.007.563.02l.001-.017c7.888.226 8.629 8.771 8.659 9.157.251 3.048-.229 5.477-.961 7.347-.097-3.18-1.342-6-1.431-6.198a.997.997 0 00-.912-.59zM19.306 61c0 7.119 4.724 12.911 10.53 12.911 5.806 0 10.53-5.792 10.53-12.911s-4.725-12.911-10.53-12.911c-5.807 0-10.53 5.792-10.53 12.911zm4.84-8.104c.138.262.3.544.49.842-.654 1.631-1.887 2.968-2.896 3.855.472-1.828 1.313-3.438 2.406-4.697zm5.69 19.015c-4.702 0-8.526-4.895-8.526-10.911 0-.193.015-.382.022-.573.572-.369 3.197-2.163 4.703-4.95a9.429 9.429 0 003.703 2.305l1.427.479-.169-2.354c1.58 1.09 4.099 2.504 7.231 3.229.083.607.135 1.229.135 1.866 0 6.015-3.825 10.909-8.526 10.909zm7.908-14.966c-4.316-1.264-7.189-3.916-7.221-3.945l-1.871-1.756.287 3.983c-1.901-1.126-2.858-2.837-3.259-3.747 1.231-.883 2.647-1.392 4.155-1.392 3.582.001 6.649 2.845 7.909 6.857z"/><path fill="#424243" d="M47.968 82.849c-.06-1.443-.197-3.034-.457-4.12-.818-3.406-3.366-7.76-7.856-8.818a1 1 0 1 0-.46 1.947c3.372.794 5.629 4.258 6.367 7.336.301 1.263.438 3.63.438 5.295 0 .013.007.023.007.035A25.917 25.917 0 0 1 30.059 90a25.951 25.951 0 0 1-16.439-5.849c.017-1.635.154-3.775.436-4.956.739-3.08 2.995-6.544 6.367-7.338a1 1 0 1 0-.46-1.947c-4.49 1.059-7.038 5.412-7.856 8.82-.231.973-.368 2.353-.437 3.668C6.939 77.688 4.008 71.18 4.008 64c0-14.337 11.686-26 26.051-26 13.743 0 25.027 10.678 25.979 24.157h19.944v1.935l6.922-3.988-6.922-3.989v2.011H59.529C56.793 44.371 44.645 34 30.059 34 13.457 34 0 47.431 0 64s13.457 30 30.059 30c13.228 0 24.449-8.529 28.469-20.375h-4.275a26.133 26.133 0 0 1-6.285 9.224z"/><path fill="#424243" d="M97.941 34c-13.228 0-24.449 8.529-28.469 20.375h4.275C77.59 44.791 86.983 38 97.941 38c14.364 0 26.051 11.663 26.051 26 0 7.299-3.033 13.899-7.901 18.626-.064-1.382-.201-2.866-.447-3.897-.817-3.406-3.365-7.76-7.855-8.818a1 1 0 0 0-.46 1.947c3.371.794 5.628 4.258 6.366 7.336.294 1.229.43 3.498.438 5.153A25.956 25.956 0 0 1 97.941 90a25.939 25.939 0 0 1-16.191-5.655c.009-1.655.145-3.923.438-5.149.739-3.08 2.995-6.544 6.367-7.338a1 1 0 0 0 .746-1.203 1.006 1.006 0 0 0-1.206-.744c-4.49 1.059-7.038 5.412-7.856 8.82-.245 1.028-.382 2.51-.445 3.89a25.99 25.99 0 0 1-7.825-16.745h-20.7v-1.967l-6.922 3.988 6.922 3.989v-2.011h17.204C71.209 83.629 83.356 94 97.941 94 114.543 94 128 80.569 128 64s-13.457-30-30.059-30z"/></svg>