<svg xmlns="http://www.w3.org/2000/svg" viewBox="0 0 660 660"><path fill="#d7d5f8" d="M331.5,229.4l-1-0.3c0.6-1.9,1.2-3.8,1.9-5.7l0.9,0.3C332.7,225.6,332.1,227.5,331.5,229.4z"/><path fill="#d7d5f8" d="M381.9,461.5l-0.1-1c3.9-0.3,7.8-1.1,11.7-2.1l0.3,1C389.8,460.4,385.8,461.2,381.9,461.5z M369.8,461.4       c-4-0.4-8-1.2-11.8-2.4l0.3-1c3.8,1.1,7.7,1.9,11.7,2.3L369.8,461.4z M405,455.1l-0.4-0.9c3.6-1.7,7-3.7,10.3-6l0.6,0.8       C412.2,451.4,408.6,453.4,405,455.1z M346.7,454.5c-3.6-1.8-7-4-10.2-6.5l0.6-0.8c3.1,2.4,6.5,4.6,10,6.4L346.7,454.5z        M424.8,441.4l-0.7-0.7c2.9-2.8,5.5-5.8,7.9-8.9l0.8,0.6C430.4,435.6,427.7,438.6,424.8,441.4z M327.8,439.7       c-1.4-1.6-2.7-3.4-3.9-5.2c-1-1.5-2-3.2-2.9-4.8l0.9-0.5c0.9,1.6,1.8,3.2,2.9,4.7c1.2,1.7,2.5,3.5,3.8,5.1L327.8,439.7z        M439.2,422.1l-0.9-0.4c1.8-3.8,3.1-7.5,3.9-11.2l1,0.2C442.4,414.4,441,418.2,439.2,422.1z M316.2,418.6       c-1.2-3.6-2.3-7.5-3.1-11.7l1-0.2c0.8,4.1,1.8,8,3,11.5L316.2,418.6z M442,418.2l-0.1-1c0.8,0,1.6-0.1,2.4-0.2       c3.1-0.3,6.3-0.7,9.4-1.3l0.2,1c-3.2,0.6-6.4,1.1-9.5,1.3C443.7,418.1,442.8,418.1,442,418.2z M429.9,417.7       c-4.3-0.7-8.2-2.1-11.4-4l0.5-0.9c3.1,1.9,6.9,3.2,11.1,3.9L429.9,417.7z M465.7,413.7l-0.3-1c3.7-1.2,7.5-2.7,11.1-4.3       l0.4,0.9C473.2,411,469.4,412.4,465.7,413.7z M410.3,404.8c-1.5-2.9-2.3-6.1-2.3-9.1c0-1,0.1-1.9,0.2-2.9l1,0.2       c-0.2,0.9-0.2,1.8-0.2,2.7c0,2.9,0.7,5.9,2.2,8.6L410.3,404.8z M487.5,403.6l-0.5-0.9c3.4-2,6.7-4.3,9.9-6.7l0.6,0.8       C494.3,399.3,490.9,401.6,487.5,403.6z M442.3,398.7c-0.4-1.9-1-3.7-1.7-5.4c-0.8-1.8-2-3.4-3.5-4.9l0.7-0.7       c1.6,1.6,2.8,3.3,3.7,5.2c0.8,1.8,1.4,3.6,1.8,5.6L442.3,398.7z M311.3,395.1c-0.4-3.6-0.7-7.6-0.9-12l1-0.1       c0.2,4.4,0.5,8.3,0.9,11.9L311.3,395.1z M506.6,389l-0.7-0.7c2.9-2.8,5.6-5.7,8.1-8.7l0.8,0.6       C512.3,383.2,509.5,386.2,506.6,389z M415.6,383.9l-0.5-0.9c2.2-1.2,4.7-1.8,7.4-1.8c1.5,0,3.1,0.2,4.6,0.6l-0.2,1       c-1.5-0.4-3-0.5-4.4-0.5C420,382.3,417.7,382.8,415.6,383.9z M309.9,371.1c-0.1-3.4-0.1-6.9-0.1-10.4l0-1.6l1,0l0,1.6       c0,3.5,0,6.9,0.1,10.4L309.9,371.1z M522,370.4l-0.8-0.5c2.2-3.3,4.2-6.8,5.9-10.4l0.9,0.4C526.2,363.5,524.1,367.1,522,370.4z        M532.6,348.8l-0.9-0.3c0.5-1.4,0.9-2.7,1.3-4.1c0.7-2.4,1.3-4.9,1.9-7.4l1,0.2c-0.5,2.5-1.2,5.1-1.9,7.5       C533.5,346.1,533,347.5,532.6,348.8z M311,347.1l-1,0c0.1-4,0.3-8,0.6-12l1,0.1C311.3,339.1,311.1,343.1,311,347.1z        M537.4,325.3l-1-0.1c0.2-2.7,0.3-5.4,0.3-8.1c0-1.3,0-2.6-0.1-3.9l1,0c0,1.3,0.1,2.6,0.1,3.9       C537.8,319.9,537.7,322.6,537.4,325.3z M312.5,323.2l-1-0.1c0.4-4,0.8-8,1.2-12l1,0.1C313.2,315.2,312.8,319.2,312.5,323.2z        M535.6,301.4c-0.6-3.9-1.4-7.8-2.5-11.7l1-0.3c1,3.9,1.9,7.8,2.5,11.8L535.6,301.4z M315.2,299.3l-1-0.1       c0.6-3.9,1.2-7.9,1.9-11.9l1,0.2C316.4,291.4,315.8,295.4,315.2,299.3z M529.3,278.4c-1.5-3.7-3.1-7.4-5-10.8l0.9-0.5       c1.9,3.5,3.6,7.2,5,11L529.3,278.4z M319.3,275.7l-1-0.2c0.8-3.9,1.6-7.9,2.5-11.7l1,0.2C321,267.9,320.1,271.8,319.3,275.7z        M518.2,257.3c-2.3-3.3-4.7-6.5-7.3-9.4l0.8-0.7c2.6,3,5.1,6.2,7.4,9.5L518.2,257.3z M324.7,252.4l-1-0.3       c1-3.9,2.1-7.8,3.2-11.6l1,0.3C326.8,244.6,325.7,248.5,324.7,252.4z"/><path fill="#d7d5f8" d="M502.3,239.3c-1.5-1.3-3-2.6-4.6-3.8l0.6-0.8c1.6,1.2,3.1,2.5,4.6,3.9L502.3,239.3z"/><path fill="#f1f1fe" d="M528.5,311.6H369.8c-10.8,0-19.6-8.8-19.6-19.6V117.8c0-10.8,8.8-19.6,19.6-19.6h158.7            c10.8,0,19.6,8.8,19.6,19.6V292C548.1,302.8,539.3,311.6,528.5,311.6z"/><path fill="#fff" d="M536.1,120.9v121.3c0,5.9-4.7,10.6-10.5,10.6H372.7c-5.8,0-10.5-4.8-10.5-10.6V120.9            c0-5.9,4.7-10.6,10.5-10.6h152.8C531.4,110.3,536.1,115.1,536.1,120.9z"/><rect width="50.7" height="10.9" x="377.7" y="268.6" fill="#d7d5f8"/><rect width="88.3" height="5.4" x="377.7" y="284" fill="#d7d5f8"/><rect width="41.9" height="5.4" x="377.7" y="293.9" fill="#d7d5f8"/><polygon fill="#ffc0d2" points="407.5 252.9 418.6 186.6 392.1 180.8 375 252.9"/><ellipse cx="485.4" cy="83.5" fill="#131912" rx="17.4" ry="17"/><path fill="#131912" d="M420.7,139c-2.7,6.6-1.3,14.5,3.4,19.9c1,1.1,2.2,2.2,3.6,2.9c0.1,0.3,0.2,0.6,0.3,0.8                  c0.9,2.1,2.7,3.6,4.6,4.8c7,4.5,16.4,5.1,24,1.7c1.2,2.3,3.2,4.2,5.6,5.4c7.2,3.6,20,2,26.7-5.4                  c4-4.5,5.6-11.3,3-16.7c-1.5-3.1-4.1-5.6-6.3-8.3c-2.2-2.7-4-6.1-3.4-9.5c0.8-4.6,5.7-7.3,8.7-11                  c4.7-5.8,4.6-14.3,1.6-21.2c-3-6.8-8.4-12.3-13.9-17.5l-45.4,0.2c-3.5-0.2-7.1,2-8.4,5.2c-0.4,1-0.6,2.2-0.2,3.2                  c0.2,0.5,0.5,0.9,0.9,1.2c0.8-0.8,1.7-1.5,2.7-2.1c0.7,0.8,0,2.3-1,2.5c-0.6,0.1-1.2-0.1-1.7-0.4                  c-2.6,2.5-4.2,5.9-4.5,9.4c-0.3,4.7,1.7,9.4,5.4,12.4c-4.2,1.3-7.7,4.8-8.9,8.9c-1.2,4.2-0.1,8.9,2.9,12.2                  c0.2,0.2,0.4,0.4,0.6,0.6C420.9,138.6,420.8,138.8,420.7,139z"/><path fill="#131912" d="M424.8,94.7c0.5,0.4,1.1,0.6,1.7,0.4c1.1-0.2,1.8-1.7,1-2.5C426.5,93.2,425.6,93.9,424.8,94.7z                  "/><path fill="#ffcd53" d="M432.8,152.6l-8.8-0.5c-9.8-0.6-19.1,4.4-23.8,12.9l-17.8,24.4                      c7.8,7.5,25.2,10.4,38.1,17.5L432.8,152.6z"/><path fill="#ffcd53" d="M413.7,240.1c0,0-2.3,4.9-5.9,12.8h75.3c1-11.4,5.4-52.8,8.1-78c1.1-10.7-7.2-20-18.1-20.6                      c-12.5-0.6-28.1-1.3-38.9-1.8c-7.9-0.3-15.2,4.1-18.4,11.2c-4.4,9.9-9.5,23.9-8.9,34.2                      C407.8,215.5,413.7,240.1,413.7,240.1z"/><path fill="#f46634" d="M413.2,240.2c-0.1-0.2-5.9-24.9-6.9-42.2c-0.6-10.3,4.6-24.4,9-34.4l0.9,0.4                      c-4.4,9.9-9.5,23.8-8.9,33.9c1,17.2,6.8,41.8,6.8,42L413.2,240.2z"/><path fill="#ffc0d2" d="M497.5,252.9h28.9c-0.4-8.2-1-17.4-2-22c-2.9-13.7-19.2-52.8-19.2-52.8l-25,17.8l15.8,41.2                      L497.5,252.9z"/><path fill="#ffcd53" d="M473.8,154.3l7.2,0c17.1,0.5,25.8,13.1,31.3,29l7.2,18.1c-11,5.7-26.3,7.3-39.8,6.9                      C473,190.8,471,172.8,473.8,154.3z"/><path fill="#f46634" d="M479.3,208.6c-4.3-11.2-6.7-22.6-7.1-34l1,0c0.5,11.3,2.8,22.6,7.1,33.7L479.3,208.6z"/><path fill="#131912" d="M475.6,81.9c16.5,15.5,14.2,38.8-3.5,48.2c-14.4,7.6-15.1-18.9-15.1-18.9l5.7-9.5l10.7-7.4"/><path fill="#ffc0d2" d="M437.6,114.4l1.1,38.4l28.6,1.3c0-0.6,1.5-27.7,1.5-27.9L437.6,114.4z"/><path fill="#ffc0d2" d="M468.5,126.2c-7.3,10.3-16.9,20-31.8,16.4c-17.7-4.3-13.5-30.8-10.4-40.7c0.7-2.2,1-4.7,2.2-7                  c4.1-8.2,13.6-15.4,26.4-11.9c19.8,5.4,20.9,20.4,20.6,25.7c4.5-0.5,8,0.8,8.2,5.2                  C483.9,122.1,474.2,127.3,468.5,126.2z"/><path fill="#131912" d="M460.9,134.9c-4.9,6.2-12.9,10.3-20.9,8.6c-1.1-0.2-2.2-0.5-3.3-0.9                  C446.1,144.5,453.9,141.1,460.9,134.9L460.9,134.9z"/><ellipse cx="445.9" cy="115.3" fill="#131912" rx="2.4" ry="2.5" transform="rotate(-12.667 445.897 115.286)"/><ellipse cx="430.5" cy="113.5" fill="#131912" rx="2.4" ry="2.5" transform="rotate(-12.667 430.52 113.456)"/><path fill="#131912" d="M439.2,125.7l-5.8-0.4c-0.4,0-0.6-0.5-0.4-0.8c2.3-3.5,4.7-7.4,4.5-11.7c0-0.3,0.2-0.5,0.5-0.5                  c0.3,0,0.5,0.2,0.5,0.5c0.1,2-0.4,4.2-1.4,6.5c-0.8,1.8-1.8,3.4-2.8,5l5,0.3c0.3,0,0.5,0.3,0.5,0.5                  C439.7,125.4,439.5,125.7,439.2,125.7z"/><path fill="#131912" d="M426.2,90c1.2,2.5,3.3,4.4,5.7,5.9c2.4,1.5,5,2.5,7.6,3.6c8.5,3.4,17,6.8,25.6,10.2                  c1.2,0.5,2.4,1,3.1,2c0.8,1.1,0.9,2.7,0.2,3.9c2-2.5,4.8-4.6,7.1-6.8c0,0,9-14.2,3.3-22.9                  C473.7,78,463,69,448.2,73.4c-2.5,0.8-5.2-0.3-6.6-2.6c0,0,0,0,0,0c-2.3-3.7-10.8,3.7-13.7,7                  C425,81,424.3,86.1,426.2,90z"/><path fill="#fff" d="M475.9,87.5c-4-4.9-10-8.1-16.3-8.9c-0.3,0-0.5-0.3-0.4-0.6s0.3-0.5,0.6-0.4                  c6.6,0.8,12.8,4.2,16.9,9.2c0.2,0.2,0.1,0.5-0.1,0.7C476.4,87.8,476.1,87.7,475.9,87.5z"/><path fill="#131912" d="M471.9,121.6c-1.6-1.6-0.9-4.3,1.3-5c0.6-0.2,1.4-0.2,1.5-0.6c0.1-0.3-0.4-0.8-0.6-1.3                  c-0.9-2.3,2.4-4.3,4.3-2.1c0.7,0.8,0.9,2,0.5,3c-0.1,0.3-0.4,0.4-0.6,0.3c-0.3-0.1-0.4-0.4-0.3-0.6                  c0.2-0.7,0.1-1.5-0.3-2c-1.1-1.3-3.1-0.3-2.6,1.1c0.2,0.5,0.8,1.1,0.6,1.9c-0.1,0.5-0.5,0.8-1.1,1                  c-0.4,0.1-0.8,0.2-1.1,0.3c-1.5,0.4-2,2.2-0.9,3.3c0.2,0.2,0.2,0.5,0,0.7C472.4,121.8,472.1,121.8,471.9,121.6z"/><path fill="#131912" d="M435.2,131.6c-0.1-0.3,0.1-0.5,0.3-0.6c0.3-0.1,0.5,0.1,0.6,0.3c1,2.9,4.9,3.7,7,1.3                  c0.2-0.2,0.5-0.2,0.7,0c0.2,0.2,0.2,0.5,0,0.7C441.4,136.2,436.5,135.3,435.2,131.6z"/><path fill="#131912" d="M428.6,107.9c1.9-2.8,5.7-1.9,6.6,0.5c0.3,1,0,1.6-0.3,1.6c-0.3,0-0.7-0.4-1.2-0.7                   c-1.4-1.1-2.5-0.8-4-0.1C428,109.9,427.7,109.3,428.6,107.9z"/><path fill="#131912" d="M444.5,108c1.9-1.3,4.7-0.5,5.4,1.6c0.3,1,0,1.6-0.3,1.6c-0.3,0-0.7-0.4-1.2-0.7                   c-1.4-1.1-2.5-0.8-4-0.1C441.8,111.8,442.9,109.1,444.5,108z"/><path fill="#fff" d="M455.8,99c-0.3-0.1-10.2,0.2-19.3-7c-1.6-1.3-3.8-3.3-4.2-6c-0.5-3,1.4-6.2,5-8.6                c0.2-0.2,0.5-0.1,0.7,0.1c0.2,0.2,0.1,0.5-0.1,0.7c-1.2,0.8-5.1,3.8-4.5,7.6c0.3,1.8,1.5,3.5,3.8,5.4                c5.3,4.2,11.9,6.6,18.7,6.8c0.3,0,0.5,0.2,0.5,0.5C456.3,98.7,456,99,455.8,99z"/><path fill="#fff" d="M494.8,90.9c-0.2-0.2-0.2-0.5,0-0.7c2.4-2.2,3.6-5.6,3.2-8.8c-0.4-3.2-2.3-6.2-5.1-7.9                c-0.2-0.1-0.3-0.5-0.2-0.7c0.1-0.2,0.5-0.3,0.7-0.2c3.1,1.9,5.2,5.2,5.6,8.7c0.4,3.5-1,7.2-3.5,9.7                C495.3,91.1,495,91.1,494.8,90.9z"/><path fill="#fff" d="M489.7,99.4c-1.8-4.1-4.7-7.6-8.4-10.3c-0.2-0.2-0.3-0.5-0.1-0.7s0.5-0.3,0.7-0.1                c3.8,2.8,6.8,6.4,8.7,10.6c0.1,0.3,0,0.5-0.2,0.7C490.1,99.7,489.8,99.6,489.7,99.4z"/><path fill="#fff" d="M491,76.5c-2.1-2.4-5.5-3.5-8.6-3c-0.3,0.1-0.5-0.1-0.6-0.4c0-0.3,0.1-0.5,0.4-0.6                c3.5-0.6,7.2,0.7,9.6,3.3c0.2,0.2,0.2,0.5,0,0.7C491.5,76.7,491.2,76.7,491,76.5z"/><path fill="#fff" d="M482.2,150.5c-1.7-2.3-3.4-4.6-4.6-7.3c-0.9-2.1-1.8-5.3-0.8-8.6c0.8-2.7,2.8-4.8,4.7-6.9                c2.1-2.3,4.1-4.4,4.6-7.3c0.1-0.3,0.3-0.4,0.6-0.4c0.3,0.1,0.5,0.3,0.4,0.6c-0.6,3.1-2.8,5.5-4.9,7.7                c-1.8,2-3.7,4-4.5,6.5c-0.7,2.3-0.5,5.1,0.7,7.9c1.1,2.6,2.8,4.9,4.4,7.1c0.2,0.2,0.1,0.5-0.1,0.7                C482.7,150.7,482.4,150.7,482.2,150.5z"/><path fill="#fff" d="M469.5,154.1c7.5,6,5.3,25.1-20.5,33.8l-6-18.3"/><path fill="#fff" d="M433.2,152.6c-3.6,1.2-14.2,15.7,0.9,32l9.4-14.4L433.2,152.6z"/><path fill="#ffc0d2" d="M433.2,152.6c0.1,0.5-6.6,18.3,10.3,20.5c18.6,2.4,26-18.9,26-18.9L433.2,152.6z"/><ellipse cx="540.2" cy="145.1" fill="#ff4e62" rx="34.1" ry="34.4"/><ellipse cx="340.9" cy="144.8" fill="#46b6f9" rx="34.1" ry="34.4"/><polygon fill="#fff" points="529 160.7 524.8 156.4 551.4 129.6 555.6 133.9"/><polygon fill="#fff" points="555.6 156.4 551.4 160.7 524.8 133.9 529 129.6"/><path fill="#fff" d="M331.9,157.7l-7.5-7.6c-1.2-1.2-1.2-3.1,0-4.2c1.2-1.2,3.1-1.2,4.2,0l5.4,5.5l19.3-19.4          c1.2-1.2,3.1-1.2,4.2,0c1.2,1.2,1.2,3.1,0,4.2l-21.4,21.6C335,158.8,333,158.8,331.9,157.7z"/><path fill="#131912" d="M201.9,578.7l0.6-0.8c0.3,0.2,0.7,0.1,1-0.1c0.3-0.2,0.5-0.6,0.7-1.2c0.6-2,0.3-4,0-6.2              c-0.3-2.1-0.6-4.3,0-6.3c1-4,5.3-3.8,6.3,1c0.7,3.3-0.1,6.9-2,9.7l-0.8-0.6c1.8-2.6,2.4-5.9,1.8-8.9              c-0.7-3.7-3.6-4-4.3-1c-0.5,1.9-0.2,3.9,0,6c0.3,2.2,0.6,4.4,0,6.6c-0.1,0.5-0.4,1.2-1,1.7              C203.4,579.1,202.5,579.2,201.9,578.7z"/><path fill="#131912" d="M208.1,577.7l-0.2-1c2.4-0.5,4.8-1.7,6.6-3.4s3.1-4,3.7-6.5c0.9-3.6-1.6-5.7-4-2              c-2,3-3.7,6.3-5,9.7l-0.9-0.4c1.3-3.5,3-6.8,5.1-9.9c2.9-4.4,7-2.1,5.8,2.8c-0.6,2.6-2,5.1-4,6.9              C213.2,575.9,210.7,577.2,208.1,577.7z"/><polygon fill="#ffc0d2" points="190 563.2 198.6 520.9 161.4 535.9 160.6 567.2"/><path fill="#46b6f9" d="M155.2,593.4h73.6l-0.3-4c-0.3-5.2-3.3-13.1-7.9-15.4c-0.7-0.3-1.3-0.6-2.1-0.6l-21.1-2.9                l-6.3-13.1l-30.6,2.1L155.2,593.4z"/><polygon fill="#131912" points="159.5 566.3 160.6 559.4 191.2 557.3 195.6 566.3"/><path fill="#131912" d="M228.4,588.3h-72.2l-1,5.1h73.6l-0.3-4C228.5,589,228.5,588.7,228.4,588.3z"/><path fill="#131912" d="M204.5,579c13.4,2.7,16.1-5,16.1-5c-0.7-0.3-1.3-0.6-2.1-0.6l-21.1-2.9              C197.5,570.4,191.1,576.3,204.5,579z"/><path fill="#fff" d="M198.9,574c-0.1-0.3,0.1-0.5,0.3-0.6c2.4-0.7,2.5-2.3,2.6-2.4c0-0.3,0.2-0.5,0.5-0.5              c0.3,0,0.5,0.2,0.5,0.5c0,0.1-0.1,2.4-3.3,3.3C199.3,574.4,199,574.2,198.9,574z"/><path fill="#fff" d="M203.7,575.4c-0.1-0.3,0-0.5,0.2-0.7c2.2-1,2.1-3,2.1-3.1c0-0.3,0.2-0.5,0.5-0.5              c0.3,0,0.5,0.2,0.5,0.5c0,0.1,0.2,2.8-2.7,4.1C204.1,575.8,203.8,575.6,203.7,575.4z"/><path fill="#fff" d="M208.5,576.2c-0.1-0.3,0-0.5,0.3-0.7c2.7-1.1,2.1-2.9,2-3.1c-0.1-0.3,0-0.5,0.3-0.6              c0.3-0.1,0.5,0,0.6,0.3c0,0,1.1,2.9-2.5,4.4C208.9,576.6,208.6,576.5,208.5,576.2z"/><path fill="#131912" d="M120.7,579.2c-0.3,0-0.7-0.1-1-0.3l0.6-0.8c0.3,0.2,0.7,0.1,1-0.1c0.3-0.2,0.5-0.6,0.7-1.2              c0.6-2,0.3-4,0-6.2c-0.3-2.1-0.6-4.2,0-6.3c1-4,5.4-3.7,6.3,1c0.7,3.3-0.1,6.9-2,9.7l-0.8-0.6c1.8-2.5,2.4-5.9,1.8-8.9              c-0.7-3.5-3.5-4.1-4.3-1c-0.5,1.9-0.2,3.9,0,6c0.3,2.2,0.6,4.4,0,6.6c-0.1,0.5-0.4,1.2-1,1.7              C121.6,579,121.2,579.2,120.7,579.2z"/><path fill="#131912" d="M126,577.8l-0.2-1c2.4-0.5,4.8-1.7,6.6-3.4s3.1-4,3.7-6.5c0.9-3.7-1.6-5.6-4-2c-2,3-3.7,6.3-5,9.7              l-0.9-0.4c1.3-3.5,3-6.8,5.1-9.9c2.9-4.4,7-2.1,5.8,2.8c-0.6,2.6-2,5.1-4,6.9S128.6,577.3,126,577.8z"/><polygon fill="#ffc0d2" points="107.9 563.3 116.5 521 79.3 536 78.4 567.3"/><path fill="#46b6f9" d="M73.1,593.5h73.6l-0.3-4c-0.3-5.2-3.3-13.1-7.9-15.4c-0.7-0.3-1.3-0.6-2.1-0.6l-21.1-2.9                l-6.3-13.1l-30.6,2.1L73.1,593.5z"/><polygon fill="#131912" points="77.3 566.4 78.4 559.5 109.1 557.4 113.4 566.4"/><path fill="#131912" d="M146.3,588.5H74.1l-1,5.1h73.6l-0.3-4C146.4,589.1,146.4,588.8,146.3,588.5z"/><path fill="#131912" d="M122.4,579.1c13.4,2.7,16.1-5,16.1-5c-0.7-0.3-1.3-0.6-2.1-0.6l-21.1-2.9              C115.4,570.5,109,576.4,122.4,579.1z"/><path fill="#fff" d="M116.8,574.1c-0.1-0.3,0.1-0.5,0.3-0.6c2.5-0.7,2.6-2.3,2.6-2.3c0-0.3,0.2-0.5,0.5-0.5              c0.3,0,0.5,0.2,0.5,0.5c0,0.1-0.1,2.4-3.3,3.3C117.2,574.5,116.9,574.4,116.8,574.1z"/><path fill="#fff" d="M121.6,575.5c-0.1-0.3,0-0.5,0.2-0.7c2.2-1,2.1-3.1,2.1-3.1c0-0.3,0.2-0.5,0.5-0.5              c0.3,0,0.5,0.2,0.5,0.5c0,0.1,0.2,2.8-2.7,4.1C122,575.9,121.7,575.8,121.6,575.5z"/><path fill="#fff" d="M126.4,576.3c-0.1-0.3,0-0.5,0.3-0.7c2.7-1.1,2-3,2-3.1c-0.1-0.3,0-0.5,0.3-0.6              c0.3-0.1,0.5,0,0.6,0.3c0,0,1.1,2.9-2.5,4.4C126.8,576.7,126.5,576.6,126.4,576.3z"/><path fill="#ffc0d2" d="M324.5,169c0,0,7.1-0.8,5.9,1.8c-1.2,2.6-30.5,26.9-30.5,26.9l-37.5,48.2                  c-8.2,10.1-23,11.5-32.9,3.1l-59.7-50.3l45.9-15.7c-0.4-1,18.5,23.8,27.1,33.3l40.5-38.1c0,0,5.3-11.6,8-15.3                  c1.6-2.2,7.4-7.9,7.4-7.9c1.3-1.4,3.5-1.2,4.5,0.4c0.7,1.1,0.6,2.3-0.2,3.3l-4.8,7.8l21.4-14.9                  c2-1.8,5.2,0.3,4.3,2.8l0,0.1c0,0,5-0.8,4.8,1.6c-0.2,2.2-3.7,4.2-4.1,4.4c0.7-0.1,7.8-1.7,6.9,1.6                  C330.7,165.8,324.5,169,324.5,169z"/><path fill="#131912" d="M310.3,164.6l13.3-10.3c0.2-0.2,0.5-0.1,0.7,0.1c0.2,0.2,0.1,0.5-0.1,0.7l-13.3,10.3                  C310.4,165.8,309.8,165,310.3,164.6z"/><path fill="#131912" d="M312.5,169.5l11.9-9.2c0.2-0.2,0.5-0.1,0.7,0.1c0.2,0.2,0.1,0.5-0.1,0.7l-11.9,9.2                  C312.6,170.7,312,169.9,312.5,169.5z"/><path fill="#131912" d="M312.8,176.5c3.9-2.7,11.2-7.8,11.4-7.9c0.2-0.2,0.5-0.1,0.7,0.1c0.2,0.2,0.1,0.5-0.1,0.7                  c-0.2,0.2-11,7.6-11.4,7.9C312.8,177.7,312.2,176.9,312.8,176.5z"/><path fill="#b16ee2" d="M226.7,187.2L204.3,225l-34.9-57l-2.5-0.6l11.8-1.8c11.9-1.9,24.1,1.5,33.3,9.3L226.7,187.2z"/><path fill="#46b6f9" d="M168.6,423.4c0,0-2.8,82.1-10.6,125.9l55.5,1.7c5.3-38.6,9.5-118,8.9-142.3                 c-0.4-16.8-1-85.6-7.2-114.1c-1.1-4.8-2.1-9.5-3.2-13.9c0,0-56.7-0.2-56.7,0C156.4,285.8,168.6,423.4,168.6,423.4z"/><path fill="#131912" d="M132.5,138.5c-1.8,2.7-5.4,3.8-8.6,3.4c-3.2-0.4-6.1-2.1-8.9-3.8c-1.7-1.1-3.3-2.2-4.6-3.7                 c-1.2-1.5-2.1-3.3-2-5.2c-0.3-0.4-0.6-0.7-0.8-1.1c-1-1.8-1.2-4-1.2-6.1c0.2-6.3,2.6-12.4,6.7-17.2                 c19.9-6.2,22,5.8,19.4,22.5C133.6,130.9,134.7,135.2,132.5,138.5z"/><path fill="#46b6f9" d="M125.3,549.3c14.3-32.7,34.1-118.7,38.5-140.2c1-4.7,10.8-79.6,12.7-101.7                 c0.8-9.7,1.5-18.8,2.1-26.6h-60.2c-1.2,8.9-2.2,19.6-3,30.6c-2.6,35.5-8,92.6-8,92.6L69.2,549.3H125.3z"/><path fill="#fff" d="M164.3,409.2l-1-0.2c0.7-3.5,6.8-49.2,10.4-80.1l1,0.1C171,360.6,165,405.6,164.3,409.2z"/><path fill="#0065f7" d="M215.2,294.7c-12.2,5.6-25.1,9.8-38.7,12.7c-6.8,1.4-13.9,2.6-21.1,3.3                 c-12.8,1.3-26.1,1.6-40,0.7c0.8-11,1.8-21.6,3-30.6h93.5C213,285.2,214.1,289.9,215.2,294.7z"/><path fill="#b16ee2" d="M222.2,286.5C190,303,153,309.7,110.7,306.2l-11-107.7c-1.1-11.1,5.9-21.3,16.4-24.4                 c0.5-0.1,0.9-0.3,1.4-0.4c3.2-0.4-15.2,2,54.6-7c12.4-2.8,24.7,5,27.5,17.4L222.2,286.5z"/><path fill="#2b1141" d="M221.7,286.6l-22.6-102.8c-0.1-0.3,0.1-0.5,0.4-0.6c0.3-0.1,0.5,0.1,0.6,0.4                 c0,0.2,0.1,0.3,0.1,0.5l22.5,102.3c0.1,0.3-0.1,0.5-0.4,0.6C222,287,221.7,286.9,221.7,286.6z"/><path fill="#ffc0d2" d="M156.5,189.4c-12,5.1-29.9-10.5-35.3-16.1l41.3-5.3C162.5,168,170.6,183.4,156.5,189.4z"/><path fill="#fff" d="M216.1,346.7c-4.5-3-7.9-7.4-9.8-12.4c-1.8-5-2-10.6-0.5-15.8l1,0.3c-1.5,4.9-1.3,10.3,0.4,15.2                 c1.8,4.8,5.1,9.1,9.4,11.9L216.1,346.7z"/><path fill="#ffc0d2" d="M128.9,131.7c0,0-0.1,37.4-1.7,41.7l28.7-3.7l1.8-41.1L128.9,131.7z"/><path fill="#ffc0d2" d="M130.7,134.2c4.8,12.1,14.1,24.1,29.7,23.8c18.5-0.3,18.4-28,17.6-38.7                  c-0.2-2.4,0.1-4.9-0.5-7.5c-2.2-9.2-9.8-18.6-23.3-18c-20.8,0.9-25.4,15.9-26.3,21.3c-4.3-1.6-8.1-1-9.3,3.4                  C116.5,126.6,124.9,134,130.7,134.2z"/><path fill="#131912" d="M127.3,128.6c-0.2-0.2-0.1-0.5,0.1-0.7c1.3-0.9,1.2-2.9-0.2-3.6c-0.3-0.2-0.7-0.3-1-0.5                  c-1.9-1.1-0.2-2.7,0.1-3.1c0.8-1.3-1-2.8-2.4-1.6c-0.6,0.4-0.9,1.2-0.8,2c0,0.3-0.2,0.5-0.4,0.6                  c-0.3,0-0.5-0.2-0.6-0.4c-0.1-1.1,0.3-2.3,1.1-2.9c2.4-1.9,5.2,0.8,3.9,3c-0.5,0.7-1.4,1.2-0.5,1.7                  c0.2,0.1,0.7,0.3,1,0.5c1,0.5,1.6,1.5,1.7,2.6c0.1,1.1-0.5,2.2-1.4,2.8C127.8,128.9,127.5,128.8,127.3,128.6z"/><path fill="#131912" d="M136.3,144.7c5.5,6.9,13.1,12.3,22,13.4c-0.6,0-1.1,0-1.7,0C148.1,157.7,140.4,152,136.3,144.7                  L136.3,144.7z"/><path fill="#131912" d="M192.6,94.2c-2.1,3.1-5.3,5.2-8.5,7.1c-0.3,0.2-0.6,0.3-0.9,0.5c0,1.4-0.6,2.9-1.7,3.9                  c-1.8,1.8-4.5,2.5-7,3c-4.1,0.9-8.5,1.6-12.4,0c-1.6-0.6-3-1.8-4-3.1c-0.4,0.4-0.8,0.8-1.2,1.1c-4,3-10,3-13.9,0                  c0.9,0.7,0,5.1-0.3,6.1c-0.5,2.2-1.5,4.2-2.8,6c-1.1,1.5-2.7,3.4-4.6,4.2c-1.5,0.6-2.9,0.1-4.4-0.2                  c0.1-2.9-0.9-5.6-3-7.6c-1.2-1.2-4.6-0.9-6.1-0.5c-0.5-3.1-5-4.5-7.6-6.1c-2.6-1.6-5.3-3.2-7-5.8                  c-2.7-4.1-2.1-9.7,0.5-13.8c2.6-4.1,6.9-6.8,11.4-8.7c1.7-0.7,3.6-1.3,5.3-0.6c0.1,0,0.1,0.1,0.2,0.1                  c0-3.1,1.8-6.4,4.5-8.1c4-2.5,9.3-2.3,13.8-0.9c5.8,1.9,11.1,5.6,14.7,10.5c8-6.9,20.2-8.5,29.7-3.9                  c2.8,1.4,5.5,3.3,6.8,6.2C195.7,87,194.7,91.1,192.6,94.2z"/><ellipse cx="156.2" cy="124.9" fill="#131912" rx="2.6" ry="2.4" transform="matrix(.01657 -.9999 .9999 .01657 28.78 278.99)"/><ellipse cx="172.2" cy="123.8" fill="#131912" rx="2.6" ry="2.4" transform="matrix(.01657 -.9999 .9999 .01657 45.577 293.873)"/><path fill="#131912" d="M161.5,139.2c-0.2-0.2-0.1-0.5,0.1-0.7l6.6-5c-1.8-0.8-3.2-2.4-4-4.6c-0.8-2.2-0.9-4.6-0.9-6.9                  c0-0.3,0.2-0.5,0.5-0.5c0.3,0,0.5,0.2,0.5,0.5c0.1,2.2,0.1,4.5,0.9,6.5c0.8,2.2,2.4,3.8,4.3,4.3                  c0.4,0.1,0.5,0.6,0.2,0.9l-7.4,5.6C162,139.5,161.7,139.4,161.5,139.2z"/><path fill="#131912" d="M152.2,144c-0.1-0.2,0-0.5,0.2-0.7c0.2-0.1,0.5,0,0.7,0.2c2.4,4.3,6.2,4.5,9.9,1.3                  c0.2-0.2,0.5-0.2,0.7,0.1c0.2,0.2,0.2,0.5-0.1,0.7C159,149.4,154.6,148.6,152.2,144z"/><path fill="#fff" d="M134.7,112.7c-0.6-4.8,2.2-9.5,6.8-11.2c0.3-0.1,0.5,0,0.6,0.3c0.1,0.3,0,0.5-0.3,0.6                  c-2,0.7-3.7,2.1-4.9,4c-1.1,1.8-1.6,4-1.3,6.1c0,0.3-0.2,0.5-0.4,0.6C134.9,113.1,134.7,112.9,134.7,112.7z"/><path fill="#fff" d="M126.9,109.9c-2.2-1.8-2.9-5.1-1.8-7.6c0.1-0.3,0.4-0.4,0.7-0.2c0.3,0.1,0.4,0.4,0.2,0.7                  c-1,2.2-0.3,4.9,1.5,6.5c0.2,0.2,0.2,0.5,0.1,0.7C127.4,110,127.1,110.1,126.9,109.9z"/><path fill="#131912" d="M158.4,120c-0.3,0.6-2.2,0.1-3.8,0.6c-1.7,0.5-2.9,1.9-3.5,1.6c-0.7-0.4,0.1-3.1,2.8-3.9                  c1.5-0.5,2.8-0.1,3.6,0.4C158.3,119.2,158.6,119.7,158.4,120z"/><path fill="#131912" d="M175.2,117.7c-0.3,0.6-2.2,0.1-3.8,0.6c-1.7,0.5-2.9,1.9-3.5,1.6c-0.7-0.4,0.1-3.1,2.8-3.9                  C173.3,115.2,175.6,117,175.2,117.7z"/><path fill="#fff" d="M181.2,94.8c-0.3,0-0.5-0.3-0.4-0.6c0-0.3,0.3-0.5,0.6-0.4c2.7,0.4,5.2-1.7,5.3-4.5               c0.1-2-1.1-3.9-2.2-5.5c-0.2-0.2-0.1-0.5,0.1-0.7c0.2-0.2,0.5-0.1,0.7,0.1c1.2,1.8,2.5,3.8,2.3,6.1               C187.5,92.7,184.5,95.2,181.2,94.8z"/><path fill="#fff" d="M133.2,87.5c-0.3-0.1-0.4-0.3-0.4-0.6c0.3-1.5,0.8-3.2,1.6-4.8c1.9-3.5,4.9-5.1,9-4.6               c1.8,0.2,3.5,0.8,5.2,1.3c0.3,0.1,0.4,0.4,0.3,0.6c-0.1,0.3-0.4,0.4-0.6,0.3c-3.2-1-6.7-2.2-9.8-0.6               c-2.9,1.5-4,4.8-4.7,8C133.7,87.4,133.5,87.5,133.2,87.5z"/><path fill="#fff" d="M120.3,102.1c-0.2-1.7-0.4-3.5,0.2-5.3c0.5-1.6,2-3.4,4-3.5c0.3,0,0.5,0.2,0.5,0.5               c0,0.3-0.2,0.5-0.5,0.5c-1.6,0.1-2.7,1.5-3.1,2.8c-0.5,1.6-0.3,3.3-0.1,4.9c0,0.3-0.2,0.5-0.4,0.5               C120.6,102.6,120.4,102.4,120.3,102.1z"/><path fill="#fff" d="M122.3,132.2c-0.1,0-0.2,0-0.3-0.1c-4.1-3-6.9-7.6-7.6-12.6c0-0.3,0.2-0.5,0.4-0.6               c0.3,0,0.5,0.1,0.6,0.4c0.7,4.7,3.4,9.2,7.2,12c0.2,0.2,0.3,0.5,0.1,0.7C122.6,132.1,122.5,132.2,122.3,132.2z"/><g><path fill="#ffc0d2" d="M189.8,282l7.7-2.9c0.5-0.1,1-0.4,1.4-0.8c0.4-0.4,0.6-1,0.7-1.6c0.3-1.8-1.1-3.4-2.8-3.1              c0,0-7.2,0.8-9.5,1.4c-4,1.1-14.1,4.4-14.1,4.4"/><polygon fill="#cf215e" points="176 244.1 169.4 251 217 324.8 224.2 321.5 185.4 241.1"/><path fill="#ff4e62" d="M176,244.1c0,0,33.8-20.4,46.6-23.2c0,0,38.2,46.8,43.8,73.1c0,0-21.8,21.8-43.4,28.1              C223,322.1,182.7,262.1,176,244.1z"/><path fill="#fae100" d="M197.9,232c0,0,18.3,21.3,26.7,35c8.7,14.3,19.2,45.4,19.2,45.4l9.4-6.5c0,0-14-33.7-22-45.3              c-6.1-8.9-24.6-33-24.6-33L197.9,232z"/><path fill="#fae100" d="M242.9,248.3c0,0-36.6,16.9-48.3,29.4l-4,8.5l4.2,6.5l5.7-5.4c0,0,28.3-23.8,49.4-28.3              L242.9,248.3z"/><path fill="#f1f1fe" d="M225.9,256.8l1.7,4.2l0.8,2.1c0,0,17.1,3.5,18.6,0.4c0.5-1.1,0.3-2.8-0.3-4.8               c-2.1-7.2-9.9-18.5-14.4-19.5C226.5,238,225.9,256.8,225.9,256.8z"/><path fill="#d7d5f8" d="M227.6,261l0.8,2.1c0,0,17.1,3.5,18.6,0.4c0.5-1.1,0.3-2.8-0.3-4.8C240,264.5,227.6,261,227.6,261               z"/><path fill="#f1f1fe" d="M221.7,258.6l2.6,3.7l1.3,1.8c0,0-6.5,16.2-9.8,15.7c-5.2-0.8-14.4-20-12.3-25.5               C205.6,248.8,221.7,258.6,221.7,258.6z"/><path fill="#d7d5f8" d="M224.3,262.3l1.3,1.8c0,0-6.5,16.2-9.8,15.7c-1.2-0.2-2.5-1.2-3.9-2.8               C220.4,274.6,224.3,262.3,224.3,262.3z"/><path fill="#f1f1fe" d="M230,261.7l25.9,19.8c0,0-5.4,1.4-6.4,3.4c-1,2,0.3,3.5,0.3,3.5l-22.3-24.5L230,261.7z"/><path fill="#f1f1fe" d="M227.6,263.8l14.1,42.4c0,0-9.2-4.4-13.4-0.7l-4.2-43.2L227.6,263.8z"/><path fill="#d7d5f8" d="M222.1,259.5c0,0.5,0.1,1,0.4,1.4l1.8,3c0.8,1.4,2.5,1.8,3.9,1c1.4-0.8,1.8-2.5,1-3.9l-1.8-3             c-0.8-1.4-2.5-1.8-3.9-1C222.6,257.5,222.1,258.5,222.1,259.5z"/></g><g><path fill="#ffc0d2" d="M87.6,213.3l12.7,66c2.6,13.8,14.4,23.9,31.3,23.7l42.8-1.2l-1.3-22.4l-41-7.1            c0,0-11.1-63.1-11.5-64.4L87.6,213.3z"/></g><g><path fill="#b16ee2" d="M130.3,223.7c2.4,5.5-42.2,13.9-44.6,8.4l-2.5-26.7c-1.5-16.6,11.4-31.1,28.1-31.5l6.3-0.1            L130.3,223.7z"/></g><g><path fill="#2b1141" d="M130.3,224.2c-0.2,0-0.4-0.1-0.5-0.4l-9.4-35.2c-0.1-0.3,0.1-0.5,0.4-0.6c0.3-0.1,0.5,0.1,0.6,0.4            l9.4,35.2c0.1,0.3-0.1,0.5-0.4,0.6C130.4,224.2,130.3,224.2,130.3,224.2z"/></g><g><path fill="#ffc0d2" d="M173.1,279.4c0,0,1.2,22.1,1.3,22.4c0.3,0.3,32.5,4.5,34.8,3.2c2.3-1.2-3-5-3-5s6,1.4,8.6-0.7             c2.5-2-3.2-5.3-3.7-5.5c0.4,0.1,3.9,0.7,5.3-0.8c1.4-1.7-2.4-4.2-2.4-4.2l0.1,0c2.1-1.3,1-4.9-1.3-4.8l-22.9-1.9"/><path fill="#131912" d="M214,289.3c-22.9-0.6-11.6-0.3-14.8-0.4c-0.3,0-0.5-0.2-0.5-0.5c0-0.3,0.2-0.5,0.5-0.5c0,0,0,0,0,0             l14.8,0.4c0.3,0,0.5,0.2,0.5,0.5C214.5,289,214.3,289.3,214,289.3z"/><path fill="#131912" d="M211.1,294.3c-20.5-0.5-10.3-0.2-13.3-0.3c-0.3,0-0.5-0.2-0.5-0.5c0-0.3,0.2-0.5,0.5-0.5l13.2,0.3             c0.3,0,0.5,0.2,0.5,0.5C211.6,294.1,211.4,294.3,211.1,294.3z"/><path fill="#131912" d="M206.2,300.5c-14.2-1.2-3-0.2-12.2-1c-0.3,0-0.5-0.3-0.5-0.5c0-0.3,0.3-0.5,0.5-0.5             c4.1,0.3,11.9,1,12.2,1c0.3,0,0.5,0.3,0.5,0.5C206.7,300.3,206.5,300.5,206.2,300.5z"/></g><g><path fill="#fff" d="M116.5,361.2l-0.3-0.9c6.9-2.5,12.6-8.1,15.3-14.9c2.7-6.8,2.3-14.8-1-21.4l0.9-0.5           c3.5,6.8,3.9,15.1,1.1,22.2C129.6,352.8,123.7,358.6,116.5,361.2z"/></g><g><path fill="#fff" d="M392.1,370.5H289.8c-8.7,0-15.7-7.1-15.7-15.7v-16.9c0-8.7,7.1-15.7,15.7-15.7h102.3        c8.7,0,15.7,7.1,15.7,15.7v16.9C407.8,363.5,400.7,370.5,392.1,370.5z"/></g><g><path fill="#d7d5f8" d="M392.1,371H289.8c-9,0-16.2-7.3-16.2-16.2v-16.9c0-9,7.3-16.2,16.2-16.2h102.3c9,0,16.2,7.3,16.2,16.2        v16.9C408.3,363.7,401,371,392.1,371z M289.8,322.6c-8.4,0-15.2,6.8-15.2,15.2v16.9c0,8.4,6.8,15.2,15.2,15.2h102.3        c8.4,0,15.2-6.8,15.2-15.2v-16.9c0-8.4-6.8-15.2-15.2-15.2H289.8z"/></g><g><path fill="#582d80" d="M303.7,353.9l0-8.8l-4.3,7.2h-1.5l-4.3-7v8.6h-3.2v-14.6h2.8l5.5,9.1l5.4-9.1h2.8l0,14.6H303.7z"/><path fill="#582d80" d="M320,350.8h-6.8l-1.3,3.1h-3.5l6.5-14.6h3.3l6.5,14.6h-3.6L320,350.8z M318.9,348.2l-2.3-5.6l-2.3,5.6          H318.9z"/><path fill="#582d80" d="M328.7,342.1H324v-2.8h12.7v2.8h-4.7v11.9h-3.4V342.1z"/><path fill="#582d80" d="M337.4,346.6c0-7.7,9.9-9.9,14-5l-2.2,2c-1-1.1-2.2-1.7-3.7-1.7c-2.7,0-4.7,1.9-4.7,4.7          c0,2.8,1.9,4.7,4.7,4.7c1.5,0,2.7-0.6,3.7-1.7l2.2,2c-1.5,1.8-3.6,2.6-6,2.6C340.9,354.2,337.4,351.1,337.4,346.6z"/><path fill="#582d80" d="M367.1,339.3v14.6h-3.4v-6H357v6h-3.4v-14.6h3.4v5.8h6.6v-5.8H367.1z"/><path fill="#ff65ab" d="M383.4,357.2C383.4,357.2,383.4,357.2,383.4,357.2C383.4,357.2,383.4,357.2,383.4,357.2         c0.3,0.1,0.4,0.1,0.3,0c1.6-0.6,9.8-6,9.5-14.3c-0.2-5.9-7.9-8-9.8,1c0,0.2-3.1-8.8-8.4-5C366.5,344.8,381,356,383.4,357.2z"/></g><g><path fill="#f1f1fe" d="M423.4,587.7c8.4-13.2,80.2-128.1,59.8-131c-21.7-3.1-52.6,68.4-52.6,68.4s3.1-42.8-16.3-26.4        c-12.4,10.5-9.9,79-9.5,89H423.4z"/><path fill="#f1f1fe" d="M402.4,587.7c-10.5-7-98.1-49.9-80.9-69.2c15.8-17.8,63.7,36.1,63.7,36.1s-15.5-48.6,3.5-35.7        c11.7,7.9,29.7,64.9,32.3,68.8L402.4,587.7z"/><path fill="#d7d5f8" d="M472.3,526.6c-27.3,8.5-47,33.9-59.2,58.7c-0.2,0.5-0.8,1.8-1,2.2c0,0.1-0.1,0.1-0.1,0.2h4.2        c0.5-1.3,1-2.5,1.6-3.7c11.3-23.9,28.9-47.7,54.6-56.9c4-1.3,8.1-2.2,12.2-2.8C480.5,524.6,476.3,525.4,472.3,526.6z"/><path fill="#d7d5f8" d="M466.3,544.2c-20.3,5.9-35,23.6-44.5,41.8c-0.2,0.3-0.6,1.3-0.8,1.6c0,0,0,0,0,0h4.2c0,0,0,0,0-0.1        c5.8-13,14.2-25.2,25.3-34.2c7.1-5.7,15.6-9.7,24.7-10.8C472.3,542.9,469.3,543.4,466.3,544.2z"/><path fill="#d7d5f8" d="M349.5,538.6c27.3,6.8,47,27.2,59.2,47.1c0.2,0.4,0.8,1.4,1,1.8c0,0.1,0.1,0.1,0.1,0.2h-4.2        c-0.5-1-1-2-1.6-3c-11.3-19.2-28.9-38.3-54.6-45.7c-4-1.1-8.1-1.8-12.2-2.3C341.3,537.1,345.5,537.7,349.5,538.6z"/><path fill="#d7d5f8" d="M355.5,552.8c20.3,4.8,35,19,44.5,33.6c0.2,0.3,0.6,1,0.8,1.3c0,0,0,0,0,0h-4.2c0,0,0,0,0-0.1        c-5.8-10.4-14.2-20.2-25.3-27.4c-7.1-4.5-15.6-7.8-24.7-8.7C349.5,551.7,352.5,552.1,355.5,552.8z"/><path fill="#d7d5f8" d="M411.3,587.7h4.3c0.1-1.5,0.1-3,0.1-4.4c-0.2-21.2-2.4-46.5-14.6-63.5c-4.6-6.3-11.3-10.5-18.6-11.5        c7.1,1.4,13.5,5.8,17.7,12.2C412,538.5,412.7,567.2,411.3,587.7z"/></g><g><path fill="#ff65ab" d="M260.9,84.5c-1.8,12.7,12,26,14.2,28.4c0.1,0.1,0.1,0.1,0.1,0.2c0.1,0,0.1,0,0.2,0      c2.8-0.6,22.5-5.9,24.7-20.2c1.7-12-14.1-21.5-19.7-10.6C277.4,69.4,262.2,73.8,260.9,84.5z"/><path fill="#fff" d="M296.3,94c-0.3-0.1-0.4-0.3-0.4-0.6c0.5-2.5-0.2-5.2-1.7-7.2c-1.6-2-4-3.3-6.5-3.4c-0.3,0-0.5-0.2-0.5-0.5      c0-0.3,0.2-0.5,0.5-0.5c2.8,0.1,5.5,1.5,7.3,3.8c1.7,2.2,2.5,5.2,1.9,8C296.9,93.9,296.6,94,296.3,94z"/></g><g><path fill="#ff65ab" d="M551.4,325.3c-1.8,12.7,12,26,14.2,28.4c0.1,0.1,0.1,0.1,0.1,0.2c0.1,0,0.1,0,0.2,0      c2.8-0.6,22.5-5.9,24.7-20.2c1.7-12-14.1-21.5-19.7-10.6C567.9,310.2,552.8,314.7,551.4,325.3z"/><path fill="#fff" d="M586.9,334.8c-0.3-0.1-0.4-0.3-0.4-0.6c1-5.3-2.9-10.3-8.3-10.6c-0.3,0-0.5-0.2-0.5-0.5      c0-0.3,0.2-0.5,0.5-0.5c6,0.3,10.3,5.8,9.2,11.7C587.4,334.7,587.1,334.9,586.9,334.8z"/></g></svg>