<svg xmlns="http://www.w3.org/2000/svg" viewBox="0 0 6000 4000"><path fill="#ecedf2" d="M2802.75 3173.63s67.13-44.48-45.63-147.76-184.29-149.34-192.24-69.9 111.22 220.46 160.47 235 77.4-17.34 77.4-17.34Z"/><path fill="#dbdbdd" d="M2835.63 3314.36c-15.69-82-53.28-152.46-86.91-202.44s-63.36-79.53-63.49-79.66a4 4 0 1 0-5.64 5.67c.78.77 30.23 30.28 63.26 79.59s69.65 118.43 84.91 198.32a4 4 0 0 0 7.86-1.5Z"/><path fill="#ecedf2" d="M2889.28 3018.16s77.78 62 115.94-152.52-23.79-225.61-82.58-203.37-112.4 362.64-33.36 355.89Z"/><path fill="#dbdbdd" d="M2943.69 2806.36a4 4 0 0 0-5.26 2.08c0 .1-27.79 64.16-55.55 156.63s-55.56 213.3-55.57 327.18a610 610 0 0 0 3.18 63.54 4 4 0 0 0 8-.83 604.08 604.08 0 0 1-3.13-62.71c0-112.59 27.59-232.86 55.23-324.88 13.82-46 27.64-85 38-112.43 5.17-13.72 9.49-24.56 12.51-32 1.51-3.7 2.69-6.55 3.5-8.46l.91-2.17c.11-.24.19-.42.24-.55l.07-.17a4 4 0 0 0-2.13-5.23Z"/><path fill="#ecedf2" d="M2989.4 3215.76s-13.76-23 13.49-51 224.56-87.68 267.73-3.06-268.45 137.38-281.22 54.06ZM3011.9 3055.19s-64-145.07 204.48-192.73 199.39 34.95 96.12 111.21-243.08 110.42-300.6 81.52Z"/><path fill="#dbdbdd" d="M3188.4 3161.92q-6.36-.26-12.7-.26c-47.58 0-93.83 11-136.41 27.35-63.89 24.58-119.58 61.35-159.37 92s-63.64 55.12-63.74 55.22a4 4 0 0 0 5.73 5.59l.11-.12c2.45-2.49 45.18-45.62 110.19-88 32.5-21.21 70.57-42.23 111.91-57.92s86-26.07 131.58-26.07q6.18 0 12.36.26a4 4 0 0 0 .34-8Z"/><path fill="#dbdbdd" d="M3224.62 2942.13a4 4 0 0 0-5.12-2.41c-89.1 31.94-160.7 75.79-217.93 123.6a690.94 690.94 0 0 0-171.48 214.95c-32.08 62.67-42.73 107.45-42.79 107.68a4 4 0 1 0 7.79 1.85c.51-2.13 19.84-81 82.77-174.92A679 679 0 0 1 3008 3068.35c56.35-46.82 126.68-89.73 214.18-121.1a4 4 0 0 0 2.44-5.12Z"/><path fill="#ecedf2" d="M2837.74 1299.94S3014 1356 3259 1214.6s686-46.31 652.71 161c-19.38 120.54-9.88 256.52 44.19 367.42 19.45 39.9 46.06 77.22 81.88 104 47.91 39.89 97.82 33.35 153.56 46.93 82.48 27.36 126.89 101.08 141.43 183.48 37.11 177.19-101.16 315.36-276.44 306.2-646.86-100.1-668.81-161.2-1041.77 86.13-248.91 143.68-906.19-27.52-906.19-352.31s-57-512.88 159.83-701.37 324.57-221.08 569.54-116.14Z"/><ellipse cx="3069.66" cy="3440.23" fill="#dbdbdd" rx="1406.12" ry="141.49"/><path fill="#ffb701" d="M2252.24 3412.42c0 23-10.33 27.81-75.46 27.81s-152.51-39.33-190.65-61.36c-26.83-15.48-23-35.77-18.37-46.47a39.6 39.6 0 0 1 4.07-7.32l54-93 103.28 46.21s-14.53 31.61 6.35 57.85c19.4 24.39 103.58 49.42 115.39 71.32a10.39 10.39 0 0 1 1.39 4.96Z"/><path fill="#091558" d="M2252.24 3412.42c0 23-10.33 27.81-75.46 27.81s-152.51-39.33-190.65-61.36c-26.83-15.48-23-35.77-18.37-46.47 8.82 14.09 28.18 35 69.75 50.63 68.85 25.95 128.16 37.61 159.94 37.61 21.46 0 42.21-8 53.41-13.16a10.39 10.39 0 0 1 1.38 4.94Z"/><path fill="#ffb701" d="M2829.76 3403.69H2540.6c-10.24 0-17.07-10.48-21.55-26-12.87-44.66-6.39-131.19-6.39-131.19h102.61s14.41 26.73 30.7 43 142.67 59.41 174.25 77.65a56.36 56.36 0 0 1 7.44 5c20.28 16.45 2.1 31.54 2.1 31.54Z"/><path fill="#091558" d="M2829.76 3403.69H2540.6c-10.24 0-17.07-10.48-21.55-26 19 5 51.09 9.55 103.66 8 107.51-3.18 174.24-6.89 174.24-6.89s15-3.8 30.71-6.6c20.28 16.4 2.1 31.49 2.1 31.49Z"/><path fill="#323f8b" d="M2641 3257.12s-68.7 38.67-132.15 11.53a115.65 115.65 0 0 1-12.2-6.1c-94.22-381.57-95.28-845.49-112.23-998v-209.73l208.58-28.59s57.13 167.67 44.49 516 3.51 714.89 3.51 714.89Z"/><path fill="#182462" d="M2444.9 2712.57c0 103.93 52.38 475.54 63.9 556.08a115.65 115.65 0 0 1-12.2-6.1c-94.22-381.57-95.28-845.49-112.23-998v-12.68c52.82-6.7 92.7 1.35 92.7 102 0 154.94-32.17 241.93-32.17 358.7Z"/><path fill="#323f8b" d="m2531.07 2069.13-42.9 106.44-40.38 263.73c-40.39 263.74-301.58 861.12-301.58 861.12S2058.68 3302 2015 3247a105.81 105.81 0 0 1-14.53-24.43c73.14-205.33 170-656.16 170-872.23s97.75-324.1 97.75-324.1l261.06 42.6Z"/><path fill="#091558" d="M2529.24 2068.83c-10.88 12.05-33.61 25.72-80.73 25.72-84.24 0-160.5 5.91-160.5 5.91s-43.69 10-64.35 101.32-18.26 330.47-71.49 509.21C2108.1 2859 2070 3144.68 2015 3247a105.81 105.81 0 0 1-14.53-24.43c73.14-205.33 170-656.16 170-872.23s97.75-324.1 97.75-324.1Z"/><path fill="#ffb701" d="M3566.62 3351.61c-.14 1.64-.3 3.31-.47 5-4.77 48.27-83.54 57.64-147.75 94.72s-90.67 12-102.71 0c-1.67-1.67-.42-5.48 3-10.82 21-33 124.31-124.27 124.31-124.27l123.18-29.34s4.41 19.96.44 64.71Z"/><path fill="#091558" d="M3566.62 3351.61c-.14 1.64-.3 3.31-.47 5-4.77 48.27-83.54 57.64-147.75 94.72s-90.67 12-102.71 0c-1.67-1.67-.42-5.48 3-10.82 15.28 6.34 44.24 13.72 79.37.23 52.43-20.12 136.69-70.73 157.28-82.62 4.77-2.75 8.46-4.87 11.28-6.51Z"/><path fill="#323f8b" d="M3634.8 2410q-9.27 40.07-21 83.37c-18.86 69.36-31.62 146.36-40 224.56-30.86 287.18-2.88 590.48-2.88 590.48-37.18 24.41-87.32 26.43-141.5 21.45 0 0-107.27-414.14-95.09-679.2 10.1-219.91 48.94-507.43 67.41-635.43 6-41.7 9.88-66.46 9.88-66.46l68.71 7.41 197.83 21.34s19.78 159.07-43.36 432.48Z"/><path fill="#091558" d="M3634.8 2410q-9.27 40.07-21 83.37c-18.86 69.36-31.62 146.36-40 224.56a165 165 0 0 1-8.82-36.29c-6.88-55-33.36-156.09-39.32-294.32s54.72-165.62 54.72-165.62 34.24 107.3 54.42 188.3Z"/><path fill="#ffb701" d="M4023.71 3414.41c-11.91 41.71-198.81 9.53-227-14.89-5.78-5-10-13.36-13.1-23.47-11.94-39.13-6.55-104.62-6.55-104.62s40.5-14.31 97.7-14.31c7.16 26.22 30.81 40.49 71.5 72.69 31.33 24.8 67.43 36.85 76.9 60.14 2.84 6.94 3.3 14.89.55 24.46Z"/><path fill="#323f8b" d="M3861.58 2393.23c11.83-419.43-116.69-483.78-116.69-483.78l-195.42 92.46v150.62l16.68 197.8c16.69 197.81 101.29 692.31 209 936.58 27.85 0 112.76-23.83 112.76-23.83s-38.16-450.41-26.33-869.85Z"/><path fill="#091558" d="M3606.29 2032.58c-53.75 18.64-159.82-5.41-204.55-17.4 6-41.7 9.88-66.46 9.88-66.46l68.71 7.41c30.24 7.65 69.14 14.89 69.14 14.89s125.53 37.73 56.82 61.56Z"/><path fill="#fff" d="M3842.25 3252.22c-1.89-22.49-10.37-125.81-18.38-256s-15.54-287.25-15.54-417.16c0-29.34.38-57.29 1.23-83.23q1-31.22 1-60.32c0-290.11-71.37-423.76-71.66-424.29a4 4 0 1 0-7.05 3.78c.8 1.53 70.7 134 70.7 420.5q0 29-1 60.06c-.85 26-1.24 54.08-1.24 83.49 0 138.89 8.58 308.45 17.17 443.33s17.16 235 17.16 235.06a4 4 0 0 0 8-.68s-.14-1.54-.39-4.54Z"/><path fill="#ff7976" d="M3062.25 1026.36s-49.78-88.44-52.43-101.68 4.64-172.43 17.57-185.36 42.8 20.13 47.57 67.79a439.08 439.08 0 0 1 0 86.85s14.3-1.58 27-20.65 26-9.53 26 5.3-29.13 36.54-29.13 58.25 31.25 72 31.25 72Z"/><path fill="#ff7976" d="M2987.52 748.35c13.16 28.42 28.23 74.19 26.93 133.08-2.27 103.08-22.76 110.51-22.76 110.51l-42.63-24.61s-.67-42.65-19.74-61.72-42.89-78.9-27-73.08 32.42 29.13 36.07 17.48-4.82-96.92 8.42-116 30.84-7.01 40.71 14.34Z"/><path fill="#091558" d="M2620.84 1321.61s55.63 58.84 42.1 114.39-91.43 44.83-100.89 22.24 15.1-97.71 15.1-97.71ZM2447.79 1258.32l-32.17-48.72 7.95-29.13 61.43 47.14-37.21 30.71z"/><path fill="#fff" d="m3560 1449.27-10.62 156.12-3.12 45.88s-305-96.91-395.61-329.67S3049 1019 3049 1019l5.63-1.62 88.11-25.39s120.06 190.82 185.84 284.33c73.09 92.11 231.42 172.95 231.42 172.95Z"/><path fill="#cae2f5" d="m3549.42 1605.39-3.12 45.88s-305-96.91-395.61-329.67S3049 1019 3049 1019l5.63-1.62c19.51 51.36 84 220.49 100.83 255.42 19.86 41.31 89 185.49 208.13 248.24 73.65 38.73 143.33 67.81 185.83 84.35Z"/><path fill="#fff" d="M2608.69 2089.21s-40.81-6.83-203.78-24.76q-13.83-1.53-28.84-3.15c-40.83-4.42-88.4-9.44-143.71-15.13-38.49-123.76-21.23-246.33 6.52-339.39 4.33-14.49 8.89-28.25 13.55-41.2 26.7-74.28 56.17-121.51 56.17-121.51s23-14.84 75.77-22.65c101.85-15.09 275-19.35 329.89 52.11 83.41 108.52-105.57 515.68-105.57 515.68Z"/><path fill="#ffb701" d="M2454.08 1514.08s-36.62 2-2 61.73c26.21 45.28 55.06 136.76 81.42 121.54s35-54.81 35-54.81 58.49 38.06 66.33-8.74-35.75-118.69-88.18-124.49-92.57 4.77-92.57 4.77Z"/><path fill="#cae2f5" d="M2376.07 2061.3c-40.83-4.42-88.4-9.44-143.71-15.13-38.49-123.76-21.23-246.33 6.52-339.39l92.82-15.39s-36.43 59.27-43.24 146.41c-5.74 73.47 46.72 181.2 87.61 223.5Z"/><path fill="#ff7976" d="M2533 1953.43s43.67 25.13 78.09-.29 47.13-19.59 40.78-4.23-32.84 36-32.84 36 23.84 22.33 53.49 17 36.54-17.52 36.54-17.52 35 2.65 9.54 43.95-81 55.4-139.27 21.76-71.51-36.58-71.51-36.58Z"/><path fill="#fff" d="m2548.55 1953.15-6.18 14.19-18.37 42.38-1.39 3.2-5.78 13.31s-522.54 12.19-478.29-217.72q1.47-6.57 3.2-13c47.74-175.9 243.62-249.49 324.44-270 6.71-1.69 12.81-3.06 18.24-4.13l-41.83 179.09s-127.93 95.87-115.26 119.64 95.77 86.51 321.22 133.04ZM3861 1629.91c-7 92.68-26.23 201-40.22 271.72-9.05 45.77-15.91 75.84-15.91 75.84-116.61 58.94-273.41 52-405.53 0 0 0 24.06-359 24.06-380.35s69.89-186.38 69.89-186.38 342.33-40.62 366 92.18c5.78 32.5 5.47 77.52 1.71 126.99Z"/><path fill="#cae2f5" d="M3399.34 1349.41s64.36 47.13 93.76 55.88c19.27 5.74 37.69.8 52.11-.4 17.55-1.46 29.17 0 29.17 0s-38.13 23.69-74.14 21.58-89.53-38.4-100.9-77.06ZM3861 1629.91c-7 92.68-26.23 201-40.22 271.72-12.77-10.37-24.64-28-24.64-57.71 0-64.35-36.94-70.31-26.21-127.24 7.69-40.82 61.33-72.25 91.07-86.77Z"/><path fill="#ff7976" d="M3765.4 1919.65s-6.21 8.07-51.76 17.07-64.64-2.11-64.64 14.28 37.61 13.77 37.61 13.77-35.11 43.45-71.57 41.32-41.5 24.09-27.47 38.12 92.15 31.25 134.52-3.71 74.14-77.85 74.14-77.85Z"/><rect width="578.31" height="349.53" x="2710.4" y="2317.56" fill="#c4c7dd" rx="52.43" transform="rotate(.83 2982.937 2478.096)"/><circle cx="2795.5" cy="2401.2" r="35.75" fill="#ffb701"/><path fill="#fff" d="m2869.89 2366.52-64.06 34.83 62.99 39.04 1.07-73.87z"/><rect width="260.56" height="22.24" x="2911.81" y="2369" fill="#fff" rx="11.12" transform="rotate(.83 3024.93 2366.648)"/><rect width="260.56" height="22.24" x="2911.03" y="2423.02" fill="#ffb701" rx="11.12" transform="rotate(.83 3023.94 2420.501)"/><rect width="71.49" height="22.24" x="2768.77" y="2591.21" fill="#fff" rx="11.12" transform="rotate(.83 2788.363 2587.198)"/><rect width="71.49" height="22.24" x="2866.47" y="2592.62" fill="#fff" rx="11.12" transform="rotate(.83 2885.71 2588.563)"/><rect width="71.49" height="22.24" x="2964.17" y="2594.03" fill="#fff" rx="11.12" transform="rotate(.83 2983.057 2589.93)"/><rect width="71.49" height="22.24" x="3061.87" y="2595.43" fill="#fff" rx="11.12" transform="rotate(.83 3080.404 2591.295)"/><rect width="78.64" height="83.41" x="3160.8" y="2535.74" fill="#323f8b" rx="18.27" transform="rotate(.83 3182.368 2562.943)"/><path fill="#fff" d="M4071 1723.06c7 26.44 8.35 54.66 1.08 80.93-11.08 25.15-40.23 42.17-60.31 60.41-62.66 49.67-141.45 99.09-210.42 137.51l-52.5-86-4-6.47s139.29-116.88 143-139c4.79-35-85.66-103.9-101.65-116.15 2.41-10.19 45.5-191.85 46.73-197 66.48 52.9 127.79 115.45 184.83 179.4 7.96 8.85 50.65 76.66 53.24 86.37ZM3020.42 1346.23c-20.66 141.4-289.68 371.24-289.68 371.24l-.23-.34-134-198.38s211-75.6 260.27-223.36S2941 945.87 2941 945.87l61.75 12.93 6.57 1.37s31.74 244.66 11.1 386.06Z"/><path fill="#cae2f5" d="M3020.42 1346.23c-20.66 141.4-289.68 371.24-289.68 371.24l-.23-.34c18.71-60.43 138.3-186.67 188.24-244.06 55.07-63.29 82.62-132.13 91-256.06 6.91-102-3.23-219.69-7-258.21l6.57 1.37s31.74 244.66 11.1 386.06Z"/><circle cx="3082.71" cy="1621.09" r="245.46" fill="#ff7976"/><circle cx="3082.71" cy="1621.09" r="216.2" fill="#fff"/><path fill="#ff7976" d="M3701.86 1288.49c-31.64 53-28.46 80-28.46 134.78-50.85 15.12-113.36 17.41-113.36 0l.71-2.61 30.57-112.56a74.42 74.42 0 0 1-7.79-.09c-24.41-1.33-94.18-14.08-33-120.44 73.09-127.1 162.6-141.61 184.85-81.24s-.86 127.47-33.52 182.16ZM2579.53 1561.25s17.9 42.9-11.45 59.84-94.16-71.49-94.16-71.49 0-83.41-20.69-174 20.69-168.77 73.81-199.44 97.77 56.44 112.07 161.32-59.58 98-59.58 98Z"/><path fill="#091558" d="M3575.69 1135.72s-31.78-95.32 38.92-85.79c0-60.38 89.77-33.37 112 6.35 44.49-9.53 69.11 72.29 49.25 104.07 19.07 33.36-3.18 105.65-46.87 115.18-51.63 44.49-64.34 46.08-64.34 11.12-33.37-12.71-14.54-40.84 11-55.6s-12.3-26.55-18.19-20.66-9.75 16.43-15 11.16-23.75.18-5.27-18.31 26.64-40.42 14.73-40.42-31.78 19-31.78-4.86c-21.45 7.15-18.16-28.37-26.67-19.86s-17.78-2.38-17.78-2.38ZM2474.67 1443.94c15.89-15.89-11.91-63.55 0-88.17 30.27-17.48 26.22-44.49 33.37-69.12 31.58-18.23 132.91-42.89 132.91-42.89s-3.16-53.56-48-79.44-119.14 2.38-131 54c-84.31 48.67-92.58 227.19-59.56 246.26s45.41 0 45.41 0 10.98-4.75 26.87-20.64Z"/><ellipse cx="2390.73" cy="1177.82" fill="#091558" rx="48.19" ry="43.96"/><path fill="#323f8b" d="m3185.91 1476.58-124.26 202.98-102.2-90.11-26.01 53.01 135.9 97.44 162.64-225.14-46.07-38.18z"/><path fill="#cae2f5" d="M1904.58 1429.9c-80.18-148-73.71-311.89-76.15-352 10.54-3.63 124.3-25 218.86-37.57-15.75 111.84 44.06 321.89 53.21 359.89l-183.8 50.14Z"/><path fill="#fff" d="M1860.88 1126.5c2.86 51.48 14.34 176.38 59.76 267.61a27.29 27.29 0 0 1 31.61 14.21l84.52-23.06a27.25 27.25 0 0 1 19.32-32.72c-12.49-51.39-39.13-168.5-42.53-245.33a27.25 27.25 0 0 1-31.36-25.73c-46.9 7.19-79.52 13-99.2 16.75a27.24 27.24 0 0 1-22.12 28.27Z"/><ellipse cx="1945.96" cy="1149.06" fill="#cae2f5" rx="18.5" ry="24.23"/><ellipse cx="1957.25" cy="1251.54" fill="#cae2f5" rx="34.56" ry="36.94"/><circle cx="1982.82" cy="1340.2" r="18.35" fill="#cae2f5"/><path fill="#323f8b" d="M1761.8 1991.14c3.81-13.21 9.11-23.65 15.44-31.62l-6.27-5c-7.09 8.93-12.81 20.35-16.85 34.38l7.68 2.21ZM1951.29 2144.61a83.47 83.47 0 0 1-15.37 31.48l6.28 5a91.36 91.36 0 0 0 16.84-34.47ZM1948.94 2491.73a350.11 350.11 0 0 0 30.32 21.88l4.32-6.73a343.49 343.49 0 0 1-29.58-21.38ZM1901.78 2434.33l-6.1 5.18q12.51 14.73 25.38 27.36l5.61-5.71q-12.6-12.39-24.89-26.83ZM2048.96 2539.15zM2011.81 2532.05a326.73 326.73 0 0 0 34.45 14.63l2.7-7.53a319.17 319.17 0 0 1-33.61-14.27ZM2041.69 1510.28l3.76 7.07q16.47-8.76 32.48-18l-4-6.92q-15.86 9.18-32.24 17.85ZM1858.93 2374.91l-6.81 4.19q10.1 16.41 20.62 31l6.49-4.67q-10.33-14.36-20.3-30.52ZM1878.37 1597.55l-3.45-7.22q-16.74 8-33.27 16.25l3.59 7.15q16.41-8.22 33.13-16.18ZM1789.45 2244.5q6.32 18 13 34.79l7.42-3q-6.64-16.61-12.92-34.46ZM1839.57 2222.78l-.09-8h-2.38a233.44 233.44 0 0 1-33.87-2.56l-1.17 7.91a240.59 240.59 0 0 0 35 2.65ZM1824.44 2310.1l-7.26 3.34q8 17.43 16.48 33.34l7.06-3.75q-8.34-15.72-16.28-32.93ZM1803 1932.61l2.23 7.69a58.5 58.5 0 0 1 16.3-2.24 74.53 74.53 0 0 1 18.16 2.35l1.94-7.76a82.62 82.62 0 0 0-20.1-2.59 66.7 66.7 0 0 0-18.53 2.55ZM2294.91 1139q-.57 18.91-2.34 36.59l8 .79q1.77-18 2.37-37.14ZM2253.94 1315.51l7.16 3.57A362.48 362.48 0 0 0 2276 1285l-7.49-2.82a354 354 0 0 1-14.57 33.33ZM2261.1 1319.08zM2287.39 1249.52h-.01.01zM1767.45 2173.56q4.59 17.14 10.36 35.68l7.63-2.38q-5.71-18.39-10.26-35.38ZM2294.92 1102.26l8-.24q-.51-18-2-37.14l-8 .64q1.49 18.9 2 36.74ZM2193 2556.62c-10.13.94-21.09 1.52-32.72 1.52h-3.82l-.09 8h3.91c11.9 0 23.1-.59 33.46-1.56l-.74-8ZM2264.33 2542c-.25.09-13.28 5-35.12 9.35l1.57 7.84c22.72-4.54 36.22-9.65 36.38-9.71l-2.83-7.48ZM2084 2549.47l-1.82 7.79a337.05 337.05 0 0 0 36.87 6.46l.94-7.95a327.27 327.27 0 0 1-35.99-6.3ZM2105.26 1473.13l4.36 6.71q15.66-10.2 30.57-21.22l-4.77-6.43q-14.65 10.89-30.16 20.94ZM2164.06 1429.25l5.24 6q14.09-12.19 27.08-25.54l-5.74-5.57q-12.72 13.15-26.58 25.11ZM2242.71 1351.48l-6.74-4.31a349.47 349.47 0 0 1-21.21 29.63l6.26 5a358.86 358.86 0 0 0 21.69-30.32ZM2287.6 1211.81q-3.3 18.51-7.94 35.62l7.72 2.09q4.73-17.48 8.09-36.31ZM1641.37 1766.38l-6.37-4.85a354 354 0 0 0-21 30.79l6.83 4.16a345.72 345.72 0 0 1 20.54-30.1ZM1908.92 2198.59a124.33 124.33 0 0 1-33.53 12.28l1.71 7.82a132.28 132.28 0 0 0 35.69-13.1l-3.87-7ZM1780.4 1648.85q15.75-9.35 32.09-18.11l-3.8-7q-16.44 8.85-32.37 18.26l4.08 6.89ZM1747.92 2026.18q-.59 8.5-.59 17.84t.62 19.64l8-.49q-.62-10-.61-19.15c0-6 .2-11.82.57-17.3ZM1922.12 2006.39a200.9 200.9 0 0 1 16.76 32.12l7.39-3a208.65 208.65 0 0 0-17.42-33.4ZM1766.49 2135.73q-4.11-19.09-6.64-36.13l-7.91 1.18q2.58 17.32 6.73 36.63ZM1872.07 1954.94a156.48 156.48 0 0 1 27.68 23l5.76-5.54a164.16 164.16 0 0 0-29.1-24.2ZM2297 1027.9q-.87-6.89-1.86-13.89l-7.92 1.12q1 7 1.84 13.77ZM1911.81 1581.81q16.79-7.8 33.6-15.59L1942 1559q-16.79 7.8-33.6 15.59l3.37 7.25ZM1979 1550.47q16.79-8 33.38-16.18l-3.56-7.16q-16.49 8.19-33.26 16.12l3.43 7.22ZM1962.3 2108.73a217.29 217.29 0 0 0-4.79-37.33l-7.82 1.7a208.78 208.78 0 0 1 4.61 36ZM1563.18 1969.92a246.2 246.2 0 0 0 3.8 37.35l7.87-1.42a237.94 237.94 0 0 1-3.67-36.13ZM1665.34 2162.14a301.79 301.79 0 0 0 31.22 20.69l4-6.93a293.85 293.85 0 0 1-30.39-20.14ZM1579.24 1897.43l-7.78-1.88a305.42 305.42 0 0 0-6.58 36.89l7.95.9a296.16 296.16 0 0 1 6.41-35.91ZM1691.06 1713l-5.33-6q-13.89 12.42-26.65 26l5.85 5.46q12.47-13.29 26.13-25.46ZM1719.32 1689.68zM1744.8 1661.73q-15.57 10.37-30.33 21.59l4.85 6.36q14.52-11.09 29.91-21.29ZM1612.22 2109.47a265.15 265.15 0 0 0 24.76 28.16l5.63-5.69a255.3 255.3 0 0 1-24-27.31ZM1574.85 2005.85zM1730.08 2199.58a305.39 305.39 0 0 0 35.32 12.57l2.21-7.69a296.27 296.27 0 0 1-34.39-12.24ZM1576.56 2043.6a235.69 235.69 0 0 0 15.26 34.33l7-3.81a228.24 228.24 0 0 1-14.74-33.18ZM1591.63 1835.71q-5.24 12.16-9.45 24l7.54 2.68q4.13-11.58 9.26-23.53 2.25-5.22 4.64-10.3l-7.25-3.4q-2.43 5.2-4.74 10.55Z"/><path fill="#091558" d="M4023.71 3414.41c-11.91 41.71-198.81 9.53-227-14.89-5.78-5-10-13.36-13.1-23.47 15.26 8 44.42 20.45 89.18 28 70.3 11.91 101.29 21.44 125.12 5.16 15-10.26 22.08-16.27 25.25-19.3 2.84 6.98 3.3 14.93.55 24.5Z"/><path fill="none" d="M3878.1 3328.35z"/><path fill="#29346d" d="M3928.35 3304.35a4 4 0 0 0-4.75-3.08c-18.3 3.9-29.83 11-36.94 17.23a63.36 63.36 0 0 0-7.66 8c-.82 1-1.45 1.81-1.79 2.2a4 4 0 0 0 2 7.46 4.4 4.4 0 0 0 2-.47 5.23 5.23 0 0 0 1-.64 9.4 9.4 0 0 0 1.05-1c.54-.62 1-1.28 1.69-2.06a56.13 56.13 0 0 1 4.46-5 56.77 56.77 0 0 1 12.78-9.52 83.63 83.63 0 0 1 23.17-8.35 4 4 0 0 0 2.99-4.77Zm-50.25 24ZM3958.23 3329.81a4 4 0 0 0-4-4 63.83 63.83 0 0 0-18 2.21 30.21 30.21 0 0 0-8.38 3.8 17.85 17.85 0 0 0-6.18 6.8 11 11 0 0 0-1.2 4.05 4 4 0 0 0 8 .63v-.08a5.27 5.27 0 0 1 .74-1.7 9.52 9.52 0 0 1 2-2.2 20.22 20.22 0 0 1 7.44-3.67 56.63 56.63 0 0 1 15.63-1.84 4 4 0 0 0 3.95-4ZM3976.77 3341.92a33.92 33.92 0 0 0-7.06-.81 18.77 18.77 0 0 0-9.83 2.46 15 15 0 0 0-4.48 4.13 17.17 17.17 0 0 0-2.77 6.31 15.64 15.64 0 0 0-.41 3.18 4 4 0 0 0 8 .09v-.1a9.46 9.46 0 0 1 .31-1.85 10 10 0 0 1 .82-2.08 7 7 0 0 1 2.57-2.77 10.64 10.64 0 0 1 5.79-1.37 25.78 25.78 0 0 1 5.37.63 4 4 0 1 0 1.69-7.82ZM3437.51 3346a140.78 140.78 0 0 0-22.35-9.16 42.2 42.2 0 0 0-11.58-2 10.7 10.7 0 0 0-3.83.54 4 4 0 0 0 2.65 7.53 7.47 7.47 0 0 1 1.18-.08 34.47 34.47 0 0 1 9.33 1.72 132.77 132.77 0 0 1 21.05 8.65 4 4 0 0 0 3.55-7.17ZM3406.17 3357a46.13 46.13 0 0 0-15.39-2.71 31.16 31.16 0 0 0-5.74.46 4 4 0 0 0 1.59 7.84 24.55 24.55 0 0 1 4.15-.3 38.31 38.31 0 0 1 12.71 2.25 44.35 44.35 0 0 1 16.6 10.73 4 4 0 0 0 5.66-5.66 52.43 52.43 0 0 0-19.58-12.61ZM3391.49 3382.18a27.59 27.59 0 0 0-12.33-6.25 39 39 0 0 0-8.89-1.07h-1.06a4 4 0 0 0 .43 8h.63a30 30 0 0 1 10.11 1.8 17.65 17.65 0 0 1 5.69 3.41 13.68 13.68 0 0 1 3.81 6 4 4 0 1 0 7.62-2.44 21.75 21.75 0 0 0-6.01-9.45Z"/><path fill="#cae2f5" d="M3069.66 1097.86s61.46-4.24 83.17-20.66c-18.54 24.89-77.51 35.89-77.51 35.89Z"/><path fill="#323f8b" d="M2665.34 1880.06 2619 1984.92a133.21 133.21 0 0 0 13.71 8.87l49.72-110Z"/><path fill="#29346d" d="m2682.41 1883.8-49.72 110c50.94 28.43 76.32-9.4 76.32-9.4l35.18-76.19Z"/><ellipse cx="2690.06" cy="1922.43" fill="#fff" rx="8.51" ry="6.41" transform="rotate(-61.49 2690.172 1922.437)"/><path fill="#ffb701" d="m4255.92 1227.12 8.41 65.45 58.68 30.17-59.65 28.22-10.56 65.14-45.28-48.01-65.21 10.08 31.67-57.89-29.74-58.91 64.85 12.23 46.83-46.48zM2673.96 736.5l8.4 65.45 58.68 30.18-59.64 28.22-10.57 65.13-45.27-48-65.21 10.07 31.66-57.89-29.73-58.9 64.84 12.23 46.84-46.49zM2223.15 874.47l38.57 27.51 44.52-16.18-14.24 45.19 29.15 37.34-47.38.42-26.51 39.26-15.03-44.92-45.54-13.09 38.09-28.18-1.63-47.35z"/><path fill="#cae2f5" d="m3462.57 581.72 6.48 50.46 45.25 23.27-45.99 21.76-8.15 50.22-34.9-37.02-50.28 7.77 24.41-44.63-22.92-45.42 49.99 9.43 36.11-35.84z"/><path fill="#ffb701" d="m1611.82 1475.38 6.48 50.47 45.24 23.26-45.99 21.76-8.14 50.22-34.91-37.01-50.28 7.77 24.42-44.64-22.93-45.41 50 9.42 36.11-35.84z"/><path fill="#cae2f5" d="m2987.99 2100.46 28.83 33.31 43.79-4.87-22.77 37.71 18.16 40.14-42.9-10-32.56 29.68-3.75-43.9-38.29-21.8 40.59-17.12 8.9-43.15z"/><path fill="#ffb701" d="m3205.17 1957.45 21.36 24.69 32.45-3.61-16.87 27.95 13.46 29.74-31.8-7.41-24.13 21.99-2.78-32.53-28.37-16.15 30.08-12.69 6.6-31.98zM2918.43 1928.27l1.28 33.13 28.02 17.73-31.11 11.46-8.2 32.13-20.51-26.05-33.09 2.13 18.43-27.56-12.25-30.82 31.91 9.02 25.52-21.17z"/><path fill="#cae2f5" d="M4002.44 1110.92c-44-30.79-55.09-51.75-65.36-66.18 10-106.69 91.65-265.78 226-274.75 68.87 104.56 78 126.48 96.31 157.92-82.48 42.31-147.39 146.18-166.56 233.37.03 0-72.54-37.86-90.39-50.36Z"/><path fill="#fff" d="M3971.06 1016c11.1-48.77 46.88-164 142.81-203.91a44.13 44.13 0 0 0 53.79 16.81c18.28 28 31.85 49.14 41.64 64.58a44.34 44.34 0 0 0-9.45 58.08c-29.58 24.18-73 67.31-98.05 127.74-23.36-14.8-54.48-5.11-64.88 20.52-25.78-16.63-43.18-31.82-54.21-43a44.18 44.18 0 0 0-11.65-40.82Z"/><ellipse cx="4090.18" cy="955.97" fill="#cae2f5" rx="27.8" ry="31.39"/><circle cx="4143.72" cy="898.93" r="15.09" fill="#cae2f5"/><circle cx="4043.88" cy="1010.73" r="15.09" fill="#cae2f5"/><path fill="#cae2f5" d="M1823.08 2450c22.53 31.33 37.7 39.14 48.16 46.39 76.61-8.13 190.24-68.27 195.49-164.95-75.79-48.57-91.63-54.91-114.39-67.82-29.68 59.67-103.77 107.27-166.28 121.83 0-.02 27.87 51.81 37.02 64.55Z"/><path fill="#fff" d="M1891.59 2471.69c35-8.42 117.49-35.18 145.31-104.5a31.71 31.71 0 0 1-12.57-38.52c-20.3-12.89-35.61-22.45-46.8-29.35a31.86 31.86 0 0 1-41.67 7.31c-17.12 21.49-47.73 53.07-90.95 71.64a31.85 31.85 0 0 1-14.17 46.82c12.19 18.39 23.26 30.76 31.37 38.59a31.74 31.74 0 0 1 29.48 8.01Z"/><ellipse cx="1933.69" cy="2385.51" fill="#cae2f5" rx="22.56" ry="19.99" transform="rotate(-.71 1946.945 2401.6)"/><circle cx="1974.2" cy="2346.52" r="10.85" fill="#cae2f5"/><circle cx="1894.74" cy="2419.29" r="10.85" fill="#cae2f5"/><path fill="#29346d" d="m2651.79 3319.41-13.44-7.76a4 4 0 1 0-4 6.93l13.44 7.76a4 4 0 0 0 4-6.93ZM2694.81 3334.75l-15.39-5.16a4 4 0 0 0-2.54 7.59l15.39 5.16a4 4 0 0 0 2.54-7.59ZM2679.72 3318.79a4 4 0 0 0 2.11-5.23 23.54 23.54 0 0 1-1.38-8 21.57 21.57 0 0 1 1.85-8.81 24.24 24.24 0 0 1 7.73-9.41 4 4 0 1 0-4.87-6.35 32.54 32.54 0 0 0-10.17 12.49 29.61 29.61 0 0 0-2.54 12.08 30.77 30.77 0 0 0 2 11.16 4 4 0 0 0 5.27 2.07ZM2665.47 3306.84l-.1-.09a29.85 29.85 0 0 1-5-5.69 24.92 24.92 0 0 1-2.81-5.36 17.57 17.57 0 0 1 1.36-15.43 4 4 0 0 0-7-3.93 25.59 25.59 0 0 0-1.63 22.81 35.79 35.79 0 0 0 6.29 10.1 33.89 33.89 0 0 0 3.86 3.82 4 4 0 0 0 5-6.23ZM2114.43 3349.49a5.11 5.11 0 0 1-1.29-.46 23.44 23.44 0 0 1-4.17-2.8 73.28 73.28 0 0 1-6.45-6c-.88-.91-1.61-1.7-2.11-2.26l-.58-.64-.15-.17a4 4 0 1 0-6.05 5.24c.06.06 3.1 3.58 7 7.19a51.62 51.62 0 0 0 6.37 5.13 21.92 21.92 0 0 0 3.48 1.91 10.55 10.55 0 0 0 4 .9 4 4 0 1 0 0-8ZM2148.6 3366.72a15.25 15.25 0 0 1-4.55-.91 48.29 48.29 0 0 1-7.62-3.47c-1.06-.6-1.95-1.13-2.57-1.51l-.7-.45-.18-.11a4 4 0 0 0-4.44 6.66 67.2 67.2 0 0 0 6.69 3.82 49.15 49.15 0 0 0 6.33 2.68 22.82 22.82 0 0 0 7.08 1.32 4 4 0 0 0 0-8ZM2178.43 3378.72l-11.12-2.38a4 4 0 1 0-1.68 7.82l11.12 2.39a4 4 0 0 0 1.68-7.83ZM2126.33 3331.3a25.35 25.35 0 0 1 7.64-4.36 80.16 80.16 0 0 1 15.31-4 4 4 0 1 0-1.37-7.88 91.21 91.21 0 0 0-15.37 3.89c-6.17 2.23-10.32 4.87-13 7.9a15.12 15.12 0 0 0-2.94 4.72 13.14 13.14 0 0 0-.86 4.65 14.31 14.31 0 0 0 1.39 6 12.49 12.49 0 0 0 1.5 2.49 4 4 0 0 0 6.29-4.93 6.83 6.83 0 0 1-.64-1.16 6.21 6.21 0 0 1-.54-2.44 5.18 5.18 0 0 1 .65-2.48 9.15 9.15 0 0 1 1.94-2.4ZM2173.88 3340.23a4 4 0 0 0-3.47-4.46 113.3 113.3 0 0 0-13.89-.95 55.84 55.84 0 0 0-13 1.33c-5.11 1.22-8.4 3.18-10.42 5.11a9.82 9.82 0 0 0-2.83 4.33 4 4 0 0 0 7.63 2.33 2.7 2.7 0 0 1 .52-.69 11.52 11.52 0 0 1 4.71-2.67c2.78-1 7-1.75 13.37-1.75a104.21 104.21 0 0 1 12.89.89 4 4 0 0 0 4.49-3.47Z"/><path fill="#cae2f5" d="M3888.05 1751.39c-4.42-9.57-11.92-19.75-20.87-30-13.44-15.33-30.17-30.7-44.76-43.17s-27-22-31.75-25.61l-4.83 6.38a670.09 670.09 0 0 1 54.95 46.57c11.49 11 22.5 22.72 30.52 33.65a92.75 92.75 0 0 1 9.48 15.52c2.22 4.79 3.35 9.1 3.34 12.59a14.73 14.73 0 0 1-.2 2.45 6.38 6.38 0 0 1-.47 1.43 30.8 30.8 0 0 1-3.1 5.27 154.67 154.67 0 0 1-12.48 15c-9.38 10.23-21.94 22.56-35.49 35.26-20.31 19.06-42.84 39-60.28 54.11-8.72 7.57-16.17 13.95-21.44 18.43l-6.15 5.22-1.64 1.38-.56.47-2.63 2.21 5.73 9.4 6.83-4.17-2.15-3.53c8.73-7.38 38-32.24 67.58-59.09 17.68-16 35.49-32.75 49.17-46.94 6.85-7.09 12.67-13.55 17-19a72.62 72.62 0 0 0 5.29-7.55 31 31 0 0 0 1.71-3.32 14.41 14.41 0 0 0 1-3.26 22.56 22.56 0 0 0 .31-3.77c-.04-5.14-1.59-10.45-4.11-15.93Z"/><path fill="#f35757" d="M3604.7 1325.18c-1.33 4.9-24.49 95.48-43.95 95.48l30.57-112.56a74.42 74.42 0 0 1-7.79-.09 52.6 52.6 0 0 0 8.72-2.55c17.75-6.89 13.75 14.83 12.45 19.72ZM2579.53 1435.48v96.17a15.2 15.2 0 0 1-4.75.87c-15.88 0-26.23-86.59-26.23-97s30.98-.04 30.98-.04Z"/><path fill="#29346d" d="m3854.34 1713.62-57.08-47.93a4 4 0 0 0-5.14 6.13l57.08 47.92a4 4 0 1 0 5.14-6.12ZM3439.37 1545.53a4 4 0 0 0-5.22 2.17c0 .06-3.45 8.39-7 19.26-1.78 5.44-3.6 11.52-5.05 17.55a98.59 98.59 0 0 0-2.82 17.34 4 4 0 1 0 8 .41 91.08 91.08 0 0 1 2.6-15.88 248.68 248.68 0 0 1 7.42-24.32c1.2-3.38 2.28-6.22 3.05-8.21l.91-2.31c.1-.26.19-.46.24-.6l.06-.15a4 4 0 0 0-2.19-5.26Z"/><path fill="#cae2f5" d="m2522.56 2012.92-5.78 13.31s-522.54 12.19-478.29-217.72q1.47-6.57 3.2-13c4.39 43.59 21.38 90.35 68.37 117.47 101.25 58.51 354.1 99.2 412.5 99.94Z"/><path fill="#29346d" d="M2319.89 1719.69a4 4 0 0 0-5.57-1s-5.15 3.59-11.49 8.37c-3.17 2.39-6.65 5.08-10 7.8s-6.45 5.46-9 8a4 4 0 0 0 5.66 5.66c2.23-2.24 5.22-4.85 8.4-7.47 4.79-3.93 10-7.89 14.09-10.85 2-1.49 3.74-2.72 4.95-3.58.61-.44 1.09-.77 1.42-1a3.9 3.9 0 0 1 .37-.26l.12-.09a4 4 0 0 0 1.05-5.58Z"/><path fill="#cae2f5" d="M2289.07 1868.37s188.76 79.22 259.48 84.78c-2.8 6.42-20.06.44-20.06.44s-200.23-39.71-239.42-85.22Z"/><path fill="#323f8b" d="M3583.39 1435s-12.85 47.48-17.22 79.26-4.37 50-4.37 50l10.79-3s18.21-110.2 23.77-126.26a125.81 125.81 0 0 1-12.97 0Z"/><path fill="#cae2f5" d="M4275.79 2379.35c-112.2 0-227.21-138.43-232.05-144.32l-10.33-12.57 11.89-11.11c2.78-2.6 68.76-64 125.67-96.86l14.34-8.27 8.93 13.93c53.81 84 138 93 171.64 93 6.87 0 10.93-.41 11-.41l48.92-5.31-33.86 33.83c-2.14 3.44-13.91 24.33-45.72 112.36l-2.15 6-5.48 3.17a123.91 123.91 0 0 1-62.75 16.59Z"/><path fill="#fff" d="M4072 2240.79c40.55 43.71 156.28 154.81 249.54 111.31a21.9 21.9 0 0 1 11.28-12.4c13.9-38.17 23.86-63.17 30.87-79.5a22.1 22.1 0 0 1-18.32-30.69c-39.26-3.71-105.34-20-154.26-83.68a22.07 22.07 0 0 1-29.6-5.1c-33.64 22.08-68.16 51.14-87.86 68.44a22.09 22.09 0 0 1-1.65 31.62Z"/><ellipse cx="4213.46" cy="2258.61" fill="#cae2f5" rx="34.04" ry="30.79" transform="rotate(-54.11 4213.478 2258.619)"/><ellipse cx="4286.09" cy="2290.7" fill="#cae2f5" rx="20.16" ry="12.79" transform="rotate(-54.11 4286.102 2290.7)"/><ellipse cx="4156.08" cy="2213.17" fill="#cae2f5" rx="16.12" ry="14.74" transform="rotate(-45 4156.086 2213.173)"/><path fill="#dbdbdd" d="M4112.7 1703.92c-7.83-23.48-19.52-43.14-29.25-57a195.08 195.08 0 0 0-17.65-22 4 4 0 0 0-5.73 5.58c.27.27 13.7 14.18 27 36.68a205.34 205.34 0 0 1 18.17 39.55 154.62 154.62 0 0 1 8.19 48.56 133 133 0 0 1-6 39.67 4 4 0 1 0 7.63 2.37 140.79 140.79 0 0 0 6.37-42 162.76 162.76 0 0 0-8.73-51.41Z"/></svg>