<svg xmlns="http://www.w3.org/2000/svg" viewBox="0 0 1080 1080"><g data-name="Payment failed"><path fill="#ffc804" d="M124.42 458.5a32.41 32.41 0 1 1 32.41-32.41 32.45 32.45 0 0 1-32.41 32.41Zm0-60.82a28.41 28.41 0 1 0 28.41 28.41 28.44 28.44 0 0 0-28.41-28.41ZM733.58 990.27a2 2 0 0 1-1.41-.58 2 2 0 0 1 0-2.83l52.65-52.65a2 2 0 0 1 2.83 2.83L735 989.69a2 2 0 0 1-1.42.58Z"/><path fill="#ffc804" d="M786.23 990.27a2 2 0 0 1-1.41-.58L732.17 937a2 2 0 0 1 2.83-2.83l52.65 52.65a2 2 0 0 1-1.42 3.41ZM817.64 230.35h-72.43a2 2 0 0 1-1.73-3l36.21-62.73a2 2 0 0 1 3.47 0l36.21 62.73a2 2 0 0 1-1.73 3Zm-69-4h65.51l-32.76-56.73Z"/><path fill="#fff" d="m1029.91 807.88-97.13 120c-7.42-22.72-20.93-70.21-37.17-89.54-27.22-32.41-70.41-51.46-87-81.09-43.76-78.2-42.81-147.16-28.72-155.25 28.39-16.23 68.05 72.57 87.75 79.11V514.78c34.27 19 69.45 51.68 87.75 100.42 15.61 41.56 7.9 62.8 19.61 98.92 10.15 31.26 54.91 93.76 54.91 93.76Z"/><path fill="#ffc804" d="M667.37 369.51h180.27a20 20 0 0 1 20 20v385.58a20 20 0 0 1-20 20H667.37V369.51Z"/><path fill="#e65c39" d="M748.37 369.51h51v425.58h-51z"/><path fill="#59c5d0" d="M545.37 224.16h68a54 54 0 0 1 54 54v610a54 54 0 0 1-54 54h-351a54 54 0 0 1-54-54v-610a54 54 0 0 1 54-54h68"/><path fill="#fff" d="M605.87 577.16h-336a2 2 0 0 1-2-2v-351a2 2 0 1 1 4 0v349h332v-349a2 2 0 1 1 4 0v351a2 2 0 0 1-2 2Z"/><path fill="#fff" d="M291.37 332.16h293v219h-293z"/><circle cx="336.87" cy="645.66" r="27.5" fill="#5e1776"/><circle cx="437.87" cy="645.66" r="27.5" fill="#5e1776"/><circle cx="538.87" cy="645.66" r="27.5" fill="#5e1776"/><circle cx="336.87" cy="719.66" r="27.5" fill="#5e1776"/><circle cx="437.87" cy="719.66" r="27.5" fill="#5e1776"/><circle cx="538.87" cy="719.66" r="27.5" fill="#5e1776"/><circle cx="336.87" cy="793.66" r="27.5" fill="#5e1776"/><circle cx="437.87" cy="793.66" r="27.5" fill="#5e1776"/><circle cx="538.87" cy="793.66" r="27.5" fill="#5e1776"/><circle cx="336.87" cy="867.66" r="27.5" fill="#e65c39"/><circle cx="437.87" cy="867.66" r="27.5" fill="#5e1776"/><circle cx="538.87" cy="867.66" r="27.5" fill="#e65c39"/><path fill="#fff" d="m545.37 71.16-10.76 8-10.76-8-10.75 8-10.75-8-10.75 8-10.75-8-10.75 8-10.75-8-10.75 8-10.75-8-10.75 8-10.75-8-10.75 8-10.75-8-10.75 8-10.74-8-10.75 8-10.75-8-10.74 8-10.75-8v226h215v-226z"/><path fill="#e65c39" d="M330.37 289.16a2 2 0 0 1-2-2v-216a2 2 0 0 1 3.2-1.6l9.55 7.11 9.55-7.11a2 2 0 0 1 2.39 0l9.55 7.11 9.55-7.11a2 2 0 0 1 2.39 0l9.55 7.11 9.55-7.11a2 2 0 0 1 2.39 0l9.56 7.11 9.55-7.11a2 2 0 0 1 2.39 0l9.56 7.11 9.55-7.11a2 2 0 0 1 2.39 0l9.56 7.11 9.55-7.11a2 2 0 0 1 2.39 0l9.56 7.11 9.55-7.11a2 2 0 0 1 2.39 0l9.56 7.11 9.55-7.11a2 2 0 0 1 2.39 0l9.56 7.11 9.56-7.11a2 2 0 0 1 2.39 0l9.56 7.12 9.57-7.12a2 2 0 0 1 3.19 1.61v196a2 2 0 0 1-4 0v-192l-7.56 5.62a2 2 0 0 1-2.39 0l-9.57-7.11-9.55 7.11a2 2 0 0 1-2.39 0l-9.56-7.11-9.56 7.11a2 2 0 0 1-2.39 0l-9.55-7.11-9.56 7.11a2 2 0 0 1-2.38 0l-9.56-7.11-9.56 7.11a2 2 0 0 1-2.38 0l-9.56-7.11-9.56 7.11a2 2 0 0 1-2.39 0l-9.55-7.11-9.56 7.11a2 2 0 0 1-2.38 0l-9.56-7.11-9.56 7.11a2 2 0 0 1-2.38 0l-9.56-7.11-9.55 7.11a2 2 0 0 1-2.39 0l-9.55-7.11-9.55 7.11a2 2 0 0 1-2.39 0l-7.55-5.62v212a2 2 0 0 1-2 1.99Z"/><path fill="#e65c39" d="M424.33 368.23h27.09v146.86h-27.09z" transform="rotate(135 437.87 441.66)"/><path fill="#e65c39" d="M424.33 368.23h27.09v146.86h-27.09z" transform="rotate(45 437.868 441.66)"/><path fill="#e65c39" d="M313.37 288.16h254v17h-254zM362.37 120.16h151v36h-151zM513.37 198.16h-35a2 2 0 0 1 0-4h35a2 2 0 0 1 0 4ZM446.37 198.16h-84a2 2 0 0 1 0-4h84a2 2 0 0 1 0 4ZM446.37 222.16h-84a2 2 0 0 1 0-4h84a2 2 0 0 1 0 4ZM513.37 222.16h-35a2 2 0 0 1 0-4h35a2 2 0 0 1 0 4ZM446.37 246.16h-84a2 2 0 0 1 0-4h84a2 2 0 0 1 0 4ZM513.37 246.16h-35a2 2 0 0 1 0-4h35a2 2 0 0 1 0 4ZM446.37 270.16h-84a2 2 0 0 1 0-4h84a2 2 0 0 1 0 4ZM513.37 270.16h-35a2 2 0 0 1 0-4h35a2 2 0 0 1 0 4Z"/><path fill="#5e1776" d="M1029.92 809.88a2 2 0 0 1-1.63-.83c-1.84-2.57-45.07-63.12-55.18-94.31-5.43-16.74-6.78-30.62-8.08-44-1.55-16-3.15-32.5-11.51-54.79-21.16-56.38-63.5-86.47-86.85-99.38a2 2 0 0 1 1.94-3.5c23.83 13.18 67 43.89 88.65 101.47 8.55 22.79 10.18 39.58 11.75 55.82 1.34 13.81 2.61 26.86 7.9 43.19 9.93 30.6 54.18 92.59 54.63 93.21a2 2 0 0 1-1.62 3.16Z"/><path fill="#fff" d="M867.64 681.15c-19.7-6.54-59.36-95.34-87.75-79.11-14.09 8.05-15 77 28.72 155.16 16.59 29.63 59.78 48.68 87 81.09 16.24 19.33 29.75 66.82 37.17 89.54"/><path fill="#5e1776" d="M932.78 929.83a2 2 0 0 1-1.9-1.38c-1-3-2-6.35-3.21-10-7.85-24.82-19.72-62.32-33.59-78.83-12.18-14.51-27.6-26.31-42.52-37.72-18.21-13.94-35.41-27.1-44.7-43.68-43.33-77.4-44-148.69-28-157.87 19.19-11 41.42 19.8 61 47 11 15.28 21.47 29.71 28.33 32A2 2 0 1 1 867 683c-8.08-2.68-18.38-16.93-30.31-33.44-17.71-24.51-39.76-55-55.81-45.82-5.78 3.3-9.82 21.3-6.35 49.31 4 32.44 16.74 69.07 35.81 103.13 8.88 15.86 25.77 28.78 43.64 42.46 15.09 11.55 30.69 23.48 43.15 38.32 14.38 17.12 26.39 55.08 34.34 80.2 1.17 3.68 2.23 7 3.2 10a2 2 0 0 1-1.28 2.52 2 2 0 0 1-.61.15Z"/><path fill="#fff" d="M681.72 709.72h59.3v12h-59.3z" transform="rotate(-90 711.375 715.715)"/><path fill="#fff" d="M681.72 620.77h59.3v12h-59.3z" transform="rotate(-90 711.37 626.77)"/><path fill="#fff" d="M681.72 531.83h59.3v12h-59.3z" transform="rotate(-90 711.375 537.825)"/><path fill="#fff" d="M681.72 442.88h59.3v12h-59.3z" transform="rotate(-90 711.37 448.88)"/><path fill="#e65c39" d="M287.55 1008.84H70.79a20.67 20.67 0 0 1-17.9-31l108.37-187.73a20.68 20.68 0 0 1 35.81 0l108.39 187.72a20.67 20.67 0 0 1-17.91 31.01Z"/><path fill="#fff" d="M287.55 998.13H70.79a10 10 0 0 1-8.63-15l108.38-187.66a10 10 0 0 1 17.25 0l108.39 187.71a10 10 0 0 1-8.63 14.95ZM174.82 797.94 66.44 985.65a5 5 0 0 0 4.35 7.53h216.76a5 5 0 0 0 4.35-7.53L183.51 797.93a5 5 0 0 0-8.69.01Z"/><path fill="#fff" d="M179.17 943.71a7.34 7.34 0 0 1-7.33-7l-4.17-79A7.35 7.35 0 0 1 175 850h8.34a7.34 7.34 0 0 1 7.33 7.73l-4.17 79a7.33 7.33 0 0 1-7.33 6.98Z"/><circle cx="179.17" cy="964.05" r="8.89" fill="#fff"/><path fill="#e65c39" d="M908.85 466.83a83 83 0 1 1 53.78-146.21 2 2 0 0 1-2.59 3 79 79 0 1 0 13.75 15.18 2 2 0 1 1 3.28-2.28 83 83 0 0 1-68.22 130.27Z"/><path fill="#e65c39" d="M908.85 377.83a12.6 12.6 0 1 1 12.6-12.6h12a24.64 24.64 0 0 0-18.6-23.86v-7.54h-12v7.54a24.6 24.6 0 0 0 6 48.46 12.6 12.6 0 1 1-12.6 12.6h-12a24.64 24.64 0 0 0 18.6 23.85v7.55h12v-7.55a24.6 24.6 0 0 0-6-48.45Z"/></g></svg>