<svg xmlns="http://www.w3.org/2000/svg" enable-background="new 0 0 3000 3000" viewBox="0 0 3000 3000"><path fill="#0e4275" d="M399.93,1475.88l-113.96-128.35l-23.93,4.48l27.09,144.62l-73.35,13.74l-68.01-363.1l133.69-25.04
			c28.09-5.26,52.95-4.8,74.57,1.38c21.62,6.19,38.91,16.59,51.88,31.21c12.97,14.63,21.34,31.99,25.1,52.1
			c4.29,22.89,1.34,45.52-8.83,67.89c-10.17,22.36-29.49,39.98-57.94,52.85l120.56,131.95L399.93,1475.88z M251.52,1295.83
			l60.34-11.3c18.38-3.44,31.53-10.83,39.46-22.19c7.92-11.35,10.36-25.18,7.3-41.49c-3.05-16.3-10.33-28.3-21.82-36.02
			c-11.5-7.72-26.44-9.86-44.82-6.42l-60.34,11.3L251.52,1295.83z"/><path fill="#f7c19b" d="M209.62,1518.61l12.31,6.38l3.59-4.76c0,0,17.23-12.18,2.94-22.95c-5.56-4.19-13.41,0.84-11.83,7.63
						c0.02,0.09,0.05,0.19,0.07,0.29c0.06,0.23-0.25,0.37-0.38,0.17l-3.14-4.86c-0.53-0.83-1.63-1.08-2.47-0.57l0,0
						c-0.77,0.47-1.09,1.43-0.74,2.26l2.34,5.63c0.52,1.26,0.54,2.67,0.03,3.94L209.62,1518.61z"/><path fill="#f7c19b" d="M57.71,1652.57l-13.04-4.7l-2.93,5.19c0,0-15.47,14.35,0.11,23.14c6.07,3.42,13.19-2.61,10.72-9.13
						c-0.03-0.09-0.07-0.18-0.11-0.28c-0.09-0.22,0.2-0.4,0.36-0.22l3.75,4.4c0.64,0.75,1.76,0.86,2.53,0.24l0,0
						c0.71-0.56,0.89-1.56,0.44-2.34l-3.07-5.27c-0.69-1.18-0.88-2.58-0.55-3.9L57.71,1652.57z"/><polygon fill="#fb6107" points="73.48 1580.59 41.38 1651.27 57.75 1657.47 88.11 1608.55"/><path fill="#fb6107" d="M104.69,1673.79l25.01-19.24c0,0,7.63-48.21,23.79-75.91l24.35,0.7c7.03,0.2,13.68-3.21,17.62-9.04
							l28.64-46.34l-15.31-8.97l-27.88,40.9l-27.92-9.42c-1.21-1.21-2.61-2.2-4.17-2.92c-8.96-4.17-40.07-16.21-58.37,7.5
							c-19.23,24.41-25.49,45.11-26.93,91.18l0,0L104.69,1673.79z"/><rect width="19.72" height="14.89" x="34.65" y="1846.34" fill="#f7c19b" transform="rotate(-69.218 44.512 1853.862)"/><path fill="#37424c" d="M33.05,1857.22l-6.97,8.37c-0.58,0.7-0.94,1.5-1.04,2.33l0,0c-0.25,2.09,1.16,4.08,3.56,5.01l23.94,9.28
						c2.05,0.79,4.3,1.23,6.59,1.27l0,0c2.52,0.05,4.63-1.51,4.72-3.47l0,0c0.03-0.8-0.28-1.58-0.88-2.22l-12.36-16.12
						c-0.3-0.39-0.74-0.69-1.26-0.87l-12.76-4.4C35.31,1855.95,33.81,1856.3,33.05,1857.22z"/><rect width="14.89" height="19.72" x="131.51" y="1850.35" fill="#f7c19b" transform="translate(-10.966 .852)"/><path fill="#37424c" d="M129.48,1867.77l-3.49,10.32c-0.29,0.86-0.34,1.74-0.13,2.55l0,0c0.52,2.04,2.55,3.39,5.12,3.39
						l25.68,0.03c2.2,0,4.45-0.4,6.61-1.19l0,0c2.37-0.87,3.78-3.08,3.15-4.94l0,0c-0.26-0.76-0.83-1.38-1.63-1.75l-17.34-10.59
						c-0.41-0.25-0.94-0.38-1.49-0.36l-13.49,0.49C131.13,1865.77,129.86,1866.64,129.48,1867.77z"/><path fill="#334d5e" d="M55.13,1854.03l39.16-78.68l6.44-65.37l19.33,58.45l8.46,87.46h21.16l-4.23-97.85l-15.77-103.49
						c0,0-41.16,7.69-66.17-12.31l2.31,126.95l-29.24,76.94L55.13,1854.03z"/><path fill="#f7c19b" d="M136.08,1533.89c-0.43-0.03-0.74,0.41-0.56,0.81l3.18,7.2c0.17,0.37,0.31,0.66,0.14,0.95
							c-0.47,0.75-1,1.36-1.59,1.86c-2.55,2.16-6.06,2.11-9.12,1.42c-3.15-0.7-5.8-2.09-6.42-2.49c-0.11-0.07-0.17-0.18-0.19-0.31
							l-1.1-11.81c-0.02-0.18-0.13-0.35-0.29-0.44c-7.72-4.52-7.87-15.23-7.87-15.23c1.04-23.51,18.4-21.07,26.81-18.48
							c2.81,0.86,5,3.09,5.83,5.91C153.68,1533.17,139.93,1534.17,136.08,1533.89z"/><path fill="#29354e" d="M123.12,1515.64l1.68,6.99c0.19,0.81,1.15,1.16,1.82,0.67l0,0c0.34-0.25,0.52-0.67,0.47-1.09l-0.66-5.28
							c-0.15-1.17,0.35-2.31,1.29-3.02c1.78-1.36,4.36-4.07,3.4-7.9c-0.21-0.83,0.33-1.66,1.18-1.79c2.92-0.46,8.71-1.7,10.81-4.46
							c0.39-0.51,0.82-0.98,1.29-1.41c1.32-1.2,3.55-3.9,1.7-7.17c-0.31-0.54-0.93-0.82-1.54-0.67l-5.1,1.22
							c-0.35,0.08-0.72-0.11-0.84-0.45l-1.53-4.25c-0.17-0.46-0.73-0.62-1.12-0.32l-5.07,4c-1.1,0.87-2.6,1.04-3.87,0.46
							c-2.65-1.22-7.84-2.54-14.15,1.34c-5.61,3.46-7.85,10.35-8.74,15.21c-0.59,3.19,0.29,6.47,2.35,8.98l4.84,5.86
							c0.18,0.22,0.34,0.45,0.49,0.69c1.1,1.82,5.12,10.26,8.43,8.07c0.09-0.06,0.13-0.17,0.1-0.28l0.14-4.62
							c-0.25-1.03-0.79-1.96-1.56-2.69c-2.08-1.95-5.9-6.27-2.11-8.8c1.26-0.84,2.83-1.13,4.31-0.78
							C122.03,1514.35,122.91,1514.78,123.12,1515.64z"/><path fill="#0e4275" d="M576.81,1194.09l8.23,96.5l122.34-10.43l4.86,56.95l-122.34,10.43l8.68,101.78l138.16-11.78l4.86,56.95
			l-212.51,18.12l-31.48-369.13l212.51-18.12l4.86,56.95L576.81,1194.09z"/><path fill="#f7c19b" d="M523.93,1516.79l0.33-0.41c1.39-1.72,2.16-3.85,2.18-6.06l0.09-8.93c0.01-0.78,0.58-1.45,1.36-1.57l0,0
					c0.87-0.13,1.68,0.46,1.82,1.32l1.12,6.79c0.05,0.32,0.5,0.34,0.58,0.03c0.97-3.6,4.12-12.58,10.93-10.39
					c8.47,2.72,6.11,10.78,1.45,16.54s-9.46,10.58-9.46,10.58L523.93,1516.79z"/><rect width="11.05" height="13.35" x="409.54" y="1853.05" fill="#f7c19b"/><rect width="10.77" height="13.28" x="467.41" y="1853.08" fill="#f7c19b"/><path fill="#37424c" d="M467.26,1862.76c2.1,0.85,6.54,2.1,10.98-0.21c0.4-0.21,0.93-0.16,1.26,0.11l13.96,11.72
					c1.26,1.05,2.36,2.22,3.3,3.47l0,0c0.44,0.59,0.47,1.33,0.06,1.94l0,0c-0.42,0.63-1.24,1.03-2.14,1.03h-28.36
					c-0.87,0-1.7-0.34-2.21-0.91l0,0c-0.4-0.45-0.58-1-0.5-1.54l2.21-14.98C465.92,1862.83,466.65,1862.51,467.26,1862.76z"/><path fill="#37424c" d="M418.9,1691.68h57.41l4.72,164.96c0,1.14-0.92,2.06-2.06,2.06h-13.11c-1.06,0-1.94-0.8-2.05-1.85
					l-10.63-114.43c-0.18-1.7-1.61-3-3.33-3l0,0c-1.59,0-2.96,1.12-3.28,2.67l-22.61,114.94c-0.2,0.96-1.05,1.66-2.03,1.66H408.3
					c-1.22,0-2.17-1.05-2.06-2.26L418.9,1691.68z"/><path fill="#bf6f31" d="M419.07,1692.71c8.08,2.89,33.29,10.2,59.99,0.47c1.62-0.59,2.7-2.12,2.7-3.84v-89.38
					c0-1.57-0.21-3.13-0.62-4.64l-0.17-0.64c-1.03-3.79-0.77-7.81,0.74-11.43l54.11-57.39c0.38-0.92-0.06-1.96-0.98-2.33
					l-10.01-9.69c-0.83-0.33-1.78,0.01-2.21,0.79l-52.56,43.61c-1.15,2.09-6.35,5.16-8.74,5.16l-21.15-1.72
					c-0.34,0-0.66,0.13-0.9,0.37l-20.09,19.85c-2.98,3.06-5.21,6.76-6.52,10.83l-14.55,45.33c-0.46,1.42-0.69,2.9-0.69,4.4v2.06
					c0,8.77,7.79,15.57,16.46,14.24c0.72-0.11,1.47-0.24,2.25-0.4l0.25,30.57C416.39,1690.62,417.46,1692.14,419.07,1692.71z"/><path fill="#f7c19b" d="M439.81,1562.37c1.71,1.52,7.13,5.34,13.9-0.15c0.3-0.24,0.47-0.6,0.47-0.99v-4.69
					c0-0.86,0.71-1.53,1.57-1.54c2.65-0.03,7.8-2.97,8.43-24.88c0.09-3.21-1.07-6.34-3.27-8.68c-5.84-6.2-18.25-15.17-28.29,6.11
					c0,0-3.98,11.56,3.45,18.16c2.09,1.85,3.32,4.48,3.29,7.27l-0.11,8.12C439.25,1561.59,439.45,1562.05,439.81,1562.37z"/><path fill="#f7c19b" d="M461.72,1619.11l0.72-0.36c0.72-0.36,1.26-1,1.49-1.77l1.68-5.55c0.21-0.68,0.97-1.01,1.61-0.69l0,0
					c0.45,0.23,0.7,0.72,0.62,1.22l-0.65,3.74c-0.05,0.28,0.3,0.44,0.49,0.23c1.38-1.66,4.63-4.95,7.78-3.44
					c4.14,1.98,5.43,10.99,2.16,13.15c-2.73,1.8-7.17,2.61-8.57,2.84c-0.3,0.05-0.6,0.12-0.89,0.23l-1.71,0.64L461.72,1619.11z"/><polyline fill="#bf6f31" points="408.62 1638.53 461.3 1618.62 466.67 1630.29 416.12 1658.34"/><path fill="#b26028" d="M416.12,1658.51c-0.06,0-0.12-0.03-0.15-0.09c-0.05-0.08-0.02-0.18,0.07-0.23l50.42-27.98l-5.24-11.38
						l-52.54,19.85c-0.09,0.03-0.18-0.01-0.22-0.1c-0.03-0.09,0.01-0.18,0.1-0.22l52.68-19.91c0.08-0.03,0.18,0.01,0.21,0.09
						l5.37,11.67c0.04,0.08,0.01,0.18-0.07,0.22l-50.55,28.05C416.17,1658.51,416.15,1658.51,416.12,1658.51z"/><path fill="#37424c" d="M439.3,1557.42h-2.67c-2.98,0-5.83-1.25-7.85-3.44l0,0c-1.91-2.07-2.97-4.79-2.97-7.61v-3.83
					c0-0.99,0.13-1.97,0.39-2.92l3.5-13c0.47-1.75-0.61-3.53-2.37-3.96c-4.11-0.98-11.58-4.73-6.2-12.6
					c4.82-7.04,10.9-2.52,13.58,1.22c0.75,1.05,2.17,1.36,3.3,0.75l0,0c2.53-1.37,5.37-2.09,8.25-2.09h7.11
					c3.61,0,6.97,1.93,8.69,5.09c1.4,2.57,2.41,6.02,1.51,10.09c-0.05,0.23-0.31,0.35-0.53,0.25l-9.37-4.64
					c-0.58-0.27-1.26,0.07-1.39,0.7c-0.67,3.29-2.93,12.34-8.26,17.22c-0.89,0.81-2.31,0.57-2.89-0.48
					c-0.68-1.23-1.72-2.75-3.04-3.69c-2.78-1.98-6.28,1.28-4.5,4.19c0.59,0.96,1.53,2.08,2.99,3.36c1.56,1.37,2.52,3.31,2.62,5.39
					L439.3,1557.42z"/><path fill="#37424c" d="M409.83,1863.98c1.71,1.04,5.61,2.66,10.55-0.05c0.5-0.27,1.12,0.03,1.21,0.59l2.56,15.35
					c0.01,0.08,0.02,0.16,0.02,0.24v2.51c0,0.8-0.65,1.45-1.45,1.45H405.9c-0.8,0-1.45-0.65-1.45-1.45v-2.25
					c0-0.12,0.02-0.25,0.05-0.37l4.09-15.52C408.73,1863.93,409.35,1863.69,409.83,1863.98z"/><g><path fill="#0e4275" d="M979.62,1168.03l46.36,255.16c4.23,23.26,3,44.19-3.66,62.79c-6.66,18.61-17.7,33.88-33.09,45.82
			c-15.41,11.94-34.04,19.9-55.91,23.87s-42.2,3.1-60.99-2.63c-18.8-5.73-34.59-16.13-47.36-31.21
			c-12.78-15.06-21.28-34.23-25.51-57.49l73.42-13.34c3.06,14.86,8.8,25.75,17.23,32.64c8.42,6.9,18.89,9.21,31.38,6.94
			s21.56-8.13,27.19-17.59c5.63-9.44,7.1-21.64,4.38-36.56l-46.36-255.16L979.62,1168.03z"/><path fill="#f7c19b" d="M820.71,1533.39l7.94,3.9l2.22-3.09c0,0,10.82-8.02,1.55-14.68c-3.61-2.59-8.55,0.73-7.44,5.04
					c0.02,0.06,0.03,0.12,0.05,0.18c0.04,0.15-0.16,0.24-0.24,0.11l-2.07-3.06c-0.35-0.52-1.05-0.67-1.59-0.33l0,0
					c-0.49,0.31-0.68,0.93-0.44,1.45l1.58,3.56c0.35,0.8,0.38,1.7,0.08,2.51L820.71,1533.39z"/><polygon fill="#f7c19b" points="727.24 1850.47 724.99 1870.57 710.81 1869.09 712.73 1849.75"/><path fill="#37424c" d="M706.77,1882.05c0.05,1.12,0.97,2,2.09,2l32.44-0.01c2.52,0,4.56-2.04,4.56-4.56l0,0
						c0-0.44-0.46-1.4-0.8-1.68l-17.79-13.77c-0.62-0.5-1.42-0.28-2.06,0.2c-3.97,2.96-9.53,3.01-15.15,2.72
						c-0.56-0.03-1.08,0.28-1.33,0.78C706.13,1872.91,706.58,1877.7,706.77,1882.05z"/><polygon fill="#f7c19b" points="783.92 1848.42 784.35 1870.85 770.17 1871.05 769.5 1849.5"/><path fill="#37424c" d="M765.81,1882.05c0.05,1.12,0.97,2,2.09,2l32.44-0.01c2.52,0,4.56-2.04,4.56-4.56l0,0
						c0-0.44-0.46-1.4-0.8-1.68l-17.79-13.77c-0.62-0.5-1.42-0.28-2.06,0.2c-4,2.99-9.62,3.01-15.28,2.71
						c-0.47-0.02-0.91,0.23-1.13,0.65C765.16,1872.83,765.62,1877.67,765.81,1882.05z"/><path fill="#f7c19b" d="M827.72,1621.71l2.36,8.53l3.78-0.39c0,0,13.18,2.77,12.01-8.58c-0.45-4.42-6.22-5.91-8.71-2.22
						c-0.04,0.05-0.07,0.1-0.1,0.16c-0.08,0.13-0.28,0.04-0.25-0.11l0.91-3.58c0.15-0.61-0.2-1.23-0.81-1.4l0,0
						c-0.55-0.16-1.14,0.11-1.38,0.63l-1.62,3.54c-0.36,0.79-1.02,1.41-1.83,1.73L827.72,1621.71z"/><path fill="#f7c19b" d="M767.45,1556.41c-0.44,0.07-0.65,0.58-0.38,0.94l4.82,6.49c0.26,0.33,0.46,0.59,0.36,0.92
						c-0.3,0.86-0.69,1.59-1.17,2.22c-2.06,2.74-5.59,3.49-8.81,3.49c-3.31,0.01-6.28-0.77-6.99-1.04
						c-0.13-0.04-0.22-0.14-0.26-0.27l-3.79-11.58c-0.06-0.18-0.21-0.32-0.39-0.37c-8.76-2.78-11.35-13.47-11.35-13.47
						c-4.31-23.79,13.64-25.29,22.66-24.62c3.01,0.23,5.71,1.96,7.18,4.6C784.92,1551.69,771.37,1555.81,767.45,1556.41z"/><path fill="#29354e" d="M750.32,1541.08l3.27,6.62c0.38,0.77,1.42,0.9,1.98,0.26l0,0c0.28-0.33,0.37-0.79,0.22-1.19l-1.86-5.14
						c-0.41-1.14-0.17-2.4,0.6-3.32c1.48-1.77,3.44-5.07,1.61-8.69c-0.39-0.78-0.04-1.74,0.77-2.06c2.82-1.13,8.34-3.69,9.82-6.93
						c0.27-0.6,0.6-1.17,0.97-1.71c1.05-1.51,2.67-4.71,0.07-7.57c-0.43-0.47-1.12-0.61-1.7-0.32l-4.83,2.38
						c-0.34,0.17-0.74,0.05-0.94-0.26l-2.5-3.91c-0.27-0.42-0.88-0.46-1.19-0.07l-4.17,5.16c-0.91,1.12-2.36,1.64-3.78,1.34
						c-2.93-0.62-8.44-0.76-13.87,4.56c-4.83,4.74-5.51,12.15-5.3,17.23c0.14,3.33,1.76,6.42,4.4,8.46l6.18,4.77
						c0.23,0.18,0.44,0.37,0.64,0.58c1.51,1.57,7.46,9.12,10.28,6.17c0.08-0.08,0.09-0.2,0.04-0.3l-0.91-4.66
						c-0.48-0.98-1.23-1.79-2.17-2.34c-2.53-1.48-7.33-4.94-4.12-8.33c1.07-1.13,2.58-1.78,4.14-1.77
						C748.93,1540.03,749.91,1540.26,750.32,1541.08z"/><polygon fill="#48495b" points="784.94 1666.63 786.84 1854.95 765.75 1854.95 755.97 1713.03 728.23 1854.95 709.59 1854.95 718.56 1674.74 755.97 1657.08"/><path fill="#2b91cc" d="M718.78,1654.48l4.92-23.33c0,0-10.04-48.45,28.29-68.97c0.19-0.1,0.45-0.18,0.64-0.27
						c0.03,0.03,0.07,0.07,0.1,0.1c1.83,1.87,3.51,3.14,5.36,3.75c2.84,1.03,5.78,0.52,9.06-1.75c0.99-0.62,2.02-1.46,3.08-2.44
						l28.36,3.48l20.64-33.4l13.08,3.92l-17.05,40.8c-2.22,5.3-7.55,8.61-13.28,8.24l-11.01-0.69l-3.88,23.4
						c7.63,8.67,13.38,15.77,13.38,15.77l28.83-3.14l2.39,12.07l-29.23,6.17c-7.01,0.79-13.99-1.73-18.88-6.81l-0.4-0.42l-0.72,4.39
						l2.49,31.3l0,0c-13.42,5.39-27.38,9.33-41.63,11.76l-25.41,4.33c-1.69,0.29-3.2-1.11-3.03-2.81
						C715.7,1671.37,717.01,1662.88,718.78,1654.48z"/></g><g><path fill="#0e4275" d="M1160.69,1189.75l6.19,96.65l122.53-7.85l3.66,57.04l-122.53,7.85l6.53,101.94l138.38-8.87l3.66,57.04
			l-212.85,13.64l-23.7-369.71l212.85-13.64l3.66,57.04L1160.69,1189.75z"/><path fill="#f7c19b" d="M1116.1,1514.32l-8.79,0.96l-1.04-3.66c0,0-7.44-11.23,3.55-14.33c4.28-1.21,7.78,3.6,5.28,7.27
						c-0.03,0.05-0.07,0.1-0.11,0.16c-0.09,0.13,0.06,0.28,0.19,0.19l2.99-2.17c0.51-0.37,1.22-0.27,1.6,0.23l0,0
						c0.35,0.46,0.32,1.1-0.08,1.52l-2.7,2.81c-0.6,0.63-0.94,1.47-0.93,2.34L1116.1,1514.32z"/><path fill="#f7c19b" d="M1103.55,1635.97l1.61,8.7l-3.57,1.31c0,0-10.64,8.26-14.56-2.46c-1.53-4.18,3.01-8.03,6.85-5.81
						c0.05,0.03,0.11,0.06,0.16,0.1c0.13,0.08,0.27-0.09,0.18-0.2l-2.38-2.82c-0.41-0.48-0.36-1.19,0.11-1.62l0,0
						c0.43-0.39,1.07-0.4,1.52-0.03l3,2.48c0.67,0.55,1.53,0.82,2.4,0.75L1103.55,1635.97z"/><path fill="#37424c" d="M1139.52,1553.36c0,0-13.95,3.52-7.89,19.13l25.97,18.15l19.16,14.46l11.04,1.95
							c0,0,23.02-0.24,12.97-18.83c0,0,3.71-13.46-10.06-18.57c0,0-1.69-7.2-11.63-8.14"/><path fill="#f7c19b" d="M1153.06,1558.96c-0.58,1.83-1.15,6.87-2.44,8.61c-0.67,0.9-0.54,2.17,0.3,2.92
							c2.27,2.03,3.96,4.45,10.68,4.23c1.16-0.04,2.09-0.94,2.14-2.1c0.17-4.01,3.43-14.95,5.55-17.75c0,0,17.86-28.35-10.36-27.5
							c-0.5,0.02-1.3,0.16-1.77,0.32l-2.59,0.84c-2.2,0.71-3.98,2.36-4.85,4.51c-2.6,6.45-6.89,19.99,1.68,22.73
							C1152.73,1556.2,1153.48,1557.61,1153.06,1558.96z"/><path fill="#37424c" d="M1153.18,1558.55l0.29-1.1c0.16-0.61-0.26-1.16-0.87-1.3c-1.9-0.46-6.04-1.95-6.15-8.88
							c-0.14-8.32,5.44-15.68,13.27-18.5l0.45-0.16c0.3-0.11,0.67,0.04,0.76,0.34c0.44,1.52-2.63,5.38-1,8.96
							c1.92,4.23,2.67,8.9,1.26,13.33l-0.22,0.68c-0.62,1.95-0.79,3.97-0.43,5.95c0.71,4.02-1.78,15.96,5.62,16.81
							c2.33,0.27,12.89-7.34,12.67-9.68l0,0c-0.15-1.5,0.01-3.02,0.47-4.45l5.47-17.19c0.38-1.21,0.63-2.44,0.7-3.71
							c0.37-6.49-0.74-25.16-25.89-23.46c0,0-8.66,1.06-11.54,10.11l-4.36,13.69c-0.17,0.53-0.29,1.07-0.36,1.63
							c-0.24,1.95-1.09,7.27-3.63,11.18c-0.11,0.17-0.18,0.37-0.18,0.58l0,0"/><path fill="#f7c19b" d="M1120.12,1762.61l-8.03,108.2h15.01c-2.75-20.51,9.47-62.05,20.24-101.57L1120.12,1762.61z"/><path fill="#f7c19b" d="M1152.93,1768.89l21.93,101.63l12.27-6.69l-1.15-5.33c-3.18-14.8-4.97-29.86-5.33-45l-1.21-50.89
								L1152.93,1768.89z"/><path fill="#fa5669" d="M1180.39,1617.3l-6.28,5.35c-1.16,22.57,7.68,34.9,7.68,34.9l-19.08,13.73l-36.65-15.12
									c6.26-14.05,9.46-29.84,10.65-46.77c-9.95-13.26-1.69-24.43-1.69-24.43l-22.9-19.32c-2.81-2.37-4.49-5.81-4.65-9.48
									l-1.77-42.18l11.87-3.02l2.45,36.61c0.21,3.11,2.1,5.86,4.92,7.17l26.04,12.13c2.21,13.38,13.82,3.89,13.82,3.89l0,0
									c11.27,1.8,19.92,11.48,19.66,22.88C1184.33,1599.69,1183.19,1607.43,1180.39,1617.3z"/><path fill="#48495b" d="M1126.06,1656.16c-12.76,36.6-17.41,78.42-16.17,124.02l8.37-2.76c9.72-3.21,20.16-3.48,30.03-0.8
									l0.35,0.1c10.5,2.86,21.63,2.28,31.78-1.63l0,0c7.23-2.79,14.83-4.54,22.55-5.18l19.07-1.59
									c-10.59-16.54-19.52-34.08-24.62-53.96c-1.81-7.06-2.72-14.29-3.35-21.55c-0.73-8.44-3.29-23.84-12.28-35.24
									L1126.06,1656.16z"/><polygon fill="#fa5669" points="1139.2 1621.72 1100.58 1634.98 1102.9 1647.55 1142 1634.64"/><path fill="#37424c" d="M1173.48,1863.18H1187l3.35,15.57c0.06,0.24,0.08,0.49,0.08,0.74v1.33c0,1.79-1.45,3.24-3.24,3.24h-34.67
					c-0.92,0-1.76-0.5-2.2-1.3l0,0c-0.61-1.11-0.3-2.49,0.72-3.24c9.11-3.97,16.82-9.1,22.12-16.23
					C1173.26,1863.22,1173.37,1863.18,1173.48,1863.18z"/><path fill="#37424c" d="M1112.66,1863.18h14.09l3.36,15.57c0.06,0.24,0.08,0.49,0.08,0.74v1.33c0,1.79-1.45,3.24-3.24,3.24h-34.67
					c-0.92,0-1.76-0.5-2.2-1.3l0,0c-0.61-1.11-0.3-2.49,0.72-3.24C1099.95,1875.52,1107.36,1870.36,1112.66,1863.18z"/></g><g><path fill="#0e4275" d="M2229.84,1161l-5.23,56.92l-99.61-9.15l-28.58,310.95l-73.78-6.78l28.58-310.95l-99.08-9.11l5.23-56.92
			L2229.84,1161z"/><path fill="#f7c19b" d="M2017.83,1516.79l0.33-0.41c1.39-1.72,2.16-3.85,2.18-6.06l0.09-8.93c0.01-0.78,0.58-1.45,1.36-1.57l0,0
					c0.87-0.13,1.68,0.46,1.82,1.32l1.12,6.79c0.05,0.32,0.5,0.34,0.58,0.03c0.97-3.6,4.12-12.58,10.93-10.39
					c8.47,2.72,6.11,10.78,1.45,16.54s-9.46,10.58-9.46,10.58L2017.83,1516.79z"/><rect width="11.05" height="13.35" x="1903.44" y="1853.05" fill="#f7c19b"/><rect width="10.77" height="13.28" x="1961.31" y="1853.08" fill="#f7c19b"/><path fill="#37424c" d="M1961.17,1862.76c2.1,0.85,6.54,2.1,10.98-0.21c0.4-0.21,0.93-0.16,1.26,0.11l13.96,11.72
					c1.26,1.05,2.36,2.22,3.3,3.47l0,0c0.44,0.59,0.47,1.33,0.06,1.94l0,0c-0.42,0.63-1.24,1.03-2.14,1.03h-28.36
					c-0.87,0-1.7-0.34-2.21-0.91l0,0c-0.4-0.45-0.58-1-0.49-1.54l2.21-14.98C1959.83,1862.83,1960.56,1862.51,1961.17,1862.76z"/><path fill="#37424c" d="M1912.8,1691.68h57.41l4.72,164.96c0,1.14-0.92,2.06-2.06,2.06h-13.11c-1.06,0-1.94-0.8-2.05-1.85
					l-10.63-114.43c-0.18-1.7-1.61-3-3.33-3l0,0c-1.59,0-2.96,1.12-3.28,2.67l-22.61,114.94c-0.2,0.96-1.05,1.66-2.03,1.66h-13.63
					c-1.22,0-2.17-1.05-2.06-2.26L1912.8,1691.68z"/><path fill="#bf6f31" d="M1912.98,1692.71c8.08,2.89,33.29,10.2,59.99,0.47c1.62-0.59,2.7-2.12,2.7-3.84v-89.38
					c0-1.57-0.21-3.13-0.62-4.64l-0.17-0.64c-1.03-3.79-0.77-7.81,0.73-11.43l54.11-57.39c0.38-0.92-0.06-1.96-0.98-2.33
					l-10.01-9.69c-0.83-0.33-1.78,0.01-2.21,0.79l-52.56,43.61c-1.15,2.09-6.35,5.16-8.74,5.16l-21.15-1.72
					c-0.34,0-0.66,0.13-0.9,0.37l-20.09,19.85c-2.98,3.06-5.21,6.76-6.52,10.83l-14.55,45.33c-0.46,1.42-0.69,2.9-0.69,4.4v2.06
					c0,8.77,7.79,15.57,16.45,14.24c0.72-0.11,1.47-0.24,2.25-0.4l0.25,30.57C1910.29,1690.62,1911.37,1692.14,1912.98,1692.71z"/><path fill="#f7c19b" d="M1933.71,1562.37c1.71,1.52,7.13,5.34,13.9-0.15c0.3-0.24,0.47-0.6,0.47-0.99v-4.69
					c0-0.86,0.71-1.53,1.57-1.54c2.65-0.03,7.8-2.97,8.43-24.88c0.09-3.21-1.07-6.34-3.27-8.68c-5.84-6.2-18.25-15.17-28.29,6.11
					c0,0-3.98,11.56,3.45,18.16c2.09,1.85,3.32,4.48,3.29,7.27l-0.11,8.12C1933.15,1561.59,1933.35,1562.05,1933.71,1562.37z"/><path fill="#f7c19b" d="M1955.62,1619.11l0.72-0.36c0.72-0.36,1.26-1,1.49-1.77l1.68-5.55c0.21-0.68,0.97-1.01,1.61-0.69l0,0
					c0.45,0.23,0.7,0.72,0.62,1.22l-0.65,3.74c-0.05,0.28,0.3,0.44,0.49,0.23c1.38-1.66,4.63-4.95,7.78-3.44
					c4.14,1.98,5.43,10.99,2.16,13.15c-2.73,1.8-7.17,2.61-8.57,2.84c-0.3,0.05-0.6,0.12-0.89,0.23l-1.71,0.64L1955.62,1619.11z"/><polyline fill="#bf6f31" points="1902.52 1638.53 1955.21 1618.62 1960.58 1630.29 1910.02 1658.34"/><path fill="#b26028" d="M1910.02,1658.51c-0.06,0-0.12-0.03-0.15-0.09c-0.05-0.08-0.02-0.18,0.07-0.23l50.42-27.98l-5.24-11.38
						l-52.54,19.85c-0.09,0.03-0.18-0.01-0.22-0.1c-0.03-0.09,0.01-0.18,0.1-0.22l52.68-19.91c0.08-0.03,0.18,0.01,0.21,0.09
						l5.37,11.67c0.04,0.08,0.01,0.18-0.07,0.22l-50.55,28.05C1910.08,1658.51,1910.05,1658.51,1910.02,1658.51z"/><path fill="#37424c" d="M1933.2,1557.42h-2.67c-2.98,0-5.83-1.25-7.85-3.44l0,0c-1.91-2.07-2.97-4.79-2.97-7.61v-3.83
					c0-0.99,0.13-1.97,0.39-2.92l3.5-13c0.47-1.75-0.61-3.53-2.37-3.96c-4.11-0.98-11.58-4.73-6.2-12.6
					c4.82-7.04,10.9-2.52,13.58,1.22c0.75,1.05,2.17,1.36,3.3,0.75l0,0c2.53-1.37,5.37-2.09,8.25-2.09h7.11
					c3.61,0,6.97,1.93,8.69,5.09c1.4,2.57,2.41,6.02,1.51,10.09c-0.05,0.23-0.31,0.35-0.53,0.25l-9.37-4.64
					c-0.58-0.27-1.26,0.07-1.39,0.7c-0.67,3.29-2.93,12.34-8.26,17.22c-0.89,0.81-2.31,0.57-2.89-0.48
					c-0.68-1.23-1.72-2.75-3.04-3.69c-2.78-1.98-6.28,1.28-4.5,4.19c0.59,0.96,1.53,2.08,2.99,3.36c1.56,1.37,2.52,3.31,2.62,5.39
					L1933.2,1557.42z"/><path fill="#37424c" d="M1903.73,1863.98c1.71,1.04,5.61,2.66,10.55-0.05c0.5-0.27,1.12,0.03,1.21,0.59l2.56,15.35
					c0.01,0.08,0.02,0.16,0.02,0.24v2.51c0,0.8-0.65,1.45-1.45,1.45h-16.82c-0.8,0-1.45-0.65-1.45-1.45v-2.25
					c0-0.12,0.02-0.25,0.05-0.37l4.09-15.52C1902.64,1863.93,1903.26,1863.69,1903.73,1863.98z"/></g><g><path fill="#0e4275" d="M2384.44,1206.54l10.45,96.29l122.06-13.25l6.17,56.82l-122.06,13.25l11.02,101.55l137.85-14.96l6.17,56.82
			l-212.04,23.01l-39.97-368.31l212.04-23.01l6.17,56.82L2384.44,1206.54z"/><path fill="#f7c19b" d="M2341.81,1533.39l7.94,3.9l2.22-3.09c0,0,10.82-8.02,1.55-14.68c-3.61-2.59-8.55,0.73-7.44,5.04
					c0.02,0.06,0.03,0.12,0.05,0.18c0.04,0.15-0.16,0.24-0.24,0.11l-2.07-3.06c-0.35-0.52-1.05-0.67-1.59-0.33l0,0
					c-0.49,0.31-0.68,0.93-0.44,1.45l1.58,3.56c0.35,0.8,0.38,1.7,0.08,2.51L2341.81,1533.39z"/><polygon fill="#f7c19b" points="2248.34 1850.47 2246.09 1870.57 2231.91 1869.09 2233.83 1849.75"/><path fill="#37424c" d="M2227.87,1882.05c0.05,1.12,0.97,2,2.09,2l32.44-0.01c2.52,0,4.56-2.04,4.56-4.56l0,0
						c0-0.44-0.46-1.4-0.8-1.68l-17.79-13.77c-0.62-0.5-1.42-0.28-2.06,0.2c-3.97,2.96-9.53,3.01-15.15,2.72
						c-0.56-0.03-1.08,0.28-1.33,0.78C2227.23,1872.91,2227.68,1877.7,2227.87,1882.05z"/><polygon fill="#f7c19b" points="2305.02 1848.42 2305.45 1870.85 2291.27 1871.05 2290.6 1849.5"/><path fill="#37424c" d="M2286.91,1882.05c0.05,1.12,0.97,2,2.09,2l32.44-0.01c2.52,0,4.56-2.04,4.56-4.56l0,0
						c0-0.44-0.46-1.4-0.8-1.68l-17.79-13.77c-0.62-0.5-1.42-0.28-2.06,0.2c-4,2.99-9.62,3.01-15.28,2.71
						c-0.47-0.02-0.91,0.23-1.13,0.65C2286.26,1872.83,2286.72,1877.67,2286.91,1882.05z"/><path fill="#f7c19b" d="M2348.82,1621.71l2.36,8.53l3.78-0.39c0,0,13.18,2.77,12.01-8.58c-0.45-4.42-6.22-5.91-8.71-2.22
						c-0.03,0.05-0.07,0.1-0.1,0.16c-0.08,0.13-0.28,0.04-0.25-0.11l0.91-3.58c0.16-0.61-0.2-1.23-0.8-1.4l0,0
						c-0.55-0.16-1.14,0.11-1.38,0.63l-1.62,3.54c-0.36,0.79-1.02,1.41-1.83,1.73L2348.82,1621.71z"/><path fill="#f7c19b" d="M2288.55,1556.41c-0.44,0.07-0.65,0.58-0.38,0.94l4.82,6.49c0.26,0.33,0.46,0.59,0.36,0.92
						c-0.3,0.86-0.69,1.59-1.17,2.22c-2.06,2.74-5.59,3.49-8.81,3.49c-3.31,0.01-6.28-0.77-6.99-1.04
						c-0.13-0.04-0.22-0.14-0.26-0.27l-3.79-11.58c-0.06-0.18-0.21-0.32-0.39-0.37c-8.76-2.78-11.35-13.47-11.35-13.47
						c-4.31-23.79,13.64-25.29,22.66-24.62c3.01,0.23,5.71,1.96,7.18,4.6C2306.02,1551.69,2292.47,1555.81,2288.55,1556.41z"/><path fill="#29354e" d="M2271.42,1541.08l3.27,6.62c0.38,0.77,1.42,0.9,1.98,0.26l0,0c0.28-0.33,0.37-0.79,0.22-1.19l-1.86-5.14
						c-0.41-1.14-0.17-2.4,0.6-3.32c1.48-1.77,3.44-5.07,1.61-8.69c-0.39-0.78-0.04-1.74,0.77-2.06c2.82-1.13,8.34-3.69,9.82-6.93
						c0.27-0.6,0.6-1.17,0.97-1.71c1.05-1.51,2.67-4.71,0.07-7.57c-0.43-0.47-1.12-0.61-1.7-0.32l-4.83,2.38
						c-0.34,0.17-0.74,0.05-0.94-0.26l-2.5-3.91c-0.27-0.42-0.88-0.46-1.19-0.07l-4.17,5.16c-0.91,1.12-2.36,1.64-3.78,1.34
						c-2.93-0.62-8.44-0.76-13.87,4.56c-4.83,4.74-5.51,12.15-5.3,17.23c0.14,3.33,1.76,6.42,4.4,8.46l6.18,4.77
						c0.23,0.18,0.44,0.37,0.64,0.58c1.51,1.57,7.46,9.12,10.28,6.17c0.08-0.08,0.09-0.2,0.04-0.3l-0.91-4.66
						c-0.48-0.98-1.23-1.79-2.17-2.34c-2.53-1.48-7.33-4.94-4.12-8.33c1.07-1.13,2.58-1.78,4.14-1.77
						C2270.03,1540.03,2271.01,1540.26,2271.42,1541.08z"/><polygon fill="#48495b" points="2306.04 1666.63 2307.94 1854.95 2286.85 1854.95 2277.07 1713.03 2249.33 1854.95 2230.69 1854.95 2239.66 1674.74 2277.07 1657.08"/><path fill="#2b91cc" d="M2239.88,1654.48l4.92-23.33c0,0-10.04-48.45,28.29-68.97c0.19-0.1,0.45-0.18,0.64-0.27
						c0.03,0.03,0.07,0.07,0.1,0.1c1.83,1.87,3.51,3.14,5.36,3.75c2.84,1.03,5.78,0.52,9.06-1.75c0.99-0.62,2.02-1.46,3.08-2.44
						l28.36,3.48l20.64-33.4l13.08,3.92l-17.05,40.8c-2.22,5.3-7.55,8.61-13.28,8.24l-11.01-0.69l-3.88,23.4
						c7.63,8.67,13.38,15.77,13.38,15.77l28.83-3.14l2.39,12.07l-29.23,6.17c-7.01,0.79-13.99-1.73-18.88-6.81l-0.4-0.42l-0.72,4.39
						l2.49,31.3l0,0c-13.42,5.39-27.38,9.33-41.63,11.76l-25.41,4.33c-1.69,0.29-3.2-1.11-3.03-2.81
						C2236.8,1671.37,2238.11,1662.88,2239.88,1654.48z"/></g><g><path fill="#0e4275" d="M2964.21,1367.17c-11.38,30.21-30.47,55.46-57.27,75.74s-59.47,33.91-98.01,40.9l-123.42,22.38l-65.91-363.49
			l123.42-22.38c38.54-6.99,73.92-5.61,106.17,4.15c32.24,9.75,59.01,26.87,80.31,51.33c21.29,24.47,35.24,54.93,41.85,91.38
			C2977.97,1303.62,2975.58,1336.96,2964.21,1367.17z M2881.74,1378.09c17.08-26.4,22.13-58.88,15.15-97.41
			c-6.99-38.53-23.12-67.16-48.39-85.89c-25.27-18.72-57-24.63-95.19-17.7l-49.99,9.06l45.51,251l49.99-9.06
			C2837.02,1421.16,2864.65,1404.5,2881.74,1378.09z"/><path fill="#f7c19b" d="M2691.36,1514.32l-8.79,0.96l-1.04-3.66c0,0-7.44-11.23,3.55-14.33c4.28-1.21,7.78,3.6,5.28,7.27
						c-0.03,0.05-0.07,0.1-0.11,0.16c-0.09,0.13,0.06,0.28,0.19,0.19l2.99-2.17c0.51-0.37,1.22-0.27,1.6,0.23l0,0
						c0.35,0.46,0.32,1.1-0.08,1.52l-2.7,2.81c-0.6,0.63-0.94,1.47-0.93,2.34L2691.36,1514.32z"/><path fill="#f7c19b" d="M2678.82,1635.97l1.61,8.7l-3.57,1.31c0,0-10.64,8.26-14.56-2.46c-1.53-4.18,3.01-8.03,6.85-5.81
						c0.05,0.03,0.11,0.06,0.16,0.1c0.13,0.08,0.27-0.09,0.18-0.2l-2.38-2.82c-0.41-0.48-0.36-1.19,0.11-1.62l0,0
						c0.43-0.39,1.07-0.4,1.52-0.03l3,2.48c0.67,0.55,1.53,0.82,2.4,0.75L2678.82,1635.97z"/><path fill="#37424c" d="M2714.78,1553.36c0,0-13.95,3.52-7.89,19.13l25.97,18.15l19.16,14.46l11.03,1.95
							c0,0,23.01-0.24,12.97-18.83c0,0,3.71-13.46-10.06-18.57c0,0-1.69-7.2-11.64-8.14"/><path fill="#f7c19b" d="M2728.32,1558.96c-0.58,1.83-1.15,6.87-2.44,8.61c-0.67,0.9-0.54,2.17,0.3,2.92
							c2.27,2.03,3.96,4.45,10.68,4.23c1.16-0.04,2.09-0.94,2.14-2.1c0.17-4.01,3.43-14.95,5.55-17.75c0,0,17.86-28.35-10.36-27.5
							c-0.5,0.02-1.3,0.16-1.77,0.32l-2.59,0.84c-2.2,0.71-3.98,2.36-4.85,4.51c-2.6,6.45-6.89,19.99,1.68,22.73
							C2727.99,1556.2,2728.75,1557.61,2728.32,1558.96z"/><path fill="#37424c" d="M2728.45,1558.55l0.29-1.1c0.16-0.61-0.26-1.16-0.87-1.3c-1.9-0.46-6.04-1.95-6.16-8.88
							c-0.14-8.32,5.44-15.68,13.27-18.5l0.45-0.16c0.3-0.11,0.67,0.04,0.76,0.34c0.44,1.52-2.63,5.38-1,8.96
							c1.92,4.23,2.67,8.9,1.26,13.33l-0.22,0.68c-0.62,1.95-0.79,3.97-0.44,5.95c0.71,4.02-1.78,15.96,5.62,16.81
							c2.33,0.27,12.89-7.34,12.67-9.68l0,0c-0.15-1.5,0.01-3.02,0.47-4.45l5.47-17.19c0.38-1.21,0.63-2.44,0.7-3.71
							c0.37-6.49-0.74-25.16-25.89-23.46c0,0-8.66,1.06-11.54,10.11l-4.36,13.69c-0.17,0.53-0.29,1.07-0.36,1.63
							c-0.24,1.95-1.09,7.27-3.63,11.18c-0.11,0.17-0.18,0.37-0.18,0.58l0,0"/><path fill="#f7c19b" d="M2695.39,1762.61l-8.03,108.2h15.01c-2.75-20.51,9.47-62.05,20.24-101.57L2695.39,1762.61z"/><path fill="#f7c19b" d="M2728.2,1768.89l21.93,101.63l12.27-6.69l-1.15-5.33c-3.18-14.8-4.97-29.86-5.33-45l-1.21-50.89
								L2728.2,1768.89z"/><path fill="#fa5669" d="M2755.65,1617.3l-6.28,5.35c-1.16,22.57,7.68,34.9,7.68,34.9l-19.08,13.73l-36.65-15.12
									c6.26-14.05,9.46-29.84,10.65-46.77c-9.95-13.26-1.69-24.43-1.69-24.43l-22.9-19.32c-2.81-2.37-4.49-5.81-4.65-9.48
									l-1.77-42.18l11.87-3.02l2.45,36.61c0.21,3.11,2.1,5.86,4.92,7.17l26.04,12.13c2.21,13.38,13.82,3.89,13.82,3.89l0,0
									c11.27,1.8,19.92,11.48,19.66,22.88C2759.59,1599.69,2758.46,1607.43,2755.65,1617.3z"/><path fill="#48495b" d="M2701.32,1656.16c-12.76,36.6-17.42,78.42-16.17,124.02l8.37-2.76c9.72-3.21,20.16-3.48,30.03-0.8
									l0.35,0.1c10.5,2.86,21.63,2.28,31.78-1.63l0,0c7.23-2.79,14.83-4.54,22.55-5.18l19.07-1.59
									c-10.59-16.54-19.52-34.08-24.62-53.96c-1.81-7.06-2.72-14.29-3.35-21.55c-0.73-8.44-3.29-23.84-12.28-35.24
									L2701.32,1656.16z"/><polygon fill="#fa5669" points="2714.47 1621.72 2675.84 1634.98 2678.17 1647.55 2717.26 1634.64"/><path fill="#37424c" d="M2748.75,1863.18h13.52l3.35,15.57c0.06,0.24,0.08,0.49,0.08,0.74v1.33c0,1.79-1.45,3.24-3.24,3.24h-34.67
					c-0.92,0-1.76-0.5-2.2-1.3l0,0c-0.61-1.11-0.3-2.49,0.72-3.24c9.11-3.97,16.82-9.1,22.12-16.23
					C2748.52,1863.22,2748.63,1863.18,2748.75,1863.18z"/><path fill="#37424c" d="M2687.93,1863.18h14.09l3.36,15.57c0.06,0.24,0.08,0.49,0.08,0.74v1.33c0,1.79-1.45,3.24-3.24,3.24h-34.67
					c-0.92,0-1.76-0.5-2.2-1.3l0,0c-0.61-1.11-0.3-2.49,0.72-3.24C2675.22,1875.52,2682.63,1870.36,2687.93,1863.18z"/></g><g><path fill="#0e4275" d="M1688.96,1165.72c34.1,21.25,58.81,51.65,74.14,91.18l-96.23,2.19c-18.64-34.52-49.4-51.29-92.29-50.32
			c-23.92,0.54-44.96,6.34-63.13,17.38c-18.18,11.06-32.15,26.56-41.96,46.54s-14.41,42.87-13.82,68.68
			c0.59,25.82,6.23,48.48,16.93,67.97c10.7,19.52,25.37,34.47,44.03,44.87c18.65,10.4,39.94,15.33,63.86,14.79
			c42.51-0.97,72.49-19.11,89.91-54.46l96.23-2.19c-13.52,40.18-36.83,71.58-69.93,94.16c-33.1,22.6-71.29,34.39-114.56,35.37
			c-37.21,0.85-71.57-7.01-103.09-23.58c-31.52-16.56-56.65-40.11-75.38-70.64c-18.74-30.52-28.55-65.34-29.44-104.44
			c-0.88-38.73,7.34-73.75,24.67-105.1c17.32-31.35,41.36-56.11,72.09-74.28c30.72-18.16,64.69-27.68,101.9-28.53
			C1616.17,1134.33,1654.86,1144.47,1688.96,1165.72z"/><path fill="#8a4224" d="M1735.84,1701.53v41.38c0,2.47,1.31,4.47,2.94,4.47h72.02c1.62,0,2.94-2,2.94-4.47v-41.38H1735.84z"/><rect width="5.78" height="4.88" x="1790.5" y="1715.62" fill="#bf6f31"/><rect width="5.78" height="4.88" x="1753.59" y="1715.62" fill="#bf6f31"/><path fill="#bf6f31" d="M1735.84,1695.71v15.65c0,2.21,1.79,3.99,3.99,3.99h69.9c2.21,0,4-1.79,4-3.99v-15.65
								c0-1.62-1.31-2.94-2.94-2.94h-72.03C1737.16,1692.77,1735.84,1694.09,1735.84,1695.71z"/><path fill="#8a4224" d="M1763.28,1692.77h1.36c1.64-8.14,12.51-9.34,15.85-9.51c1.34-0.07,2.35,0.31,3.09,1.15
								c2.1,2.4,1.3,7.71,1.19,8.36h1.36c0.2-1.34,0.81-6.55-1.54-9.24c-1.01-1.16-2.42-1.7-4.17-1.6
								C1776.79,1682.12,1764.92,1683.45,1763.28,1692.77z"/><rect width="7.6" height="7.09" x="1752.67" y="1708.53" fill="#8a4224"/><rect width="7.6" height="7.09" x="1789.49" y="1708.53" fill="#8a4224"/><path fill="#f7c19b" d="M1625.67,1548.24l-11.31,5.86l-3.3-4.37c0,0-15.84-11.2-2.71-21.09c5.11-3.85,12.33,0.78,10.87,7.01
						c-0.02,0.09-0.04,0.18-0.06,0.26c-0.05,0.22,0.23,0.34,0.35,0.16l2.89-4.47c0.49-0.76,1.5-0.99,2.27-0.53l0,0
						c0.71,0.43,1,1.31,0.68,2.08l-2.15,5.17c-0.48,1.16-0.49,2.46-0.03,3.62L1625.67,1548.24z"/><path fill="#f7c19b" d="M1765.26,1671.34l11.98-4.32l2.69,4.77c0,0,14.22,13.19-0.1,21.26c-5.58,3.14-12.12-2.4-9.85-8.39
						c0.03-0.08,0.06-0.17,0.1-0.25c0.08-0.21-0.19-0.37-0.33-0.2l-3.45,4.05c-0.59,0.69-1.61,0.79-2.32,0.22l0,0
						c-0.65-0.52-0.82-1.43-0.4-2.15l2.82-4.84c0.63-1.08,0.81-2.37,0.51-3.59L1765.26,1671.34z"/><polygon fill="#1d3557" points="1750.77 1605.2 1780.27 1670.15 1765.23 1675.84 1737.33 1630.89"/><path fill="#1d3557" d="M1722.1,1690.83l-22.98-17.68c0,0-7.02-44.3-21.86-69.75l-22.38,0.65c-6.46,0.19-12.57-2.95-16.19-8.3
							l-26.32-42.58l14.07-8.24l25.62,37.59l25.66-8.66c1.11-1.12,2.4-2.02,3.83-2.68c8.23-3.83,36.82-14.9,53.63,6.89
							c17.67,22.43,23.42,41.45,24.75,83.78l0,0L1722.1,1690.83z"/><polygon fill="#f7c19b" points="1774.32 1867.04 1786.84 1862.25 1780.55 1845.55 1768.03 1850.34"/><path fill="#37424c" d="M1788.24,1859.58l6.41,7.69c0.54,0.64,0.87,1.38,0.96,2.14l0,0c0.23,1.92-1.06,3.75-3.27,4.6l-22,8.53
						c-1.88,0.73-3.95,1.13-6.06,1.17l0,0c-2.31,0.04-4.25-1.39-4.33-3.19l0,0c-0.03-0.73,0.25-1.45,0.81-2.04l11.35-14.81
						c0.27-0.35,0.68-0.63,1.16-0.8l11.72-4.04C1786.16,1858.41,1787.54,1858.73,1788.24,1859.58z"/><polygon fill="#f7c19b" points="1684.22 1872.01 1696.88 1872.1 1696.98 1852.21 1684.32 1852.12"/><path fill="#37424c" d="M1699.29,1869.09l3.21,9.48c0.27,0.79,0.31,1.6,0.12,2.34l0,0c-0.48,1.88-2.34,3.11-4.71,3.11l-23.6,0.03
						c-2.02,0-4.09-0.37-6.07-1.1l0,0c-2.17-0.8-3.47-2.83-2.89-4.54l0,0c0.24-0.7,0.76-1.26,1.49-1.61l15.93-9.73
						c0.38-0.23,0.86-0.35,1.37-0.33l12.39,0.45C1697.77,1867.25,1698.94,1868.05,1699.29,1869.09z"/><path fill="#334d5e" d="M1767.63,1856.47l-35.99-72.31l-5.92-60.07l-17.76,53.71l-7.78,80.37h-19.44l3.89-89.92l14.49-95.1
						c0,0,37.83,7.07,60.81-11.31l-2.12,116.66l26.87,70.7L1767.63,1856.47z"/><path fill="#f7c19b" d="M1693.25,1562.28c0.4-0.02,0.68,0.38,0.52,0.74l-2.92,6.61c-0.16,0.34-0.29,0.61-0.13,0.87
							c0.43,0.69,0.92,1.25,1.46,1.71c2.34,1.98,5.56,1.94,8.38,1.3c2.89-0.64,5.33-1.92,5.9-2.29c0.1-0.06,0.16-0.17,0.18-0.28
							l1.01-10.85c0.02-0.17,0.12-0.32,0.27-0.4c7.09-4.16,7.23-14,7.23-14c-0.95-21.6-16.91-19.36-24.64-16.99
							c-2.58,0.79-4.59,2.84-5.35,5.43C1677.08,1561.62,1689.71,1562.54,1693.25,1562.28z"/><path fill="#29354e" d="M1705.16,1545.51l-1.54,6.42c-0.18,0.74-1.06,1.07-1.67,0.61l0,0c-0.31-0.23-0.48-0.61-0.43-1l0.61-4.85
							c0.13-1.07-0.32-2.12-1.18-2.78c-1.64-1.25-4.01-3.74-3.12-7.26c0.19-0.76-0.31-1.52-1.08-1.64c-2.69-0.43-8-1.56-9.94-4.1
							c-0.35-0.47-0.75-0.9-1.18-1.3c-1.21-1.11-3.26-3.58-1.56-6.59c0.28-0.5,0.86-0.75,1.42-0.62l4.69,1.12
							c0.33,0.08,0.66-0.1,0.77-0.42l1.41-3.91c0.15-0.42,0.67-0.57,1.03-0.29l4.66,3.68c1.01,0.8,2.39,0.96,3.56,0.42
							c2.43-1.12,7.21-2.33,13,1.23c5.15,3.18,7.21,9.51,8.03,13.98c0.54,2.93-0.26,5.95-2.16,8.25l-4.45,5.38
							c-0.16,0.2-0.31,0.41-0.45,0.63c-1.01,1.67-4.7,9.43-7.74,7.42c-0.08-0.06-0.12-0.16-0.1-0.26l-0.13-4.24
							c0.23-0.95,0.72-1.81,1.43-2.47c1.91-1.79,5.42-5.76,1.94-8.09c-1.16-0.78-2.6-1.04-3.96-0.72
							C1706.16,1544.33,1705.35,1544.72,1705.16,1545.51z"/></g></svg>