<?xml version="1.0" encoding="utf-8"?>
<!-- Generator: Adobe Illustrator 24.2.3, SVG Export Plug-In . SVG Version: 6.00 Build 0)  -->
<svg version="1.1" id="Layer_1" xmlns="http://www.w3.org/2000/svg" xmlns:xlink="http://www.w3.org/1999/xlink" x="0px" y="0px"
	 viewBox="0 0 360 360" style="enable-background:new 0 0 360 360;" xml:space="preserve">
<style type="text/css">
	.st0{fill-rule:evenodd;clip-rule:evenodd;fill:#902138;}
</style>
<g>
	<path class="st0" d="M282.3,218.4l3.4-0.4c0.1,0.5,0.4,0.8,0.9,1.1s1.1,0.4,1.9,0.4c0.9,0,1.5-0.1,2-0.3c0.3-0.1,0.5-0.4,0.5-0.6
		c0-0.2-0.1-0.3-0.2-0.4c-0.2-0.1-0.5-0.2-1.1-0.3c-2.7-0.4-4.5-0.8-5.2-1.1c-1-0.5-1.5-1.1-1.5-2c0-0.8,0.4-1.4,1.3-1.9
		s2.2-0.8,4.1-0.8c1.8,0,3.1,0.2,3.9,0.6c0.9,0.4,1.4,1,1.8,1.8l-3.2,0.4c-0.1-0.4-0.4-0.6-0.8-0.8s-0.9-0.3-1.6-0.3
		c-0.9,0-1.5,0.1-1.9,0.3c-0.3,0.1-0.4,0.3-0.4,0.5c0,0.2,0.1,0.3,0.3,0.4c0.3,0.2,1.4,0.4,3.2,0.7c1.8,0.3,3.1,0.6,3.8,1.1
		c0.7,0.4,1.1,1,1.1,1.8c0,0.8-0.5,1.5-1.5,2.1c-1,0.6-2.4,0.9-4.4,0.9c-1.8,0-3.1-0.2-4.2-0.7C283.3,220,282.6,219.3,282.3,218.4
		 M277.3,215.8c0-0.7-0.3-1.2-0.8-1.6c-0.5-0.4-1.1-0.5-1.8-0.5c-0.7,0-1.4,0.2-1.8,0.6c-0.5,0.4-0.7,0.9-0.7,1.5L277.3,215.8
		L277.3,215.8z M277.1,218.2l3.4,0.4c-0.4,0.9-1.1,1.5-2.1,2s-2.1,0.7-3.5,0.7c-2.2,0-3.9-0.5-5-1.5c-0.9-0.8-1.3-1.8-1.3-3.1
		c0-1.5,0.6-2.6,1.7-3.5c1.1-0.8,2.5-1.3,4.2-1.3c1.9,0,3.4,0.4,4.5,1.3c1.1,0.9,1.6,2.2,1.6,4h-8.5c0,0.7,0.3,1.2,0.8,1.6
		c0.5,0.4,1.2,0.6,2,0.6c0.5,0,1-0.1,1.3-0.3C276.7,218.9,277,218.6,277.1,218.2z M267.1,214.7l-3.4,0.4c-0.1-0.5-0.4-0.8-0.8-1.1
		c-0.4-0.2-0.9-0.4-1.5-0.4c-0.9,0-1.5,0.2-2,0.6c-0.5,0.4-0.8,1.1-0.8,2c0,1.1,0.3,1.8,0.8,2.2c0.5,0.4,1.2,0.6,2.1,0.6
		c0.6,0,1.2-0.1,1.6-0.4c0.4-0.3,0.7-0.7,0.9-1.3l3.3,0.4c-0.4,1.1-1,1.9-2,2.4c-1,0.6-2.3,0.8-4,0.8c-1.9,0-3.4-0.4-4.5-1.2
		c-1.1-0.8-1.7-2-1.7-3.4c0-1.5,0.6-2.6,1.7-3.4s2.6-1.2,4.5-1.2c1.6,0,2.8,0.2,3.7,0.7C266.1,213,266.7,213.8,267.1,214.7z
		 M249.1,221v-8.9h3.4v8.9H249.1z M249.1,210.9v-2.2h3.4v2.2H249.1z M238.8,221l-5.2-8.9h3.6l2.4,4.6l0.7,1.5
		c0.2-0.4,0.3-0.6,0.4-0.8c0.1-0.2,0.2-0.5,0.4-0.8l2.4-4.6h3.5l-5.1,8.9L238.8,221L238.8,221z M228.9,221h-3.4v-8.9h3.1v1.3
		c0.5-0.6,1-1,1.5-1.2c0.4-0.2,0.9-0.3,1.5-0.3c0.8,0,1.5,0.1,2.2,0.4l-1.1,2.1c-0.6-0.3-1.1-0.4-1.6-0.4c-0.5,0-0.9,0.1-1.2,0.3
		c-0.3,0.2-0.6,0.5-0.8,1c-0.2,0.5-0.3,1.5-0.3,3L228.9,221L228.9,221z M219.5,215.8c0-0.7-0.3-1.2-0.8-1.6
		c-0.5-0.4-1.1-0.5-1.8-0.5c-0.7,0-1.4,0.2-1.8,0.6c-0.5,0.4-0.7,0.9-0.7,1.5L219.5,215.8L219.5,215.8z M219.3,218.2l3.4,0.4
		c-0.4,0.9-1.1,1.5-2.1,2s-2.1,0.7-3.5,0.7c-2.2,0-3.9-0.5-5-1.5c-0.9-0.8-1.3-1.8-1.3-3.1c0-1.5,0.6-2.6,1.7-3.5s2.5-1.3,4.2-1.3
		c1.9,0,3.4,0.4,4.5,1.3c1.1,0.9,1.6,2.2,1.6,4h-8.5c0,0.7,0.3,1.2,0.8,1.6c0.5,0.4,1.2,0.6,2,0.6c0.5,0,1-0.1,1.3-0.3
		C218.8,218.9,219.1,218.6,219.3,218.2z M194.4,217l3.5-0.2c0.2,0.8,0.6,1.4,1.3,1.8c0.6,0.4,1.5,0.6,2.6,0.6c1.1,0,2-0.2,2.6-0.5
		s0.9-0.7,0.9-1.2c0-0.3-0.1-0.5-0.4-0.7c-0.2-0.2-0.7-0.4-1.3-0.5c-0.4-0.1-1.4-0.3-2.9-0.5c-1.9-0.3-3.3-0.7-4-1.2
		c-1.1-0.7-1.6-1.5-1.6-2.5c0-0.6,0.3-1.2,0.8-1.8c0.5-0.6,1.2-1,2.2-1.2c1-0.3,2.1-0.4,3.5-0.4c2.2,0,3.9,0.3,5,1
		c1.1,0.7,1.7,1.6,1.8,2.7l-3.6,0.1c-0.1-0.6-0.5-1.1-1-1.4c-0.5-0.3-1.3-0.4-2.3-0.4c-1,0-1.9,0.1-2.4,0.4
		c-0.4,0.2-0.6,0.4-0.6,0.8c0,0.3,0.2,0.5,0.5,0.8c0.4,0.3,1.6,0.5,3.3,0.8c1.7,0.3,3,0.6,3.9,0.9s1.5,0.7,2,1.2s0.7,1.2,0.7,2
		c0,0.7-0.3,1.4-0.9,2c-0.6,0.6-1.4,1.1-2.4,1.4s-2.3,0.4-3.9,0.4c-2.2,0-4-0.4-5.2-1.1C195.4,219.4,194.7,218.4,194.4,217z
		 M181.6,221v-12.3h3.4V221H181.6z M174.9,216.7c-0.4,0.1-1.1,0.2-2.1,0.4c-0.9,0.1-1.6,0.3-1.9,0.4c-0.4,0.2-0.7,0.5-0.7,0.8
		s0.2,0.6,0.5,0.9c0.4,0.2,0.8,0.4,1.4,0.4c0.6,0,1.2-0.1,1.8-0.4c0.4-0.2,0.7-0.5,0.8-0.8c0.1-0.2,0.1-0.6,0.1-1.1L174.9,216.7
		L174.9,216.7z M170.3,214.8l-3.1-0.4c0.4-0.9,0.9-1.5,1.8-1.9c0.9-0.4,2.1-0.6,3.8-0.6c1.5,0,2.6,0.1,3.4,0.4s1.3,0.6,1.6,0.9
		c0.3,0.4,0.4,1.1,0.4,2.1l0,2.8c0,0.8,0.1,1.4,0.2,1.7c0.1,0.4,0.3,0.8,0.6,1.2h-3.4c-0.1-0.2-0.2-0.4-0.3-0.7
		c-0.1-0.1-0.1-0.2-0.1-0.3c-0.6,0.4-1.2,0.7-1.9,0.9c-0.7,0.2-1.4,0.3-2.1,0.3c-1.3,0-2.4-0.2-3.1-0.8c-0.8-0.5-1.1-1.1-1.1-1.9
		c0-0.5,0.2-0.9,0.5-1.4c0.4-0.4,0.8-0.7,1.5-0.9c0.6-0.2,1.5-0.4,2.7-0.6c1.6-0.2,2.7-0.4,3.3-0.6v-0.2c0-0.5-0.2-0.8-0.5-1
		c-0.3-0.2-0.9-0.3-1.8-0.3c-0.6,0-1.1,0.1-1.4,0.2C170.8,214.1,170.5,214.4,170.3,214.8z M160.9,221v-8.9h3.4v8.9H160.9z
		 M160.9,210.9v-2.2h3.4v2.2H160.9z M157.5,221h-3.4v-4.6c0-1-0.1-1.6-0.2-1.9c-0.1-0.3-0.4-0.5-0.7-0.7s-0.7-0.2-1.2-0.2
		c-0.6,0-1.1,0.1-1.6,0.3s-0.8,0.5-1,0.9c-0.2,0.4-0.3,1.1-0.3,2.1v4.1h-3.4v-8.9h3.1v1.3c1.1-1,2.5-1.5,4.2-1.5
		c0.8,0,1.4,0.1,2.1,0.3s1.1,0.4,1.4,0.7c0.3,0.3,0.5,0.6,0.7,1c0.1,0.4,0.2,0.9,0.2,1.6L157.5,221L157.5,221z M133.3,216.5
		c0,0.9,0.3,1.6,0.9,2c0.6,0.5,1.4,0.7,2.2,0.7s1.6-0.2,2.2-0.7c0.6-0.5,0.9-1.1,0.9-2.1c0-0.9-0.3-1.6-0.9-2
		c-0.6-0.5-1.3-0.7-2.2-0.7s-1.6,0.2-2.2,0.7C133.6,215,133.3,215.6,133.3,216.5z M129.9,216.4c0-0.8,0.3-1.5,0.8-2.3
		c0.6-0.7,1.4-1.3,2.4-1.7c1-0.4,2.2-0.6,3.4-0.6c1.9,0,3.5,0.4,4.8,1.3c1.2,0.9,1.9,2,1.9,3.3c0,1.4-0.6,2.5-1.9,3.4
		c-1.3,0.9-2.8,1.3-4.7,1.3c-1.2,0-2.3-0.2-3.4-0.6c-1.1-0.4-1.9-0.9-2.4-1.6C130.1,218.3,129.9,217.4,129.9,216.4z M108.4,212.1
		h3.1v1.2c1.1-0.9,2.5-1.4,4-1.4c0.8,0,1.5,0.1,2.1,0.4c0.6,0.2,1.1,0.6,1.5,1.1c0.6-0.5,1.2-0.8,1.8-1.1s1.3-0.4,2.1-0.4
		c0.9,0,1.7,0.1,2.4,0.4c0.7,0.3,1.1,0.7,1.5,1.2c0.2,0.4,0.3,1,0.3,1.9v5.7h-3.4v-5.1c0-0.9-0.1-1.5-0.3-1.7
		c-0.3-0.3-0.8-0.5-1.4-0.5c-0.5,0-0.9,0.1-1.3,0.3c-0.4,0.2-0.7,0.5-0.9,0.9c-0.2,0.4-0.3,1-0.3,1.9v4.3h-3.4v-4.9
		c0-0.9-0.1-1.4-0.2-1.7s-0.3-0.4-0.6-0.6c-0.3-0.1-0.6-0.2-1-0.2c-0.5,0-1,0.1-1.4,0.3c-0.4,0.2-0.7,0.5-0.9,0.9
		c-0.2,0.4-0.3,1-0.3,1.8v4.3h-3.4L108.4,212.1L108.4,212.1z M101.7,221v-8.9h3.4v8.9H101.7z M101.7,210.9v-2.2h3.4v2.2H101.7z
		 M95.3,221h-3.4v-8.9h3.2v1.3c0.5-0.6,1-1,1.5-1.2s0.9-0.3,1.5-0.3c0.8,0,1.5,0.1,2.2,0.4l-1.1,2.1c-0.6-0.3-1.1-0.4-1.6-0.4
		c-0.5,0-0.9,0.1-1.2,0.3c-0.3,0.2-0.6,0.5-0.8,1c-0.2,0.5-0.3,1.5-0.3,3L95.3,221L95.3,221z M89.7,212.1v1.9h-2.3v3.6
		c0,0.7,0,1.1,0.1,1.3c0.1,0.1,0.1,0.2,0.3,0.3s0.3,0.1,0.6,0.1c0.3,0,0.8-0.1,1.4-0.2l0.3,1.8c-0.8,0.2-1.7,0.4-2.7,0.4
		c-0.6,0-1.2-0.1-1.7-0.2c-0.5-0.1-0.8-0.3-1.1-0.6s-0.4-0.5-0.5-0.9c-0.1-0.3-0.1-0.8-0.1-1.7v-3.9h-1.6v-1.9H84v-1.8l3.4-1.4v3.2
		L89.7,212.1L89.7,212.1z M77.2,216.7c-0.4,0.1-1.1,0.2-2.1,0.4c-0.9,0.1-1.6,0.3-1.8,0.4c-0.4,0.2-0.7,0.5-0.7,0.8s0.2,0.6,0.5,0.9
		c0.4,0.2,0.8,0.4,1.3,0.4c0.6,0,1.2-0.1,1.8-0.4c0.4-0.2,0.7-0.5,0.8-0.8c0.1-0.2,0.1-0.6,0.1-1.1L77.2,216.7L77.2,216.7z
		 M72.6,214.8l-3.1-0.4c0.3-0.9,0.9-1.5,1.8-1.9c0.8-0.4,2.1-0.6,3.8-0.6c1.5,0,2.7,0.1,3.4,0.4s1.3,0.6,1.6,0.9
		c0.3,0.4,0.4,1.1,0.4,2.1l0,2.8c0,0.8,0.1,1.4,0.2,1.7c0.1,0.4,0.3,0.8,0.6,1.2h-3.4c-0.1-0.2-0.2-0.4-0.3-0.7
		c-0.1-0.1-0.1-0.2-0.1-0.3c-0.6,0.4-1.2,0.7-1.9,0.9c-0.7,0.2-1.4,0.3-2.1,0.3c-1.3,0-2.4-0.2-3.1-0.8c-0.8-0.5-1.1-1.1-1.1-1.9
		c0-0.5,0.2-0.9,0.5-1.4c0.3-0.4,0.8-0.7,1.5-0.9c0.6-0.2,1.5-0.4,2.7-0.6c1.6-0.2,2.7-0.4,3.3-0.6v-0.2c0-0.5-0.2-0.8-0.5-1
		s-0.9-0.3-1.8-0.3c-0.6,0-1.1,0.1-1.4,0.2C73.1,214.1,72.8,214.4,72.6,214.8z M49.4,221v-12.3h5.4l3.2,8.4l3.2-8.4h5.4V221h-3.3
		v-9.7l-3.5,9.7h-3.5l-3.5-9.7v9.7H49.4z"/>
	<path class="st0" d="M277.7,153.8h15.1v37.9h-15.1V153.8z M253.4,178.6c-2.1,0.5-4.2,1-6.5,1.4c-3.1,0.6-5,1.1-5.8,1.7
		c-0.9,0.6-1.3,1.2-1.3,1.9c0,0.8,0.4,1.5,1.2,2c0.8,0.5,2.1,0.8,3.7,0.8c1.7,0,3.2-0.3,4.7-0.9c1.4-0.6,2.5-1.3,3.1-2.1
		c0.6-0.8,0.9-1.9,0.9-3.2V178.6z M240.3,173.1l-14.4-1.1c0.5-1.8,1.3-3.1,2.4-4.1c1-1,2.5-1.9,4.4-2.6c1.4-0.5,3.3-0.9,5.7-1.2
		c2.4-0.3,5-0.4,7.9-0.4c4.5,0,8.2,0.2,10.9,0.5c2.8,0.4,5,1.1,6.9,2.2c1.3,0.8,2.3,1.9,3,3.3c0.7,1.4,1.1,2.8,1.1,4.1v12.1
		c0,1.3,0.1,2.3,0.4,3c0.2,0.7,0.8,1.7,1.5,2.8h-14.2c-0.6-0.7-0.9-1.2-1.1-1.6c-0.2-0.4-0.3-0.9-0.5-1.8c-2,1.3-3.9,2.3-5.9,2.8
		c-2.7,0.8-5.8,1.1-9.3,1.1c-4.7,0-8.3-0.8-10.7-2.3c-2.4-1.5-3.6-3.4-3.6-5.6c0-2.1,0.9-3.8,2.6-5.1c1.8-1.4,5-2.4,9.7-3
		c5.7-0.8,9.3-1.4,11-1.7c1.7-0.3,3.4-0.7,5.3-1.2c0-1.3-0.4-2.2-1.1-2.7c-0.8-0.5-2.1-0.8-4.1-0.8c-2.5,0-4.3,0.3-5.6,0.8
		C241.7,171.1,240.9,171.9,240.3,173.1z M177.1,164.2H193l8.1,18.3l7.5-18.3h14.9l-15.6,29.4c-1.8,3.4-3.6,5.6-5.5,6.8
		c-2.6,1.7-6.6,2.5-12,2.5c-2.2,0-5.5-0.2-10.1-0.6l-1.2-7.4c2.2,0.5,4.6,0.7,7.3,0.7c1.8,0,3.2-0.3,4.3-0.9c1.1-0.6,2-1.6,2.8-3.1
		L177.1,164.2z"/>
	<path class="st0" d="M67.4,169.1h7.3c0.8,0,2.3-0.2,4.6-0.5c1.2-0.2,2.1-0.6,2.8-1.2c0.7-0.6,1.1-1.4,1.1-2.2
		c0-1.2-0.6-2.2-1.7-2.8s-3.3-1-6.5-1h-7.6V169.1z M50,191.7v-37.9h28.9c5.4,0,9.5,0.3,12.3,0.9c2.8,0.6,5.1,1.8,6.9,3.4
		s2.6,3.7,2.6,6.1c0,2.1-0.7,3.9-2,5.4c-1.3,1.5-3.2,2.8-5.5,3.7c-1.5,0.6-3.5,1.1-6.1,1.5c2.1,0.5,3.6,0.9,4.5,1.4
		c0.6,0.3,1.6,1,2.8,2c1.2,1,2,1.8,2.4,2.4l8.4,11H85.6l-9.3-11.6c-1.2-1.5-2.2-2.5-3.2-2.9c-1.2-0.6-2.7-0.9-4.2-0.9h-1.5v15.4
		L50,191.7L50,191.7z"/>
	<path class="st0" d="M112.1,160.1c2.4,0,4.3,1.5,4.3,3.2s-1.9,3.2-4.3,3.2s-4.3-1.5-4.3-3.2C107.8,161.6,109.7,160.1,112.1,160.1"
		/>
	<path class="st0" d="M140.5,170.9c-3.6-3.4-7.7-4.6-11.5-3.9c-3.7,0.6-4.8,2-5.6,4.7c-2.3,7.5,5,17.6,22.3,24.5
		c-8.5-0.7-16.1-3.9-22.7-10.1c-0.2,4.2,3.4,7.2,6.8,10.3c-8.7-4.1-16-9.3-18.2-18.4c-2.8,3.4-3.6,6.4-3.3,9.3
		C99.9,165.8,134.5,155.2,140.5,170.9"/>
	<path class="st0" d="M164.8,156.5c-2.2,0.4-3.4,2.1-2.9,3.7c0.6,1.6,2.9,2.6,5,2.1c2.2-0.4,3.4-2.1,2.9-3.7
		C169.2,157.1,166.9,156.1,164.8,156.5"/>
	<path class="st0" d="M143.3,171.7c2.1-3.8,5.3-6,9.1-5.7c17.4,1.4-1.3,25.5-5,27.5c6.6-2.2,9.9-4.6,14.4-11.6
		c-0.1,3.8-0.3,5.2-2.9,8.3c4.8-1.8,10.8-8.4,9.2-17.2c3.7,2.6,3.5,3.4,4.5,5.9C173.4,158.7,144,157.2,143.3,171.7"/>
	<path class="st0" d="M299,147.9v-9.1h2.4l2.9,6.4c0.3,0.6,0.5,1.1,0.6,1.4c0.1-0.3,0.4-0.8,0.6-1.5l2.9-6.3h2.2v9.1H309v-7.6
		l-3.5,7.6H304l-3.5-7.8v7.8H299z M291.7,147.9v-8h-4v-1.1h9.7v1.1h-4v8H291.7z"/>
</g>
</svg>
