<svg xmlns="http://www.w3.org/2000/svg" viewBox="0 0 64 64"><circle cx="32.606" cy="32.606" r="27.879" fill="#ff641a"/><path fill="#4f737c" d="M32.606 10.788c12.05 0 21.818 9.768 21.818 21.818s-9.768 21.818-21.818 21.818-21.818-9.768-21.818-21.818 9.768-21.818 21.818-21.818z"/><path fill="#ececf1" d="M35.177 42.156c.658.657 1.065 1.566 1.065 2.571s-.407 1.914-1.065 2.571a3.636 3.636 0 1 1 0-5.142zm1.065-21.671v12.121a3.636 3.636 0 0 1-7.272 0V20.485a3.636 3.636 0 0 1 7.272 0z"/><circle cx="59.273" cy="9.576" r="1.212" fill="#ececf1"/><circle cx="59.273" cy="55.636" r="1.212" fill="#ff641a"/><circle cx="52.606" cy="5.333" r="1.818" fill="#4f737c"/><circle cx="10.182" cy="58.667" r="1.818" fill="#ececf1"/><circle cx="8.364" cy="5.939" r="1.212" fill="#ff641a"/><circle cx="4.727" cy="52" r="1.212" fill="#4f737c"/></svg>